M48
; DRILL file KiCad 10.0.6 date 2026-09-26T10:39:49
; FORMAT={-:-/ absolute / metric / decimal}
; #@! TF.CreationDate,2026-09-26T10:39:49+03:00
; #@! TF.GenerationSoftware,Kicad,Pcbnew,10.0.6
; #@! TF.FileFunction,Plated,1,2,PTH
FMAT,2
METRIC
; #@! TA.AperFunction,Plated,PTH,ViaDrill
T1C0.300
; #@! TA.AperFunction,Plated,PTH,ViaDrill
T2C0.400
; #@! TA.AperFunction,Plated,PTH,ComponentDrill
T3C0.600
; #@! TA.AperFunction,Plated,PTH,ComponentDrill
T4C0.800
; #@! TA.AperFunction,Plated,PTH,ComponentDrill
T5C0.900
; #@! TA.AperFunction,Plated,PTH,ComponentDrill
T6C1.000
%
G90
G05
T1
X67.0Y-27.255
X67.0Y-29.7
X67.9Y-33.5
X69.1Y-33.5
X70.5Y-36.0
X71.5Y-37.0
X88.0Y-39.5
X90.5Y-39.5
X95.5Y-39.0
X99.5Y-39.0
X103.0Y-38.5
X106.287Y-33.115
X107.0Y-28.5
X107.5Y-30.3
X107.581Y-34.419
X109.287Y-34.231
X111.385Y-33.115
X111.5Y-37.0
X121.0Y-96.0
X145.0Y-120.5
X146.5Y-120.0
X147.5Y-102.0
X151.0Y-28.0
X151.0Y-30.5
X151.5Y-33.5
X151.5Y-115.5
X153.661Y-33.384
X155.0Y-36.5
X155.0Y-120.5
X155.497Y-33.503
T2
X68.48Y-45.5
X71.148Y-32.983
X84.5Y-33.0
X86.0Y-43.0
X93.5Y-39.5
X99.5Y-35.0
X109.0Y-40.0
X112.5Y-36.25
X122.0Y-97.0
X126.0Y-42.5
X129.5Y-34.0
X137.5Y-108.5
X137.5Y-111.462
X140.5Y-39.0
X143.0Y-35.5
X143.0Y-110.5
X146.5Y-116.0
X146.5Y-118.0
X150.05Y-33.4
X159.0Y-38.5
T4
X70.85Y-90.43
X72.39Y-42.23
X73.39Y-45.53
X73.39Y-90.43
X74.39Y-42.23
X75.93Y-90.43
X106.5Y-74.075
X107.5Y-77.375
X108.5Y-74.075
X144.96Y-91.74
X146.5Y-43.54
X147.5Y-46.84
X147.5Y-91.74
X148.5Y-43.54
X150.04Y-91.74
T5
X140.96Y-123.5
X143.5Y-123.5
X146.04Y-123.5
X148.58Y-123.5
X151.12Y-123.5
X153.66Y-123.5
T6
X64.5Y-42.4
X64.5Y-44.94
X64.5Y-47.48
X64.5Y-50.02
X64.5Y-52.56
X64.5Y-55.1
X64.5Y-57.64
X64.5Y-60.18
X64.5Y-62.72
X64.5Y-65.26
X64.5Y-67.8
X64.5Y-70.34
X64.5Y-72.88
X64.5Y-75.42
X64.5Y-77.96
X64.5Y-80.5
X64.5Y-83.04
X64.5Y-85.58
X64.5Y-88.12
X64.5Y-90.66
X68.16Y-95.34
X70.7Y-95.34
X73.24Y-95.34
X75.78Y-95.34
X78.32Y-95.34
X82.28Y-42.4
X82.28Y-44.94
X82.28Y-47.48
X82.28Y-50.02
X82.28Y-52.56
X82.28Y-55.1
X82.28Y-57.64
X82.28Y-60.18
X82.28Y-62.72
X82.28Y-65.26
X82.28Y-67.8
X82.28Y-70.34
X82.28Y-72.88
X82.28Y-75.42
X82.28Y-77.96
X82.28Y-80.5
X82.28Y-83.04
X82.28Y-85.58
X82.28Y-88.12
X82.28Y-90.66
X94.0Y-85.92
X94.0Y-88.46
X94.0Y-91.0
X94.0Y-93.54
X94.0Y-96.08
X98.61Y-74.245
X98.61Y-76.785
X98.61Y-79.325
X98.61Y-81.865
X98.61Y-84.405
X98.61Y-86.945
X98.61Y-89.485
X98.61Y-92.025
X98.61Y-94.565
X98.61Y-97.105
X98.61Y-99.645
X98.61Y-102.185
X98.61Y-104.725
X98.61Y-107.265
X98.61Y-109.805
X98.61Y-112.345
X98.61Y-114.885
X98.61Y-117.425
X98.61Y-119.965
X98.61Y-122.505
X108.084Y-104.075
X110.624Y-104.075
X113.164Y-104.075
X116.39Y-74.245
X116.39Y-76.785
X116.39Y-79.325
X116.39Y-81.865
X116.39Y-84.405
X116.39Y-86.945
X116.39Y-89.485
X116.39Y-92.025
X116.39Y-94.565
X116.39Y-97.105
X116.39Y-99.645
X116.39Y-102.185
X116.39Y-104.725
X116.39Y-107.265
X116.39Y-109.805
X116.39Y-112.345
X116.39Y-114.885
X116.39Y-117.425
X116.39Y-119.965
X116.39Y-122.505
X138.61Y-43.71
X138.61Y-46.25
X138.61Y-48.79
X138.61Y-51.33
X138.61Y-53.87
X138.61Y-56.41
X138.61Y-58.95
X138.61Y-61.49
X138.61Y-64.03
X138.61Y-66.57
X138.61Y-69.11
X138.61Y-71.65
X138.61Y-74.19
X138.61Y-76.73
X138.61Y-79.27
X138.61Y-81.81
X138.61Y-84.35
X138.61Y-86.89
X138.61Y-89.43
X138.61Y-91.97
X142.88Y-96.465
X145.42Y-96.465
X147.96Y-96.465
X150.5Y-96.465
X153.04Y-96.465
X156.39Y-43.71
X156.39Y-46.25
X156.39Y-48.79
X156.39Y-51.33
X156.39Y-53.87
X156.39Y-56.41
X156.39Y-58.95
X156.39Y-61.49
X156.39Y-64.03
X156.39Y-66.57
X156.39Y-69.11
X156.39Y-71.65
X156.39Y-74.19
X156.39Y-76.73
X156.39Y-79.27
X156.39Y-81.81
X156.39Y-84.35
X156.39Y-86.89
X156.39Y-89.43
X156.39Y-91.97
T3
X64.43Y-27.655G85X64.43Y-26.855
G05
X64.43Y-31.985G85X64.43Y-30.885
G05
X73.07Y-27.655G85X73.07Y-26.855
G05
X73.07Y-31.985G85X73.07Y-30.885
G05
X104.317Y-27.69G85X104.317Y-26.89
G05
X104.317Y-32.02G85X104.317Y-30.92
G05
X112.957Y-27.69G85X112.957Y-26.89
G05
X112.957Y-32.02G85X112.957Y-30.92
G05
X148.18Y-27.655G85X148.18Y-26.855
G05
X148.18Y-31.985G85X148.18Y-30.885
G05
X156.82Y-27.655G85X156.82Y-26.855
G05
X156.82Y-31.985G85X156.82Y-30.885
G05
M30
