G04 #@! TF.GenerationSoftware,KiCad,Pcbnew,10.0.6*
G04 #@! TF.CreationDate,2026-09-26T10:39:32+03:00*
G04 #@! TF.ProjectId,dock,646f636b-2e6b-4696-9361-645f70636258,rev?*
G04 #@! TF.SameCoordinates,Original*
G04 #@! TF.FileFunction,Copper,L1,Top*
G04 #@! TF.FilePolarity,Positive*
%FSLAX46Y46*%
G04 Gerber Fmt 4.6, Leading zero omitted, Abs format (unit mm)*
G04 Created by KiCad (PCBNEW 10.0.6) date 2026-09-26 10:39:32*
%MOMM*%
%LPD*%
G01*
G04 APERTURE LIST*
G04 Aperture macros list*
%AMRoundRect*
0 Rectangle with rounded corners*
0 $1 Rounding radius*
0 $2 $3 $4 $5 $6 $7 $8 $9 X,Y pos of 4 corners*
0 Add a 4 corners polygon primitive as box body*
4,1,4,$2,$3,$4,$5,$6,$7,$8,$9,$2,$3,0*
0 Add four circle primitives for the rounded corners*
1,1,$1+$1,$2,$3*
1,1,$1+$1,$4,$5*
1,1,$1+$1,$6,$7*
1,1,$1+$1,$8,$9*
0 Add four rect primitives between the rounded corners*
20,1,$1+$1,$2,$3,$4,$5,0*
20,1,$1+$1,$4,$5,$6,$7,0*
20,1,$1+$1,$6,$7,$8,$9,0*
20,1,$1+$1,$8,$9,$2,$3,0*%
%AMFreePoly0*
4,1,37,0.603843,0.796157,0.639018,0.796157,0.711114,0.766294,0.766294,0.711114,0.796157,0.639018,0.796157,0.603843,0.800000,0.600000,0.800000,-0.600000,0.796157,-0.603843,0.796157,-0.639018,0.766294,-0.711114,0.711114,-0.766294,0.639018,-0.796157,0.603843,-0.796157,0.600000,-0.800000,0.000000,-0.800000,0.000000,-0.796148,-0.078414,-0.796148,-0.232228,-0.765552,-0.377117,-0.705537,
-0.507515,-0.618408,-0.618408,-0.507515,-0.705537,-0.377117,-0.765552,-0.232228,-0.796148,-0.078414,-0.796148,0.078414,-0.765552,0.232228,-0.705537,0.377117,-0.618408,0.507515,-0.507515,0.618408,-0.377117,0.705537,-0.232228,0.765552,-0.078414,0.796148,0.000000,0.796148,0.000000,0.800000,0.600000,0.800000,0.603843,0.796157,0.603843,0.796157,$1*%
%AMFreePoly1*
4,1,37,0.000000,0.796148,0.078414,0.796148,0.232228,0.765552,0.377117,0.705537,0.507515,0.618408,0.618408,0.507515,0.705537,0.377117,0.765552,0.232228,0.796148,0.078414,0.796148,-0.078414,0.765552,-0.232228,0.705537,-0.377117,0.618408,-0.507515,0.507515,-0.618408,0.377117,-0.705537,0.232228,-0.765552,0.078414,-0.796148,0.000000,-0.796148,0.000000,-0.800000,-0.600000,-0.800000,
-0.603843,-0.796157,-0.639018,-0.796157,-0.711114,-0.766294,-0.766294,-0.711114,-0.796157,-0.639018,-0.796157,-0.603843,-0.800000,-0.600000,-0.800000,0.600000,-0.796157,0.603843,-0.796157,0.639018,-0.766294,0.711114,-0.711114,0.766294,-0.639018,0.796157,-0.603843,0.796157,-0.600000,0.800000,0.000000,0.800000,0.000000,0.796148,0.000000,0.796148,$1*%
G04 Aperture macros list end*
G04 #@! TA.AperFunction,ComponentPad*
%ADD10R,1.700000X1.700000*%
G04 #@! TD*
G04 #@! TA.AperFunction,ComponentPad*
%ADD11C,1.700000*%
G04 #@! TD*
G04 #@! TA.AperFunction,SMDPad,CuDef*
%ADD12RoundRect,0.150000X-0.512500X-0.150000X0.512500X-0.150000X0.512500X0.150000X-0.512500X0.150000X0*%
G04 #@! TD*
G04 #@! TA.AperFunction,SMDPad,CuDef*
%ADD13RoundRect,0.250000X0.450000X-0.350000X0.450000X0.350000X-0.450000X0.350000X-0.450000X-0.350000X0*%
G04 #@! TD*
G04 #@! TA.AperFunction,SMDPad,CuDef*
%ADD14RoundRect,0.250000X-0.450000X0.350000X-0.450000X-0.350000X0.450000X-0.350000X0.450000X0.350000X0*%
G04 #@! TD*
G04 #@! TA.AperFunction,SMDPad,CuDef*
%ADD15RoundRect,0.250000X0.475000X-0.337500X0.475000X0.337500X-0.475000X0.337500X-0.475000X-0.337500X0*%
G04 #@! TD*
G04 #@! TA.AperFunction,SMDPad,CuDef*
%ADD16RoundRect,0.090000X0.210000X0.485000X-0.210000X0.485000X-0.210000X-0.485000X0.210000X-0.485000X0*%
G04 #@! TD*
G04 #@! TA.AperFunction,SMDPad,CuDef*
%ADD17RoundRect,0.045000X0.105000X0.530000X-0.105000X0.530000X-0.105000X-0.530000X0.105000X-0.530000X0*%
G04 #@! TD*
G04 #@! TA.AperFunction,ComponentPad*
%ADD18O,1.000000X2.100000*%
G04 #@! TD*
G04 #@! TA.AperFunction,ComponentPad*
%ADD19O,1.000000X1.800000*%
G04 #@! TD*
G04 #@! TA.AperFunction,SMDPad,CuDef*
%ADD20RoundRect,0.250000X-0.350000X-0.450000X0.350000X-0.450000X0.350000X0.450000X-0.350000X0.450000X0*%
G04 #@! TD*
G04 #@! TA.AperFunction,ComponentPad*
%ADD21RoundRect,0.200000X-0.600000X-0.600000X0.600000X-0.600000X0.600000X0.600000X-0.600000X0.600000X0*%
G04 #@! TD*
G04 #@! TA.AperFunction,ComponentPad*
%ADD22C,1.600000*%
G04 #@! TD*
G04 #@! TA.AperFunction,ComponentPad*
%ADD23FreePoly0,0.000000*%
G04 #@! TD*
G04 #@! TA.AperFunction,ComponentPad*
%ADD24FreePoly1,0.000000*%
G04 #@! TD*
G04 #@! TA.AperFunction,ComponentPad*
%ADD25C,1.300000*%
G04 #@! TD*
G04 #@! TA.AperFunction,SMDPad,CuDef*
%ADD26C,1.000000*%
G04 #@! TD*
G04 #@! TA.AperFunction,SMDPad,CuDef*
%ADD27RoundRect,0.250000X0.350000X0.450000X-0.350000X0.450000X-0.350000X-0.450000X0.350000X-0.450000X0*%
G04 #@! TD*
G04 #@! TA.AperFunction,SMDPad,CuDef*
%ADD28RoundRect,0.250000X0.550000X-1.500000X0.550000X1.500000X-0.550000X1.500000X-0.550000X-1.500000X0*%
G04 #@! TD*
G04 #@! TA.AperFunction,SMDPad,CuDef*
%ADD29RoundRect,0.250000X0.337500X0.475000X-0.337500X0.475000X-0.337500X-0.475000X0.337500X-0.475000X0*%
G04 #@! TD*
G04 #@! TA.AperFunction,SMDPad,CuDef*
%ADD30RoundRect,0.050000X-0.550000X-0.100000X0.550000X-0.100000X0.550000X0.100000X-0.550000X0.100000X0*%
G04 #@! TD*
G04 #@! TA.AperFunction,SMDPad,CuDef*
%ADD31RoundRect,0.250000X-0.337500X-0.475000X0.337500X-0.475000X0.337500X0.475000X-0.337500X0.475000X0*%
G04 #@! TD*
G04 #@! TA.AperFunction,SMDPad,CuDef*
%ADD32RoundRect,0.150000X0.512500X0.150000X-0.512500X0.150000X-0.512500X-0.150000X0.512500X-0.150000X0*%
G04 #@! TD*
G04 #@! TA.AperFunction,SMDPad,CuDef*
%ADD33RoundRect,0.250000X-0.475000X0.337500X-0.475000X-0.337500X0.475000X-0.337500X0.475000X0.337500X0*%
G04 #@! TD*
G04 #@! TA.AperFunction,ComponentPad*
%ADD34R,1.600000X1.600000*%
G04 #@! TD*
G04 #@! TA.AperFunction,ViaPad*
%ADD35C,0.800000*%
G04 #@! TD*
G04 #@! TA.AperFunction,ViaPad*
%ADD36C,0.600000*%
G04 #@! TD*
G04 #@! TA.AperFunction,Conductor*
%ADD37C,0.200000*%
G04 #@! TD*
G04 #@! TA.AperFunction,Conductor*
%ADD38C,0.600000*%
G04 #@! TD*
G04 #@! TA.AperFunction,Conductor*
%ADD39C,0.300000*%
G04 #@! TD*
G04 APERTURE END LIST*
D10*
X68160000Y-95340000D03*
D11*
X70700000Y-95340000D03*
X73240000Y-95340000D03*
X75780000Y-95340000D03*
X78320000Y-95340000D03*
D12*
X139362500Y-112050000D03*
X139362500Y-113000000D03*
X139362500Y-113950000D03*
X141637500Y-113950000D03*
X141637500Y-113000000D03*
X141637500Y-112050000D03*
D13*
X153000000Y-88465000D03*
X153000000Y-86465000D03*
D14*
X67780000Y-53840000D03*
X67780000Y-55840000D03*
D15*
X62500000Y-29537500D03*
X62500000Y-27462500D03*
D13*
X141000000Y-52965000D03*
X141000000Y-50965000D03*
D16*
X111837500Y-32035000D03*
X111037500Y-32035000D03*
D17*
X110387500Y-32035000D03*
X109887500Y-32035000D03*
X109387500Y-32035000D03*
X108887500Y-32035000D03*
X108387500Y-32035000D03*
X107887500Y-32035000D03*
X107387500Y-32035000D03*
X106887500Y-32035000D03*
D16*
X106237500Y-32035000D03*
X105437500Y-32035000D03*
D18*
X112957500Y-31470000D03*
D19*
X112957500Y-27290000D03*
D18*
X104317500Y-31470000D03*
D19*
X104317500Y-27290000D03*
D13*
X153000000Y-64465000D03*
X153000000Y-62465000D03*
D20*
X157000000Y-34500000D03*
X159000000Y-34500000D03*
D13*
X78000000Y-87000000D03*
X78000000Y-85000000D03*
D14*
X158780000Y-27500000D03*
X158780000Y-29500000D03*
D21*
X138610000Y-43710000D03*
D22*
X138610000Y-46250000D03*
D23*
X138610000Y-48790000D03*
D22*
X138610000Y-51330000D03*
X138610000Y-53870000D03*
X138610000Y-56410000D03*
X138610000Y-58950000D03*
D23*
X138610000Y-61490000D03*
D22*
X138610000Y-64030000D03*
X138610000Y-66570000D03*
X138610000Y-69110000D03*
X138610000Y-71650000D03*
D23*
X138610000Y-74190000D03*
D22*
X138610000Y-76730000D03*
X138610000Y-79270000D03*
X138610000Y-81810000D03*
X138610000Y-84350000D03*
D23*
X138610000Y-86890000D03*
D22*
X138610000Y-89430000D03*
X138610000Y-91970000D03*
X156390000Y-91970000D03*
X156390000Y-89430000D03*
D24*
X156390000Y-86890000D03*
D22*
X156390000Y-84350000D03*
X156390000Y-81810000D03*
X156390000Y-79270000D03*
X156390000Y-76730000D03*
D24*
X156390000Y-74190000D03*
D22*
X156390000Y-71650000D03*
X156390000Y-69110000D03*
X156390000Y-66570000D03*
X156390000Y-64030000D03*
D24*
X156390000Y-61490000D03*
D22*
X156390000Y-58950000D03*
X156390000Y-56410000D03*
X156390000Y-53870000D03*
X156390000Y-51330000D03*
D24*
X156390000Y-48790000D03*
D22*
X156390000Y-46250000D03*
X156390000Y-43710000D03*
D25*
X144960000Y-91740000D03*
X147500000Y-91740000D03*
X150040000Y-91740000D03*
X147500000Y-46840000D03*
X148500000Y-43540000D03*
X146500000Y-43540000D03*
D26*
X145000000Y-50340000D03*
X145000000Y-52840000D03*
X145000000Y-55340000D03*
D27*
X150500000Y-114000000D03*
X148500000Y-114000000D03*
D12*
X86862500Y-33550000D03*
X86862500Y-34500000D03*
X86862500Y-35450000D03*
X89137500Y-35450000D03*
X89137500Y-34500000D03*
X89137500Y-33550000D03*
X148362500Y-117050000D03*
X148362500Y-118000000D03*
X148362500Y-118950000D03*
X150637500Y-118950000D03*
X150637500Y-118000000D03*
X150637500Y-117050000D03*
D20*
X153000000Y-119000000D03*
X155000000Y-119000000D03*
D14*
X143000000Y-54465000D03*
X143000000Y-56465000D03*
D28*
X120000000Y-33700000D03*
X120000000Y-28300000D03*
D14*
X148500000Y-35500000D03*
X148500000Y-37500000D03*
D27*
X106000000Y-36000000D03*
X104000000Y-36000000D03*
D14*
X67280000Y-47840000D03*
X67280000Y-49840000D03*
D27*
X103000000Y-40000000D03*
X101000000Y-40000000D03*
D28*
X95500000Y-33700000D03*
X95500000Y-28300000D03*
D29*
X141037500Y-108500000D03*
X138962500Y-108500000D03*
D27*
X143000000Y-116000000D03*
X141000000Y-116000000D03*
D14*
X64500000Y-35500000D03*
X64500000Y-37500000D03*
D13*
X150000000Y-62965000D03*
X150000000Y-60965000D03*
D30*
X96995000Y-40750000D03*
X96995000Y-41250000D03*
X96995000Y-41750000D03*
X96995000Y-42250000D03*
X99005000Y-42250000D03*
X99005000Y-41750000D03*
X99005000Y-41250000D03*
X99005000Y-40750000D03*
D28*
X80000000Y-33700000D03*
X80000000Y-28300000D03*
D31*
X98962500Y-37000000D03*
X101037500Y-37000000D03*
D27*
X148000000Y-103500000D03*
X146000000Y-103500000D03*
D29*
X107537500Y-40000000D03*
X105462500Y-40000000D03*
D13*
X97000000Y-46000000D03*
X97000000Y-44000000D03*
D32*
X69262500Y-37088738D03*
X69262500Y-36138738D03*
X69262500Y-35188738D03*
X66987500Y-35188738D03*
X66987500Y-36138738D03*
X66987500Y-37088738D03*
D27*
X79280000Y-62840000D03*
X77280000Y-62840000D03*
D20*
X94500000Y-37000000D03*
X96500000Y-37000000D03*
D32*
X153637500Y-36450000D03*
X153637500Y-35500000D03*
X153637500Y-34550000D03*
X151362500Y-34550000D03*
X151362500Y-35500000D03*
X151362500Y-36450000D03*
D15*
X99500000Y-46537500D03*
X99500000Y-44462500D03*
D10*
X142880000Y-96465000D03*
D11*
X145420000Y-96465000D03*
X147960000Y-96465000D03*
X150500000Y-96465000D03*
X153040000Y-96465000D03*
D15*
X101500000Y-30037500D03*
X101500000Y-27962500D03*
D20*
X73500000Y-34500000D03*
X75500000Y-34500000D03*
D21*
X64500000Y-42400000D03*
D22*
X64500000Y-44940000D03*
D23*
X64500000Y-47480000D03*
D22*
X64500000Y-50020000D03*
X64500000Y-52560000D03*
X64500000Y-55100000D03*
X64500000Y-57640000D03*
D23*
X64500000Y-60180000D03*
D22*
X64500000Y-62720000D03*
X64500000Y-65260000D03*
X64500000Y-67800000D03*
X64500000Y-70340000D03*
D23*
X64500000Y-72880000D03*
D22*
X64500000Y-75420000D03*
X64500000Y-77960000D03*
X64500000Y-80500000D03*
X64500000Y-83040000D03*
D23*
X64500000Y-85580000D03*
D22*
X64500000Y-88120000D03*
X64500000Y-90660000D03*
X82280000Y-90660000D03*
X82280000Y-88120000D03*
D24*
X82280000Y-85580000D03*
D22*
X82280000Y-83040000D03*
X82280000Y-80500000D03*
X82280000Y-77960000D03*
X82280000Y-75420000D03*
D24*
X82280000Y-72880000D03*
D22*
X82280000Y-70340000D03*
X82280000Y-67800000D03*
X82280000Y-65260000D03*
X82280000Y-62720000D03*
D24*
X82280000Y-60180000D03*
D22*
X82280000Y-57640000D03*
X82280000Y-55100000D03*
X82280000Y-52560000D03*
X82280000Y-50020000D03*
D24*
X82280000Y-47480000D03*
D22*
X82280000Y-44940000D03*
X82280000Y-42400000D03*
D25*
X70850000Y-90430000D03*
X73390000Y-90430000D03*
X75930000Y-90430000D03*
X73390000Y-45530000D03*
X74390000Y-42230000D03*
X72390000Y-42230000D03*
D26*
X70890000Y-49030000D03*
X70890000Y-51530000D03*
X70890000Y-54030000D03*
D27*
X86500000Y-38000000D03*
X84500000Y-38000000D03*
X92000000Y-37500000D03*
X90000000Y-37500000D03*
X88000000Y-68000000D03*
X86000000Y-68000000D03*
X95000000Y-43500000D03*
X93000000Y-43500000D03*
D15*
X146280000Y-31500000D03*
X146280000Y-29425000D03*
D10*
X94000000Y-96080000D03*
D11*
X94000000Y-93540000D03*
X94000000Y-91000000D03*
X94000000Y-88460000D03*
X94000000Y-85920000D03*
D13*
X114500000Y-36500000D03*
X114500000Y-34500000D03*
D21*
X98610000Y-74245000D03*
D22*
X98610000Y-76785000D03*
D23*
X98610000Y-79325000D03*
D22*
X98610000Y-81865000D03*
X98610000Y-84405000D03*
X98610000Y-86945000D03*
X98610000Y-89485000D03*
D23*
X98610000Y-92025000D03*
D22*
X98610000Y-94565000D03*
X98610000Y-97105000D03*
X98610000Y-99645000D03*
X98610000Y-102185000D03*
D23*
X98610000Y-104725000D03*
D22*
X98610000Y-107265000D03*
X98610000Y-109805000D03*
X98610000Y-112345000D03*
X98610000Y-114885000D03*
D23*
X98610000Y-117425000D03*
D22*
X98610000Y-119965000D03*
X98610000Y-122505000D03*
X116390000Y-122505000D03*
X116390000Y-119965000D03*
D24*
X116390000Y-117425000D03*
D22*
X116390000Y-114885000D03*
X116390000Y-112345000D03*
X116390000Y-109805000D03*
X116390000Y-107265000D03*
D24*
X116390000Y-104725000D03*
D22*
X116390000Y-102185000D03*
X116390000Y-99645000D03*
X116390000Y-97105000D03*
X116390000Y-94565000D03*
D24*
X116390000Y-92025000D03*
D22*
X116390000Y-89485000D03*
X116390000Y-86945000D03*
X116390000Y-84405000D03*
X116390000Y-81865000D03*
D24*
X116390000Y-79325000D03*
D22*
X116390000Y-76785000D03*
X116390000Y-74245000D03*
D10*
X108084100Y-104075000D03*
D11*
X110624100Y-104075000D03*
X113164100Y-104075000D03*
D25*
X107500000Y-77375000D03*
X108500000Y-74075000D03*
X106500000Y-74075000D03*
D26*
X105000000Y-82375000D03*
X105000000Y-84875000D03*
X105000000Y-87375000D03*
D16*
X71950000Y-32000000D03*
X71150000Y-32000000D03*
D17*
X70500000Y-32000000D03*
X70000000Y-32000000D03*
X69500000Y-32000000D03*
X69000000Y-32000000D03*
X68500000Y-32000000D03*
X68000000Y-32000000D03*
X67500000Y-32000000D03*
X67000000Y-32000000D03*
D16*
X66350000Y-32000000D03*
X65550000Y-32000000D03*
D18*
X73070000Y-31435000D03*
D19*
X73070000Y-27255000D03*
D18*
X64430000Y-31435000D03*
D19*
X64430000Y-27255000D03*
D33*
X136000000Y-111462500D03*
X136000000Y-113537500D03*
D13*
X115000000Y-31500000D03*
X115000000Y-29500000D03*
D27*
X79280000Y-65340000D03*
X77280000Y-65340000D03*
D16*
X155700000Y-32000000D03*
X154900000Y-32000000D03*
D17*
X154250000Y-32000000D03*
X153750000Y-32000000D03*
X153250000Y-32000000D03*
X152750000Y-32000000D03*
X152250000Y-32000000D03*
X151750000Y-32000000D03*
X151250000Y-32000000D03*
X150750000Y-32000000D03*
D16*
X150100000Y-32000000D03*
X149300000Y-32000000D03*
D18*
X156820000Y-31435000D03*
D19*
X156820000Y-27255000D03*
D18*
X148180000Y-31435000D03*
D19*
X148180000Y-27255000D03*
D29*
X84537500Y-36000000D03*
X82462500Y-36000000D03*
D20*
X147500000Y-86465000D03*
X149500000Y-86465000D03*
D28*
X141000000Y-33200000D03*
X141000000Y-27800000D03*
D33*
X101500000Y-31962500D03*
X101500000Y-34037500D03*
D13*
X148500000Y-110500000D03*
X148500000Y-108500000D03*
D14*
X75000000Y-30000000D03*
X75000000Y-32000000D03*
X67780000Y-57840000D03*
X67780000Y-59840000D03*
D32*
X110137500Y-37450000D03*
X110137500Y-36500000D03*
X110137500Y-35550000D03*
X107862500Y-35550000D03*
X107862500Y-36500000D03*
X107862500Y-37450000D03*
D34*
X140960000Y-123500000D03*
D22*
X143500000Y-123500000D03*
X146040000Y-123500000D03*
X148580000Y-123500000D03*
X151120000Y-123500000D03*
X153660000Y-123500000D03*
D14*
X143000000Y-58965000D03*
X143000000Y-60965000D03*
D27*
X145000000Y-108500000D03*
X143000000Y-108500000D03*
D35*
X146500000Y-118000000D03*
X129500000Y-34000000D03*
X99500000Y-35000000D03*
X84500000Y-33000000D03*
X112500000Y-36250000D03*
X137500000Y-108500000D03*
D36*
X70500000Y-36000000D03*
D35*
X126000000Y-42500000D03*
X137500000Y-111462500D03*
X159000000Y-38500000D03*
X93500000Y-39500000D03*
X143000000Y-35500000D03*
X122000000Y-97000000D03*
X146500000Y-116000000D03*
X143000000Y-110500000D03*
X71147759Y-32982934D03*
X68480000Y-45500000D03*
X86000000Y-43000000D03*
D36*
X67000000Y-27255000D03*
X67000000Y-29700000D03*
X106287500Y-33114690D03*
X111385310Y-33114690D03*
X107580515Y-34419485D03*
X109287500Y-34231250D03*
X111500000Y-37000000D03*
X107000000Y-28500000D03*
X107500000Y-30300000D03*
X151000000Y-30500000D03*
X151000000Y-28000000D03*
X153660959Y-33383639D03*
X155000000Y-36500000D03*
X151500000Y-33500000D03*
X146500000Y-120000000D03*
X151500000Y-115500000D03*
X88000000Y-39500000D03*
X90500000Y-39500000D03*
X155000000Y-120500000D03*
X145000000Y-120500000D03*
X155496815Y-33503185D03*
D35*
X109000000Y-40000000D03*
X140500000Y-39000000D03*
X150050000Y-33400000D03*
D36*
X147500000Y-102000000D03*
X103000000Y-38500000D03*
X121000000Y-96000000D03*
X95500000Y-39000000D03*
X99500000Y-39000000D03*
X71500000Y-37000000D03*
X67900000Y-33500000D03*
X69100000Y-33500000D03*
D37*
X70850000Y-92650000D02*
X68160000Y-95340000D01*
X70850000Y-90430000D02*
X70850000Y-92650000D01*
X72996497Y-89480000D02*
X71800000Y-90676497D01*
X75930000Y-90430000D02*
X74980000Y-89480000D01*
X71020000Y-95340000D02*
X70700000Y-95340000D01*
X74980000Y-89480000D02*
X72996497Y-89480000D01*
X71800000Y-94240000D02*
X70700000Y-95340000D01*
X71800000Y-90676497D02*
X71800000Y-94240000D01*
D38*
X73390000Y-95190000D02*
X73240000Y-95340000D01*
X84537500Y-36000000D02*
X84537500Y-37962500D01*
X114684314Y-33184315D02*
X114968629Y-32900000D01*
X110137500Y-36500000D02*
X110868629Y-36500000D01*
X101632412Y-35500000D02*
X100462500Y-35500000D01*
D37*
X69401238Y-36000000D02*
X69262500Y-36138738D01*
D38*
X131940000Y-34000000D02*
X129500000Y-34000000D01*
X141462500Y-106962500D02*
X143000000Y-108500000D01*
X111168629Y-36200000D02*
X112450000Y-36200000D01*
X86037500Y-34500000D02*
X86862500Y-34500000D01*
X155800000Y-39459238D02*
X155800000Y-36168629D01*
D39*
X96500000Y-40255000D02*
X96500000Y-37000000D01*
D38*
X84537500Y-37962500D02*
X84500000Y-38000000D01*
X98962500Y-46000000D02*
X99500000Y-46537500D01*
D37*
X62500000Y-29962500D02*
X62957500Y-29962500D01*
D38*
X82280000Y-47480000D02*
X79000000Y-44200000D01*
X101500000Y-31962500D02*
X101500000Y-30037500D01*
X100000000Y-35500000D02*
X99500000Y-35000000D01*
X76300000Y-32000000D02*
X75000000Y-32000000D01*
X67780000Y-59840000D02*
X64840000Y-59840000D01*
X146500000Y-48848528D02*
X146500000Y-57465000D01*
X79400000Y-28900000D02*
X80000000Y-28300000D01*
X96500000Y-37000000D02*
X98962500Y-37000000D01*
X155700000Y-32574999D02*
X155700000Y-32000000D01*
D37*
X70500000Y-36000000D02*
X69401238Y-36000000D01*
D38*
X136537500Y-113000000D02*
X139362500Y-113000000D01*
X149300000Y-32574999D02*
X148874999Y-33000000D01*
X65550000Y-32574999D02*
X65139999Y-32985000D01*
X117000000Y-29500000D02*
X118800000Y-29500000D01*
X157485000Y-32985000D02*
X156110001Y-32985000D01*
X159000000Y-34500000D02*
X157485000Y-32985000D01*
X102557500Y-33020000D02*
X101500000Y-31962500D01*
X138085000Y-60965000D02*
X138610000Y-61490000D01*
X95025000Y-92025000D02*
X94000000Y-91000000D01*
X144950000Y-41050000D02*
X144950000Y-47298528D01*
X112450000Y-36200000D02*
X112500000Y-36250000D01*
X101500000Y-30037500D02*
X102037500Y-29500000D01*
X97000000Y-66875000D02*
X97000000Y-46000000D01*
X147500000Y-96005000D02*
X147960000Y-96465000D01*
X65139999Y-32985000D02*
X64015786Y-32985000D01*
X71950000Y-32000000D02*
X71950000Y-32574999D01*
X84537500Y-36000000D02*
X86037500Y-34500000D01*
X132320000Y-33620000D02*
X127000000Y-28300000D01*
X146500000Y-57465000D02*
X143000000Y-60965000D01*
X111837500Y-32314214D02*
X112707601Y-33184315D01*
X97237500Y-30037500D02*
X95500000Y-28300000D01*
X139135000Y-60965000D02*
X138610000Y-61490000D01*
X105462500Y-40000000D02*
X105462500Y-39330088D01*
X86000000Y-34500000D02*
X84500000Y-33000000D01*
X132320000Y-42500000D02*
X126000000Y-42500000D01*
X158780000Y-29500000D02*
X146355000Y-29500000D01*
X148874999Y-33000000D02*
X145899912Y-33000000D01*
X62500000Y-31469214D02*
X62500000Y-29537500D01*
X132320000Y-33620000D02*
X131940000Y-34000000D01*
X138962500Y-108500000D02*
X140500000Y-106962500D01*
X141000000Y-28100088D02*
X141000000Y-27800000D01*
X64500000Y-37500000D02*
X72530000Y-45530000D01*
X75500000Y-34500000D02*
X75500000Y-32500000D01*
X148419238Y-46840000D02*
X155800000Y-39459238D01*
X142700000Y-29500000D02*
X141000000Y-27800000D01*
X140500000Y-106962500D02*
X141462500Y-106962500D01*
X145899912Y-33000000D02*
X141000000Y-28100088D01*
X111837500Y-32035000D02*
X111837500Y-32314214D01*
X105027499Y-33020000D02*
X102557500Y-33020000D01*
X107500000Y-77375000D02*
X97000000Y-66875000D01*
X64015786Y-32985000D02*
X62500000Y-31469214D01*
X72530000Y-45530000D02*
X73390000Y-45530000D01*
X86862500Y-34500000D02*
X86000000Y-34500000D01*
D37*
X69262500Y-36138738D02*
X68909448Y-36138738D01*
D38*
X71950000Y-32574999D02*
X72375001Y-33000000D01*
D37*
X75000000Y-34000000D02*
X75500000Y-34500000D01*
D38*
X117000000Y-31367588D02*
X117000000Y-29500000D01*
X102037500Y-29500000D02*
X115000000Y-29500000D01*
X136000000Y-113537500D02*
X136537500Y-113000000D01*
X74000000Y-33000000D02*
X75000000Y-32000000D01*
X134775000Y-110807412D02*
X137082412Y-108500000D01*
X127000000Y-28300000D02*
X140500000Y-28300000D01*
X134775000Y-112312500D02*
X134775000Y-110807412D01*
D39*
X96995000Y-40750000D02*
X96500000Y-40255000D01*
D38*
X159000000Y-29720000D02*
X158780000Y-29500000D01*
X79000000Y-44200000D02*
X79000000Y-38000000D01*
X115000000Y-29500000D02*
X117000000Y-29500000D01*
X80000000Y-28300000D02*
X76300000Y-32000000D01*
X148362500Y-118000000D02*
X146500000Y-118000000D01*
X98610000Y-92025000D02*
X95025000Y-92025000D01*
X137082412Y-108500000D02*
X138962500Y-108500000D01*
X147500000Y-46840000D02*
X148419238Y-46840000D01*
X143000000Y-60965000D02*
X139135000Y-60965000D01*
X147500000Y-91740000D02*
X147500000Y-96005000D01*
X148500000Y-37500000D02*
X144950000Y-41050000D01*
X132320000Y-42500000D02*
X132320000Y-33620000D01*
X64860000Y-47840000D02*
X64500000Y-47480000D01*
X146205000Y-29500000D02*
X142700000Y-29500000D01*
X73390000Y-90430000D02*
X73390000Y-95190000D01*
X115467588Y-32900000D02*
X117000000Y-31367588D01*
X156110001Y-32985000D02*
X155700000Y-32574999D01*
X136000000Y-113537500D02*
X134775000Y-112312500D01*
X114968629Y-32900000D02*
X115467588Y-32900000D01*
X155131371Y-35500000D02*
X153637500Y-35500000D01*
X159000000Y-34500000D02*
X159000000Y-29720000D01*
X65550000Y-32000000D02*
X65550000Y-32574999D01*
X62500000Y-29537500D02*
X63137500Y-28900000D01*
X72375001Y-33000000D02*
X74000000Y-33000000D01*
X97000000Y-46000000D02*
X98962500Y-46000000D01*
X110025000Y-77375000D02*
X138610000Y-48790000D01*
X64840000Y-59840000D02*
X64500000Y-60180000D01*
X105437500Y-32609999D02*
X105027499Y-33020000D01*
X100462500Y-35500000D02*
X98962500Y-37000000D01*
X95500000Y-28300000D02*
X80000000Y-28300000D01*
X105437500Y-32035000D02*
X105437500Y-32609999D01*
X138610000Y-48790000D02*
X132320000Y-42500000D01*
X158500000Y-29780000D02*
X158780000Y-29500000D01*
X67280000Y-47840000D02*
X64860000Y-47840000D01*
X112707601Y-33184315D02*
X114684314Y-33184315D01*
X100462500Y-35500000D02*
X100000000Y-35500000D01*
X120000000Y-28300000D02*
X127000000Y-28300000D01*
X75500000Y-32500000D02*
X75000000Y-32000000D01*
X105462500Y-39330088D02*
X101632412Y-35500000D01*
X107500000Y-77375000D02*
X110025000Y-77375000D01*
X63137500Y-28900000D02*
X79400000Y-28900000D01*
X146280000Y-29425000D02*
X146205000Y-29500000D01*
X149300000Y-32000000D02*
X149300000Y-32574999D01*
X79000000Y-38000000D02*
X75500000Y-34500000D01*
X110868629Y-36500000D02*
X111168629Y-36200000D01*
X101500000Y-30037500D02*
X97237500Y-30037500D01*
X144950000Y-47298528D02*
X146500000Y-48848528D01*
X155800000Y-36168629D02*
X155131371Y-35500000D01*
X118800000Y-29500000D02*
X120000000Y-28300000D01*
X140500000Y-28300000D02*
X141000000Y-27800000D01*
X146355000Y-29500000D02*
X146280000Y-29425000D01*
D37*
X77300000Y-85000000D02*
X78000000Y-85000000D01*
X82280000Y-67800000D02*
X82800000Y-67800000D01*
X78000000Y-72080000D02*
X78000000Y-85000000D01*
X82800000Y-67800000D02*
X83000000Y-68000000D01*
X76600000Y-85700000D02*
X77300000Y-85000000D01*
X76600000Y-87100000D02*
X76600000Y-85700000D01*
X75780000Y-95340000D02*
X76880000Y-94240000D01*
X83000000Y-68000000D02*
X86000000Y-68000000D01*
X76880000Y-94240000D02*
X76880000Y-87380000D01*
X76880000Y-87380000D02*
X76600000Y-87100000D01*
X82280000Y-67800000D02*
X78000000Y-72080000D01*
X78320000Y-95340000D02*
X78500000Y-95160000D01*
X78320000Y-87320000D02*
X78000000Y-87000000D01*
X78000000Y-87000000D02*
X80860000Y-84140000D01*
X86900000Y-57180000D02*
X82280000Y-52560000D01*
X86900000Y-79975635D02*
X86900000Y-57180000D01*
X80860000Y-84140000D02*
X82735635Y-84140000D01*
X82735635Y-84140000D02*
X86900000Y-79975635D01*
X78320000Y-95340000D02*
X78320000Y-87320000D01*
D38*
X102000000Y-74500000D02*
X99500000Y-72000000D01*
X159000000Y-43640000D02*
X159000000Y-38500000D01*
X82200000Y-31500000D02*
X84812500Y-31500000D01*
X113675000Y-79500000D02*
X103000000Y-79500000D01*
X81000000Y-39500000D02*
X82600000Y-41100000D01*
X94000000Y-72000000D02*
X87500000Y-65500000D01*
X116390000Y-76785000D02*
X122000000Y-82395000D01*
X136462500Y-111462500D02*
X138775000Y-111462500D01*
X87500000Y-65500000D02*
X87500000Y-50160000D01*
X138775000Y-111462500D02*
X139362500Y-112050000D01*
D39*
X102000000Y-37962500D02*
X101037500Y-37000000D01*
D38*
X99500000Y-72000000D02*
X94000000Y-72000000D01*
X80162500Y-33700000D02*
X82462500Y-36000000D01*
X84812500Y-31500000D02*
X86862500Y-33550000D01*
X82280000Y-44940000D02*
X80000000Y-42660000D01*
D39*
X101405456Y-41250000D02*
X102000000Y-40655456D01*
D38*
X93000000Y-40000000D02*
X93500000Y-39500000D01*
X136000000Y-111462500D02*
X136462500Y-111462500D01*
D39*
X102000000Y-40655456D02*
X102000000Y-37962500D01*
D38*
X80000000Y-33700000D02*
X82200000Y-31500000D01*
D39*
X96995000Y-41250000D02*
X99005000Y-41250000D01*
D38*
X122000000Y-82395000D02*
X122000000Y-97000000D01*
X82462500Y-36000000D02*
X83080000Y-36617500D01*
X80000000Y-39500000D02*
X80000000Y-33700000D01*
X141000000Y-33200000D02*
X141000000Y-33500000D01*
X141000000Y-33500000D02*
X143000000Y-35500000D01*
X80000000Y-33700000D02*
X80162500Y-33700000D01*
X93000000Y-41100000D02*
X95750000Y-41100000D01*
X80000000Y-42660000D02*
X80000000Y-39500000D01*
X80000000Y-39500000D02*
X81000000Y-39500000D01*
X93000000Y-41100000D02*
X93000000Y-40000000D01*
X82600000Y-41100000D02*
X93000000Y-41100000D01*
D39*
X99005000Y-41250000D02*
X101405456Y-41250000D01*
D38*
X87500000Y-50160000D02*
X82280000Y-44940000D01*
X116390000Y-76785000D02*
X113675000Y-79500000D01*
X103000000Y-79500000D02*
X102000000Y-78500000D01*
X102000000Y-78500000D02*
X102000000Y-74500000D01*
X156390000Y-46250000D02*
X159000000Y-43640000D01*
D39*
X96995000Y-41250000D02*
X95750000Y-41250000D01*
D37*
X148500000Y-114000000D02*
X147500000Y-115000000D01*
X138550000Y-113950000D02*
X135000000Y-117500000D01*
X121500000Y-117500000D02*
X120470000Y-118530000D01*
X139362500Y-113950000D02*
X138550000Y-113950000D01*
X115285000Y-103290000D02*
X116390000Y-102185000D01*
X115580820Y-118530000D02*
X115285000Y-118234180D01*
X120470000Y-118530000D02*
X115580820Y-118530000D01*
X148500000Y-114000000D02*
X148500000Y-110500000D01*
X140412500Y-115000000D02*
X139362500Y-113950000D01*
X147500000Y-115000000D02*
X140412500Y-115000000D01*
X135000000Y-117500000D02*
X121500000Y-117500000D01*
X115285000Y-118234180D02*
X115285000Y-103290000D01*
X142299999Y-113950000D02*
X141637500Y-113950000D01*
X127615000Y-114885000D02*
X116390000Y-114885000D01*
X146000000Y-103500000D02*
X139000000Y-103500000D01*
X139000000Y-103500000D02*
X127615000Y-114885000D01*
X146000000Y-110249999D02*
X142299999Y-113950000D01*
X146000000Y-103500000D02*
X146000000Y-110249999D01*
X141637500Y-113000000D02*
X142299999Y-113000000D01*
X145000000Y-110299999D02*
X145000000Y-108500000D01*
X142299999Y-113000000D02*
X145000000Y-110299999D01*
D38*
X142500000Y-110000000D02*
X143000000Y-110500000D01*
X141037500Y-111450000D02*
X141637500Y-112050000D01*
X146500000Y-116000000D02*
X147550000Y-117050000D01*
X141037500Y-110000000D02*
X142500000Y-110000000D01*
X147550000Y-117050000D02*
X148362500Y-117050000D01*
X141037500Y-108500000D02*
X141037500Y-110000000D01*
X141037500Y-110000000D02*
X141037500Y-111450000D01*
D37*
X153040000Y-88505000D02*
X153000000Y-88465000D01*
X150000000Y-65500000D02*
X152500000Y-68000000D01*
X138154365Y-65470000D02*
X139065635Y-65470000D01*
X153040000Y-96465000D02*
X153040000Y-88505000D01*
X157495000Y-67465000D02*
X157495000Y-93212081D01*
X137982182Y-55000000D02*
X137000000Y-55982182D01*
X156960000Y-68000000D02*
X157495000Y-67465000D01*
X141000000Y-53565000D02*
X139565000Y-55000000D01*
X139065635Y-65470000D02*
X139095635Y-65500000D01*
X152500000Y-68000000D02*
X156960000Y-68000000D01*
X137000000Y-55982182D02*
X137000000Y-64315635D01*
X141000000Y-52965000D02*
X141000000Y-53565000D01*
X139565000Y-55000000D02*
X137982182Y-55000000D01*
X157495000Y-54975000D02*
X157495000Y-67465000D01*
X157495000Y-93212081D02*
X154242081Y-96465000D01*
X154242081Y-96465000D02*
X153040000Y-96465000D01*
X156390000Y-53870000D02*
X157495000Y-54975000D01*
X137000000Y-64315635D02*
X138154365Y-65470000D01*
X139095635Y-65500000D02*
X150000000Y-65500000D01*
X153000000Y-72500000D02*
X153000000Y-86465000D01*
X151350000Y-95615000D02*
X150500000Y-96465000D01*
X156390000Y-69110000D02*
X153000000Y-72500000D01*
X149500000Y-86465000D02*
X151350000Y-88315000D01*
X149500000Y-86465000D02*
X153000000Y-86465000D01*
X151350000Y-88315000D02*
X151350000Y-95615000D01*
D38*
X66350000Y-32906370D02*
X66350000Y-32000000D01*
D39*
X99005000Y-42250000D02*
X99005000Y-43967500D01*
D38*
X86500000Y-43500000D02*
X86000000Y-43000000D01*
D39*
X98912500Y-45050000D02*
X94550000Y-45050000D01*
D38*
X62000000Y-34500000D02*
X62000000Y-37500000D01*
X71200000Y-32956370D02*
X71150000Y-32906370D01*
X93000000Y-43500000D02*
X94500000Y-42000000D01*
D39*
X94550000Y-45050000D02*
X93000000Y-43500000D01*
D38*
X68480000Y-53140000D02*
X67780000Y-53840000D01*
X68480000Y-43980000D02*
X68480000Y-53140000D01*
X62500000Y-34000000D02*
X62000000Y-34500000D01*
D39*
X96000000Y-42000000D02*
X96250000Y-41750000D01*
X99500000Y-44462500D02*
X98912500Y-45050000D01*
X96250000Y-41750000D02*
X96995000Y-41750000D01*
D38*
X66350000Y-32906370D02*
X65256370Y-34000000D01*
X65256370Y-34000000D02*
X62500000Y-34000000D01*
D39*
X99005000Y-43967500D02*
X99500000Y-44462500D01*
D38*
X94500000Y-42000000D02*
X95895000Y-42000000D01*
X62000000Y-37500000D02*
X68480000Y-43980000D01*
X71150000Y-32906370D02*
X71150000Y-32000000D01*
X93000000Y-43500000D02*
X86500000Y-43500000D01*
D37*
X67160000Y-55840000D02*
X66420000Y-55100000D01*
X67780000Y-57840000D02*
X67780000Y-55840000D01*
X66420000Y-55100000D02*
X64500000Y-55100000D01*
X67780000Y-55840000D02*
X67160000Y-55840000D01*
X71585000Y-29700000D02*
X73070000Y-31185000D01*
X64222500Y-27462500D02*
X64430000Y-27255000D01*
X73565000Y-31435000D02*
X73070000Y-31435000D01*
X64430000Y-31185000D02*
X65915000Y-29700000D01*
X75000000Y-30000000D02*
X73565000Y-31435000D01*
X73070000Y-31185000D02*
X73070000Y-31435000D01*
X65915000Y-29700000D02*
X67000000Y-29700000D01*
X64430000Y-31435000D02*
X64430000Y-31185000D01*
X67000000Y-27255000D02*
X73070000Y-27255000D01*
X67000000Y-29700000D02*
X71585000Y-29700000D01*
X64430000Y-27255000D02*
X67000000Y-27255000D01*
X62500000Y-27462500D02*
X64222500Y-27462500D01*
X139000000Y-50965000D02*
X141000000Y-50965000D01*
X138635000Y-51330000D02*
X139000000Y-50965000D01*
X138610000Y-51330000D02*
X138635000Y-51330000D01*
X138245000Y-50965000D02*
X138610000Y-51330000D01*
D38*
X114500000Y-34500000D02*
X112770620Y-34500000D01*
X106287500Y-33114690D02*
X106237500Y-33164690D01*
X112770620Y-34500000D02*
X111385310Y-33114690D01*
X106237500Y-32035000D02*
X106237500Y-33064690D01*
X111385310Y-33114690D02*
X111037500Y-32766880D01*
X106237500Y-33064690D02*
X106287500Y-33114690D01*
X101125000Y-33700000D02*
X95500000Y-33700000D01*
X103462500Y-36000000D02*
X101500000Y-34037500D01*
X106237500Y-33762500D02*
X104000000Y-36000000D01*
X101500000Y-34037500D02*
X101462500Y-34037500D01*
X120000000Y-33700000D02*
X115300000Y-33700000D01*
X104000000Y-36000000D02*
X103462500Y-36000000D01*
X95500000Y-33700000D02*
X89287500Y-33700000D01*
X106237500Y-33164690D02*
X106237500Y-33762500D01*
X115300000Y-33700000D02*
X114500000Y-34500000D01*
X111037500Y-32766880D02*
X111037500Y-32035000D01*
X101462500Y-34037500D02*
X101125000Y-33700000D01*
X89287500Y-33700000D02*
X89137500Y-33550000D01*
D37*
X109887500Y-35300000D02*
X109887500Y-32035000D01*
X113550000Y-35550000D02*
X110137500Y-35550000D01*
X114500000Y-36500000D02*
X113550000Y-35550000D01*
X110137500Y-35550000D02*
X109887500Y-35300000D01*
D39*
X108387500Y-34701238D02*
X108875000Y-35188738D01*
X108875000Y-35188738D02*
X108875000Y-37099999D01*
X109750000Y-72825000D02*
X108500000Y-74075000D01*
X108875000Y-37099999D02*
X108524999Y-37450000D01*
X109387500Y-31340140D02*
X109157360Y-31110000D01*
X107862500Y-37450000D02*
X109750000Y-39337500D01*
X109387500Y-32035000D02*
X109387500Y-31340140D01*
X108387500Y-31340140D02*
X108387500Y-32035000D01*
X109157360Y-31110000D02*
X108617640Y-31110000D01*
X108617640Y-31110000D02*
X108387500Y-31340140D01*
X108387500Y-32035000D02*
X108387500Y-34701238D01*
X108524999Y-37450000D02*
X107862500Y-37450000D01*
X109750000Y-39337500D02*
X109750000Y-72825000D01*
X107500000Y-75075000D02*
X108914214Y-75075000D01*
X107887500Y-34112500D02*
X107887500Y-32035000D01*
X111500000Y-37000000D02*
X111050000Y-37450000D01*
X107580515Y-34419485D02*
X107887500Y-34112500D01*
X109287500Y-33750000D02*
X108887500Y-33350000D01*
X111050000Y-37450000D02*
X110137500Y-37450000D01*
X108887500Y-33350000D02*
X108887500Y-32035000D01*
X108914214Y-75075000D02*
X110437499Y-73551715D01*
X106500000Y-74075000D02*
X107500000Y-75075000D01*
X110437499Y-73551715D02*
X110437499Y-37749999D01*
X109287500Y-34231250D02*
X109287500Y-33750000D01*
X110437499Y-37749999D02*
X110137500Y-37450000D01*
D37*
X107862500Y-35550000D02*
X106887500Y-34575000D01*
X106887500Y-34575000D02*
X106887500Y-32035000D01*
X107862500Y-35550000D02*
X106450000Y-35550000D01*
X106450000Y-35550000D02*
X106000000Y-36000000D01*
X107000000Y-28500000D02*
X105790000Y-27290000D01*
X107495000Y-30295000D02*
X105467906Y-30295000D01*
X115000000Y-31500000D02*
X112987500Y-31500000D01*
X107505000Y-30295000D02*
X107500000Y-30300000D01*
X107500000Y-30300000D02*
X107495000Y-30295000D01*
X107500000Y-30100000D02*
X107500000Y-30300000D01*
X104317500Y-31445406D02*
X104317500Y-31470000D01*
X104317500Y-31470000D02*
X104317500Y-31182500D01*
X112987500Y-31500000D02*
X112957500Y-31470000D01*
X112957500Y-31470000D02*
X112957500Y-31220000D01*
X112957500Y-30557500D02*
X112957500Y-31470000D01*
X105467906Y-30295000D02*
X104317500Y-31445406D01*
X101500000Y-27962500D02*
X103645000Y-27962500D01*
X112032500Y-30295000D02*
X107505000Y-30295000D01*
X112957500Y-31220000D02*
X112032500Y-30295000D01*
X105790000Y-27290000D02*
X104317500Y-27290000D01*
X108710000Y-27290000D02*
X112957500Y-27290000D01*
X107000000Y-28500000D02*
X107500000Y-28500000D01*
X107500000Y-28500000D02*
X108710000Y-27290000D01*
X103645000Y-27962500D02*
X104317500Y-27290000D01*
X154285000Y-64465000D02*
X156390000Y-66570000D01*
X153000000Y-64465000D02*
X154285000Y-64465000D01*
X154562925Y-33624575D02*
X154562925Y-33437075D01*
X154562925Y-33437075D02*
X153750000Y-32624150D01*
X153500000Y-61965000D02*
X153000000Y-62465000D01*
X153750000Y-32624150D02*
X153750000Y-32000000D01*
X155625850Y-34500000D02*
X154562925Y-33437075D01*
X153637500Y-34550000D02*
X154562925Y-33624575D01*
X157000000Y-34500000D02*
X157000000Y-39500000D01*
X157000000Y-34500000D02*
X155625850Y-34500000D01*
X157000000Y-39500000D02*
X153500000Y-43000000D01*
X153500000Y-43000000D02*
X153500000Y-61965000D01*
X157065000Y-27500000D02*
X156820000Y-27255000D01*
X155895000Y-30260000D02*
X156317500Y-30682500D01*
X150760000Y-30260000D02*
X151000000Y-30500000D01*
X150000000Y-28000000D02*
X149255000Y-27255000D01*
X151000000Y-28000000D02*
X150000000Y-28000000D01*
X156820000Y-31185000D02*
X156820000Y-31435000D01*
X149105000Y-30260000D02*
X150760000Y-30260000D01*
X155895000Y-30260000D02*
X156820000Y-31185000D01*
X152245000Y-27255000D02*
X156820000Y-27255000D01*
X151000000Y-28000000D02*
X151500000Y-28000000D01*
X149255000Y-27255000D02*
X148180000Y-27255000D01*
X151000000Y-30500000D02*
X151240000Y-30260000D01*
X151500000Y-28000000D02*
X152245000Y-27255000D01*
X151240000Y-30260000D02*
X155895000Y-30260000D01*
X148115000Y-31500000D02*
X148180000Y-31435000D01*
X148180000Y-31435000D02*
X148180000Y-31185000D01*
X148180000Y-31185000D02*
X149105000Y-30260000D01*
X158780000Y-27500000D02*
X157065000Y-27500000D01*
X146280000Y-31500000D02*
X148115000Y-31500000D01*
X142945000Y-56410000D02*
X143000000Y-56465000D01*
X138610000Y-56410000D02*
X142945000Y-56410000D01*
X143000000Y-56465000D02*
X143000000Y-58965000D01*
X139165000Y-56965000D02*
X138610000Y-56410000D01*
X138610000Y-81890000D02*
X138610000Y-81810000D01*
X116390000Y-107265000D02*
X117495000Y-106160000D01*
X117495000Y-103005000D02*
X138610000Y-81890000D01*
X117495000Y-106160000D02*
X117495000Y-103005000D01*
X117895000Y-105065000D02*
X117895000Y-107315635D01*
X116390000Y-108820635D02*
X116390000Y-109805000D01*
X117895000Y-107315635D02*
X116390000Y-108820635D01*
X138610000Y-84350000D02*
X117895000Y-105065000D01*
X156390000Y-64030000D02*
X155925000Y-63565000D01*
X150600000Y-63565000D02*
X150000000Y-62965000D01*
X155925000Y-63565000D02*
X150600000Y-63565000D01*
X144960000Y-91740000D02*
X144960000Y-92005000D01*
X142880000Y-94085000D02*
X142880000Y-96465000D01*
X144960000Y-92005000D02*
X142880000Y-94085000D01*
X144960000Y-91740000D02*
X144685000Y-91465000D01*
X150040000Y-91740000D02*
X149090000Y-90790000D01*
X146270000Y-91195000D02*
X146270000Y-95615000D01*
X146270000Y-95615000D02*
X145420000Y-96465000D01*
X146675000Y-90790000D02*
X146270000Y-91195000D01*
X149090000Y-90790000D02*
X146675000Y-90790000D01*
D39*
X151500000Y-36587500D02*
X151362500Y-36450000D01*
X152500000Y-34313738D02*
X152500000Y-36000000D01*
X152050000Y-36450000D02*
X151362500Y-36450000D01*
X152250000Y-32000000D02*
X152250000Y-34063738D01*
X152500000Y-36000000D02*
X152050000Y-36450000D01*
X153250000Y-32000000D02*
X153250000Y-31305140D01*
X152250000Y-31305140D02*
X152250000Y-32000000D01*
X153250000Y-31305140D02*
X153019860Y-31075000D01*
X152480140Y-31075000D02*
X152250000Y-31305140D01*
X152250000Y-34063738D02*
X152500000Y-34313738D01*
X148500000Y-43540000D02*
X151500000Y-40540000D01*
X153019860Y-31075000D02*
X152480140Y-31075000D01*
X151500000Y-40540000D02*
X151500000Y-36587500D01*
X147500000Y-44540000D02*
X148914214Y-44540000D01*
X153544598Y-33500000D02*
X153000000Y-33500000D01*
X155000000Y-36500000D02*
X153687500Y-36500000D01*
X148914214Y-44540000D02*
X153637500Y-39816714D01*
X146500000Y-43540000D02*
X147500000Y-44540000D01*
X152750000Y-33250000D02*
X152750000Y-32000000D01*
X153660959Y-33383639D02*
X153544598Y-33500000D01*
X151750000Y-33250000D02*
X151750000Y-32000000D01*
X153687500Y-36500000D02*
X153637500Y-36450000D01*
X151500000Y-33500000D02*
X151750000Y-33250000D01*
X153637500Y-39816714D02*
X153637500Y-36450000D01*
X153000000Y-33500000D02*
X152750000Y-33250000D01*
D37*
X150637500Y-116637500D02*
X150500000Y-116500000D01*
X151500000Y-115500000D02*
X151500000Y-116187500D01*
X146040000Y-123500000D02*
X146040000Y-120460000D01*
X150637500Y-117050000D02*
X149975001Y-117050000D01*
X151500000Y-116187500D02*
X150637500Y-117050000D01*
X146040000Y-120460000D02*
X146500000Y-120000000D01*
X150637500Y-117050000D02*
X150637500Y-116637500D01*
X150500000Y-116500000D02*
X150500000Y-114000000D01*
X86500000Y-35812500D02*
X86862500Y-35450000D01*
X88000000Y-39500000D02*
X86500000Y-38000000D01*
X86500000Y-38000000D02*
X86500000Y-35812500D01*
X90000000Y-39000000D02*
X90500000Y-39500000D01*
X90000000Y-37500000D02*
X90000000Y-36312500D01*
X90000000Y-36312500D02*
X89137500Y-35450000D01*
X90000000Y-37500000D02*
X90000000Y-39000000D01*
X92000000Y-34500000D02*
X89137500Y-34500000D01*
X94500000Y-37000000D02*
X92000000Y-34500000D01*
X148362500Y-118950000D02*
X143450000Y-118950000D01*
X148580000Y-123500000D02*
X148580000Y-119167500D01*
X148580000Y-119167500D02*
X148362500Y-118950000D01*
X143000000Y-118500000D02*
X143000000Y-116000000D01*
X148620000Y-119207500D02*
X148362500Y-118950000D01*
X143450000Y-118950000D02*
X143000000Y-118500000D01*
X153000000Y-119000000D02*
X152500000Y-119000000D01*
X152450000Y-118950000D02*
X150637500Y-118950000D01*
X151120000Y-119432500D02*
X150637500Y-118950000D01*
X152500000Y-119000000D02*
X152450000Y-118950000D01*
X151120000Y-123500000D02*
X151120000Y-119432500D01*
X155000000Y-119000000D02*
X155000000Y-120500000D01*
X118395000Y-120500000D02*
X116390000Y-122505000D01*
X145000000Y-120500000D02*
X118395000Y-120500000D01*
D38*
X143000000Y-54465000D02*
X143000000Y-38632412D01*
X144500000Y-36500000D02*
X147000000Y-34000000D01*
X154900000Y-32906370D02*
X155496815Y-33503185D01*
X143000000Y-38632412D02*
X142632412Y-39000000D01*
X154900000Y-32000000D02*
X154900000Y-32906370D01*
X143000000Y-38632412D02*
X144500000Y-37132412D01*
D39*
X100250000Y-41750000D02*
X99005000Y-41750000D01*
X100500000Y-42000000D02*
X100250000Y-41750000D01*
D38*
X105537500Y-42000000D02*
X107537500Y-40000000D01*
X144500000Y-37132412D02*
X144500000Y-36500000D01*
X149500000Y-34000000D02*
X150100000Y-33400000D01*
X147000000Y-34000000D02*
X149500000Y-34000000D01*
X100500000Y-42000000D02*
X105537500Y-42000000D01*
X142632412Y-39000000D02*
X140500000Y-39000000D01*
X109000000Y-40000000D02*
X107537500Y-40000000D01*
X150100000Y-33400000D02*
X150100000Y-32000000D01*
D37*
X145550000Y-47050000D02*
X150000000Y-51500000D01*
X150000000Y-51500000D02*
X150000000Y-60965000D01*
X150000000Y-35559448D02*
X148559448Y-35559448D01*
X145550000Y-42450000D02*
X145550000Y-47050000D01*
X150750000Y-33937500D02*
X150750000Y-32000000D01*
X151362500Y-34550000D02*
X150750000Y-33937500D01*
X149500000Y-40500000D02*
X147500000Y-40500000D01*
X147500000Y-40500000D02*
X145550000Y-42450000D01*
X151362500Y-34550000D02*
X151009448Y-34550000D01*
X150000000Y-35559448D02*
X150000000Y-40000000D01*
X150000000Y-40000000D02*
X149500000Y-40500000D01*
X151009448Y-34550000D02*
X150000000Y-35559448D01*
X148559448Y-35559448D02*
X148500000Y-35500000D01*
X64680000Y-49840000D02*
X64500000Y-50020000D01*
X67280000Y-49840000D02*
X64680000Y-49840000D01*
X148000000Y-102500000D02*
X148000000Y-103500000D01*
X94100000Y-39000000D02*
X92600000Y-37500000D01*
X114950000Y-85845000D02*
X116390000Y-84405000D01*
X92600000Y-37500000D02*
X92000000Y-37500000D01*
X116390000Y-84405000D02*
X121000000Y-89015000D01*
X147500000Y-102000000D02*
X148000000Y-102500000D01*
X94000000Y-85920000D02*
X94075000Y-85845000D01*
X103000000Y-40000000D02*
X103000000Y-38500000D01*
X95500000Y-39000000D02*
X94100000Y-39000000D01*
X148500000Y-108500000D02*
X148500000Y-104000000D01*
X121000000Y-89015000D02*
X121000000Y-96000000D01*
X94075000Y-85845000D02*
X114950000Y-85845000D01*
X148500000Y-104000000D02*
X148000000Y-103500000D01*
X101000000Y-40000000D02*
X100500000Y-40000000D01*
X100500000Y-40000000D02*
X99500000Y-39000000D01*
D39*
X99005000Y-40750000D02*
X100250000Y-40750000D01*
X100250000Y-40750000D02*
X101000000Y-40000000D01*
D37*
X119600686Y-119965000D02*
X116390000Y-119965000D01*
X121665686Y-117900000D02*
X119600686Y-119965000D01*
X139100000Y-117900000D02*
X121665686Y-117900000D01*
X141000000Y-116000000D02*
X139100000Y-117900000D01*
X75000000Y-44500000D02*
X75000000Y-63060000D01*
X66676238Y-35500000D02*
X66987500Y-35188738D01*
X72609390Y-44500000D02*
X75000000Y-44500000D01*
X66325001Y-35188738D02*
X66000000Y-35513739D01*
X66000000Y-35513739D02*
X66000000Y-37890610D01*
X67125000Y-35051238D02*
X66987500Y-35188738D01*
X65000000Y-35500000D02*
X66676238Y-35500000D01*
X75000000Y-63060000D02*
X77280000Y-65340000D01*
X66987500Y-35188738D02*
X66325001Y-35188738D01*
X66000000Y-37890610D02*
X72609390Y-44500000D01*
X66987500Y-32012500D02*
X67000000Y-32000000D01*
X66987500Y-35188738D02*
X66987500Y-32012500D01*
D39*
X96995000Y-42250000D02*
X96995000Y-43995000D01*
X95000000Y-43500000D02*
X96500000Y-43500000D01*
X96500000Y-43500000D02*
X97000000Y-44000000D01*
X96995000Y-43995000D02*
X97000000Y-44000000D01*
X69000000Y-32000000D02*
X69000000Y-33400000D01*
X69000000Y-33400000D02*
X69100000Y-33500000D01*
X68000000Y-33400000D02*
X67900000Y-33500000D01*
X71500000Y-37000000D02*
X69351238Y-37000000D01*
X69351238Y-37000000D02*
X69262500Y-37088738D01*
X72390000Y-42230000D02*
X72390000Y-40216238D01*
X72390000Y-40216238D02*
X69262500Y-37088738D01*
X68000000Y-32000000D02*
X68000000Y-33400000D01*
D37*
X72811262Y-35188738D02*
X73500000Y-34500000D01*
X69262500Y-35188738D02*
X70000000Y-34451238D01*
X69262500Y-35188738D02*
X72811262Y-35188738D01*
X77280000Y-62840000D02*
X77280000Y-43280000D01*
X73500000Y-39500000D02*
X73500000Y-34500000D01*
X70000000Y-34451238D02*
X70000000Y-32000000D01*
X77280000Y-43280000D02*
X73500000Y-39500000D01*
D39*
X68500000Y-32000000D02*
X68500000Y-31305140D01*
X73390000Y-43230000D02*
X71975786Y-43230000D01*
X66987500Y-37088738D02*
X67411262Y-37088738D01*
D37*
X68500000Y-32000000D02*
X68500000Y-34500000D01*
D39*
X69500000Y-31305140D02*
X69500000Y-32000000D01*
D37*
X67649999Y-37088738D02*
X66987500Y-37088738D01*
X68500000Y-34500000D02*
X67950000Y-35050000D01*
D39*
X68730140Y-31075000D02*
X69269860Y-31075000D01*
X69269860Y-31075000D02*
X69500000Y-31305140D01*
X71975786Y-43230000D02*
X66987500Y-38241714D01*
X66987500Y-38241714D02*
X66987500Y-37088738D01*
X74390000Y-42230000D02*
X73390000Y-43230000D01*
D37*
X67950000Y-35050000D02*
X67950000Y-36788737D01*
X67950000Y-36788737D02*
X67649999Y-37088738D01*
D39*
X68500000Y-31305140D02*
X68730140Y-31075000D01*
D37*
X82160000Y-62840000D02*
X82280000Y-62720000D01*
X79280000Y-62840000D02*
X82160000Y-62840000D01*
X82280000Y-90660000D02*
X82280000Y-98555000D01*
X82280000Y-98555000D02*
X98610000Y-114885000D01*
X82280000Y-88280000D02*
X85000000Y-91000000D01*
X85000000Y-91000000D02*
X85000000Y-98058750D01*
X98610000Y-111668750D02*
X98610000Y-112345000D01*
X85000000Y-98058750D02*
X98610000Y-111668750D01*
X82280000Y-88120000D02*
X82280000Y-88280000D01*
X82200000Y-65340000D02*
X82280000Y-65260000D01*
X79280000Y-65340000D02*
X82200000Y-65340000D01*
X88000000Y-79000000D02*
X90865000Y-81865000D01*
X88000000Y-68000000D02*
X87900000Y-67900000D01*
X88000000Y-68000000D02*
X88000000Y-79000000D01*
X90865000Y-81865000D02*
X98610000Y-81865000D01*
X97955000Y-101085000D02*
X94000000Y-97130000D01*
X105094100Y-101085000D02*
X97955000Y-101085000D01*
X94000000Y-97130000D02*
X94000000Y-96080000D01*
X108084100Y-104075000D02*
X105094100Y-101085000D01*
X102554100Y-93465000D02*
X94075000Y-93465000D01*
X94075000Y-93465000D02*
X94000000Y-93540000D01*
X113164100Y-104075000D02*
X102554100Y-93465000D01*
X105130000Y-88385000D02*
X94075000Y-88385000D01*
X116390000Y-99645000D02*
X105130000Y-88385000D01*
X94075000Y-88385000D02*
X94000000Y-88460000D01*
X138205000Y-90530000D02*
X143435000Y-90530000D01*
X116390000Y-112345000D02*
X138205000Y-90530000D01*
X143435000Y-90530000D02*
X147500000Y-86465000D01*
M02*
