G04 #@! TF.GenerationSoftware,KiCad,Pcbnew,10.0.6*
G04 #@! TF.CreationDate,2026-09-26T10:39:32+03:00*
G04 #@! TF.ProjectId,dock,646f636b-2e6b-4696-9361-645f70636258,rev?*
G04 #@! TF.SameCoordinates,Original*
G04 #@! TF.FileFunction,Legend,Top*
G04 #@! TF.FilePolarity,Positive*
%FSLAX46Y46*%
G04 Gerber Fmt 4.6, Leading zero omitted, Abs format (unit mm)*
G04 Created by KiCad (PCBNEW 10.0.6) date 2026-09-26 10:39:32*
%MOMM*%
%LPD*%
G01*
G04 APERTURE LIST*
G04 Aperture macros list*
%AMRoundRect*
0 Rectangle with rounded corners*
0 $1 Rounding radius*
0 $2 $3 $4 $5 $6 $7 $8 $9 X,Y pos of 4 corners*
0 Add a 4 corners polygon primitive as box body*
4,1,4,$2,$3,$4,$5,$6,$7,$8,$9,$2,$3,0*
0 Add four circle primitives for the rounded corners*
1,1,$1+$1,$2,$3*
1,1,$1+$1,$4,$5*
1,1,$1+$1,$6,$7*
1,1,$1+$1,$8,$9*
0 Add four rect primitives between the rounded corners*
20,1,$1+$1,$2,$3,$4,$5,0*
20,1,$1+$1,$4,$5,$6,$7,0*
20,1,$1+$1,$6,$7,$8,$9,0*
20,1,$1+$1,$8,$9,$2,$3,0*%
%AMFreePoly0*
4,1,37,0.603843,0.796157,0.639018,0.796157,0.711114,0.766294,0.766294,0.711114,0.796157,0.639018,0.796157,0.603843,0.800000,0.600000,0.800000,-0.600000,0.796157,-0.603843,0.796157,-0.639018,0.766294,-0.711114,0.711114,-0.766294,0.639018,-0.796157,0.603843,-0.796157,0.600000,-0.800000,0.000000,-0.800000,0.000000,-0.796148,-0.078414,-0.796148,-0.232228,-0.765552,-0.377117,-0.705537,
-0.507515,-0.618408,-0.618408,-0.507515,-0.705537,-0.377117,-0.765552,-0.232228,-0.796148,-0.078414,-0.796148,0.078414,-0.765552,0.232228,-0.705537,0.377117,-0.618408,0.507515,-0.507515,0.618408,-0.377117,0.705537,-0.232228,0.765552,-0.078414,0.796148,0.000000,0.796148,0.000000,0.800000,0.600000,0.800000,0.603843,0.796157,0.603843,0.796157,$1*%
%AMFreePoly1*
4,1,37,0.000000,0.796148,0.078414,0.796148,0.232228,0.765552,0.377117,0.705537,0.507515,0.618408,0.618408,0.507515,0.705537,0.377117,0.765552,0.232228,0.796148,0.078414,0.796148,-0.078414,0.765552,-0.232228,0.705537,-0.377117,0.618408,-0.507515,0.507515,-0.618408,0.377117,-0.705537,0.232228,-0.765552,0.078414,-0.796148,0.000000,-0.796148,0.000000,-0.800000,-0.600000,-0.800000,
-0.603843,-0.796157,-0.639018,-0.796157,-0.711114,-0.766294,-0.766294,-0.711114,-0.796157,-0.639018,-0.796157,-0.603843,-0.800000,-0.600000,-0.800000,0.600000,-0.796157,0.603843,-0.796157,0.639018,-0.766294,0.711114,-0.711114,0.766294,-0.639018,0.796157,-0.603843,0.796157,-0.600000,0.800000,0.000000,0.800000,0.000000,0.796148,0.000000,0.796148,$1*%
G04 Aperture macros list end*
%ADD10C,0.150000*%
%ADD11C,0.100000*%
%ADD12C,0.120000*%
%ADD13R,1.700000X1.700000*%
%ADD14C,1.700000*%
%ADD15RoundRect,0.150000X-0.512500X-0.150000X0.512500X-0.150000X0.512500X0.150000X-0.512500X0.150000X0*%
%ADD16RoundRect,0.250000X0.450000X-0.350000X0.450000X0.350000X-0.450000X0.350000X-0.450000X-0.350000X0*%
%ADD17RoundRect,0.250000X-0.450000X0.350000X-0.450000X-0.350000X0.450000X-0.350000X0.450000X0.350000X0*%
%ADD18RoundRect,0.250000X0.475000X-0.337500X0.475000X0.337500X-0.475000X0.337500X-0.475000X-0.337500X0*%
%ADD19O,0.650000X0.650000*%
%ADD20RoundRect,0.090000X0.210000X0.485000X-0.210000X0.485000X-0.210000X-0.485000X0.210000X-0.485000X0*%
%ADD21RoundRect,0.045000X0.105000X0.530000X-0.105000X0.530000X-0.105000X-0.530000X0.105000X-0.530000X0*%
%ADD22O,1.000000X2.100000*%
%ADD23O,1.000000X1.800000*%
%ADD24RoundRect,0.250000X-0.350000X-0.450000X0.350000X-0.450000X0.350000X0.450000X-0.350000X0.450000X0*%
%ADD25RoundRect,0.200000X-0.600000X-0.600000X0.600000X-0.600000X0.600000X0.600000X-0.600000X0.600000X0*%
%ADD26C,1.600000*%
%ADD27FreePoly0,0.000000*%
%ADD28FreePoly1,0.000000*%
%ADD29C,1.300000*%
%ADD30RoundRect,0.250000X0.350000X0.450000X-0.350000X0.450000X-0.350000X-0.450000X0.350000X-0.450000X0*%
%ADD31RoundRect,0.250000X0.550000X-1.500000X0.550000X1.500000X-0.550000X1.500000X-0.550000X-1.500000X0*%
%ADD32RoundRect,0.250000X0.337500X0.475000X-0.337500X0.475000X-0.337500X-0.475000X0.337500X-0.475000X0*%
%ADD33RoundRect,0.050000X-0.550000X-0.100000X0.550000X-0.100000X0.550000X0.100000X-0.550000X0.100000X0*%
%ADD34RoundRect,0.250000X-0.337500X-0.475000X0.337500X-0.475000X0.337500X0.475000X-0.337500X0.475000X0*%
%ADD35RoundRect,0.150000X0.512500X0.150000X-0.512500X0.150000X-0.512500X-0.150000X0.512500X-0.150000X0*%
%ADD36RoundRect,0.250000X-0.475000X0.337500X-0.475000X-0.337500X0.475000X-0.337500X0.475000X0.337500X0*%
%ADD37R,1.600000X1.600000*%
G04 APERTURE END LIST*
D10*
X65234819Y-95673333D02*
X65949104Y-95673333D01*
X65949104Y-95673333D02*
X66091961Y-95720952D01*
X66091961Y-95720952D02*
X66187200Y-95816190D01*
X66187200Y-95816190D02*
X66234819Y-95959047D01*
X66234819Y-95959047D02*
X66234819Y-96054285D01*
X65234819Y-95292380D02*
X65234819Y-94673333D01*
X65234819Y-94673333D02*
X65615771Y-95006666D01*
X65615771Y-95006666D02*
X65615771Y-94863809D01*
X65615771Y-94863809D02*
X65663390Y-94768571D01*
X65663390Y-94768571D02*
X65711009Y-94720952D01*
X65711009Y-94720952D02*
X65806247Y-94673333D01*
X65806247Y-94673333D02*
X66044342Y-94673333D01*
X66044342Y-94673333D02*
X66139580Y-94720952D01*
X66139580Y-94720952D02*
X66187200Y-94768571D01*
X66187200Y-94768571D02*
X66234819Y-94863809D01*
X66234819Y-94863809D02*
X66234819Y-95149523D01*
X66234819Y-95149523D02*
X66187200Y-95244761D01*
X66187200Y-95244761D02*
X66139580Y-95292380D01*
X139738095Y-110054819D02*
X139738095Y-110864342D01*
X139738095Y-110864342D02*
X139785714Y-110959580D01*
X139785714Y-110959580D02*
X139833333Y-111007200D01*
X139833333Y-111007200D02*
X139928571Y-111054819D01*
X139928571Y-111054819D02*
X140119047Y-111054819D01*
X140119047Y-111054819D02*
X140214285Y-111007200D01*
X140214285Y-111007200D02*
X140261904Y-110959580D01*
X140261904Y-110959580D02*
X140309523Y-110864342D01*
X140309523Y-110864342D02*
X140309523Y-110054819D01*
X140928571Y-110483390D02*
X140833333Y-110435771D01*
X140833333Y-110435771D02*
X140785714Y-110388152D01*
X140785714Y-110388152D02*
X140738095Y-110292914D01*
X140738095Y-110292914D02*
X140738095Y-110245295D01*
X140738095Y-110245295D02*
X140785714Y-110150057D01*
X140785714Y-110150057D02*
X140833333Y-110102438D01*
X140833333Y-110102438D02*
X140928571Y-110054819D01*
X140928571Y-110054819D02*
X141119047Y-110054819D01*
X141119047Y-110054819D02*
X141214285Y-110102438D01*
X141214285Y-110102438D02*
X141261904Y-110150057D01*
X141261904Y-110150057D02*
X141309523Y-110245295D01*
X141309523Y-110245295D02*
X141309523Y-110292914D01*
X141309523Y-110292914D02*
X141261904Y-110388152D01*
X141261904Y-110388152D02*
X141214285Y-110435771D01*
X141214285Y-110435771D02*
X141119047Y-110483390D01*
X141119047Y-110483390D02*
X140928571Y-110483390D01*
X140928571Y-110483390D02*
X140833333Y-110531009D01*
X140833333Y-110531009D02*
X140785714Y-110578628D01*
X140785714Y-110578628D02*
X140738095Y-110673866D01*
X140738095Y-110673866D02*
X140738095Y-110864342D01*
X140738095Y-110864342D02*
X140785714Y-110959580D01*
X140785714Y-110959580D02*
X140833333Y-111007200D01*
X140833333Y-111007200D02*
X140928571Y-111054819D01*
X140928571Y-111054819D02*
X141119047Y-111054819D01*
X141119047Y-111054819D02*
X141214285Y-111007200D01*
X141214285Y-111007200D02*
X141261904Y-110959580D01*
X141261904Y-110959580D02*
X141309523Y-110864342D01*
X141309523Y-110864342D02*
X141309523Y-110673866D01*
X141309523Y-110673866D02*
X141261904Y-110578628D01*
X141261904Y-110578628D02*
X141214285Y-110531009D01*
X141214285Y-110531009D02*
X141119047Y-110483390D01*
X152357142Y-84954819D02*
X152023809Y-84478628D01*
X151785714Y-84954819D02*
X151785714Y-83954819D01*
X151785714Y-83954819D02*
X152166666Y-83954819D01*
X152166666Y-83954819D02*
X152261904Y-84002438D01*
X152261904Y-84002438D02*
X152309523Y-84050057D01*
X152309523Y-84050057D02*
X152357142Y-84145295D01*
X152357142Y-84145295D02*
X152357142Y-84288152D01*
X152357142Y-84288152D02*
X152309523Y-84383390D01*
X152309523Y-84383390D02*
X152261904Y-84431009D01*
X152261904Y-84431009D02*
X152166666Y-84478628D01*
X152166666Y-84478628D02*
X151785714Y-84478628D01*
X152690476Y-83954819D02*
X153309523Y-83954819D01*
X153309523Y-83954819D02*
X152976190Y-84335771D01*
X152976190Y-84335771D02*
X153119047Y-84335771D01*
X153119047Y-84335771D02*
X153214285Y-84383390D01*
X153214285Y-84383390D02*
X153261904Y-84431009D01*
X153261904Y-84431009D02*
X153309523Y-84526247D01*
X153309523Y-84526247D02*
X153309523Y-84764342D01*
X153309523Y-84764342D02*
X153261904Y-84859580D01*
X153261904Y-84859580D02*
X153214285Y-84907200D01*
X153214285Y-84907200D02*
X153119047Y-84954819D01*
X153119047Y-84954819D02*
X152833333Y-84954819D01*
X152833333Y-84954819D02*
X152738095Y-84907200D01*
X152738095Y-84907200D02*
X152690476Y-84859580D01*
X153642857Y-83954819D02*
X154309523Y-83954819D01*
X154309523Y-83954819D02*
X153880952Y-84954819D01*
X69884819Y-55482857D02*
X69408628Y-55816190D01*
X69884819Y-56054285D02*
X68884819Y-56054285D01*
X68884819Y-56054285D02*
X68884819Y-55673333D01*
X68884819Y-55673333D02*
X68932438Y-55578095D01*
X68932438Y-55578095D02*
X68980057Y-55530476D01*
X68980057Y-55530476D02*
X69075295Y-55482857D01*
X69075295Y-55482857D02*
X69218152Y-55482857D01*
X69218152Y-55482857D02*
X69313390Y-55530476D01*
X69313390Y-55530476D02*
X69361009Y-55578095D01*
X69361009Y-55578095D02*
X69408628Y-55673333D01*
X69408628Y-55673333D02*
X69408628Y-56054285D01*
X69884819Y-54530476D02*
X69884819Y-55101904D01*
X69884819Y-54816190D02*
X68884819Y-54816190D01*
X68884819Y-54816190D02*
X69027676Y-54911428D01*
X69027676Y-54911428D02*
X69122914Y-55006666D01*
X69122914Y-55006666D02*
X69170533Y-55101904D01*
X69884819Y-54054285D02*
X69884819Y-53863809D01*
X69884819Y-53863809D02*
X69837200Y-53768571D01*
X69837200Y-53768571D02*
X69789580Y-53720952D01*
X69789580Y-53720952D02*
X69646723Y-53625714D01*
X69646723Y-53625714D02*
X69456247Y-53578095D01*
X69456247Y-53578095D02*
X69075295Y-53578095D01*
X69075295Y-53578095D02*
X68980057Y-53625714D01*
X68980057Y-53625714D02*
X68932438Y-53673333D01*
X68932438Y-53673333D02*
X68884819Y-53768571D01*
X68884819Y-53768571D02*
X68884819Y-53959047D01*
X68884819Y-53959047D02*
X68932438Y-54054285D01*
X68932438Y-54054285D02*
X68980057Y-54101904D01*
X68980057Y-54101904D02*
X69075295Y-54149523D01*
X69075295Y-54149523D02*
X69313390Y-54149523D01*
X69313390Y-54149523D02*
X69408628Y-54101904D01*
X69408628Y-54101904D02*
X69456247Y-54054285D01*
X69456247Y-54054285D02*
X69503866Y-53959047D01*
X69503866Y-53959047D02*
X69503866Y-53768571D01*
X69503866Y-53768571D02*
X69456247Y-53673333D01*
X69456247Y-53673333D02*
X69408628Y-53625714D01*
X69408628Y-53625714D02*
X69313390Y-53578095D01*
X62859580Y-31666666D02*
X62907200Y-31714285D01*
X62907200Y-31714285D02*
X62954819Y-31857142D01*
X62954819Y-31857142D02*
X62954819Y-31952380D01*
X62954819Y-31952380D02*
X62907200Y-32095237D01*
X62907200Y-32095237D02*
X62811961Y-32190475D01*
X62811961Y-32190475D02*
X62716723Y-32238094D01*
X62716723Y-32238094D02*
X62526247Y-32285713D01*
X62526247Y-32285713D02*
X62383390Y-32285713D01*
X62383390Y-32285713D02*
X62192914Y-32238094D01*
X62192914Y-32238094D02*
X62097676Y-32190475D01*
X62097676Y-32190475D02*
X62002438Y-32095237D01*
X62002438Y-32095237D02*
X61954819Y-31952380D01*
X61954819Y-31952380D02*
X61954819Y-31857142D01*
X61954819Y-31857142D02*
X62002438Y-31714285D01*
X62002438Y-31714285D02*
X62050057Y-31666666D01*
X62050057Y-31285713D02*
X62002438Y-31238094D01*
X62002438Y-31238094D02*
X61954819Y-31142856D01*
X61954819Y-31142856D02*
X61954819Y-30904761D01*
X61954819Y-30904761D02*
X62002438Y-30809523D01*
X62002438Y-30809523D02*
X62050057Y-30761904D01*
X62050057Y-30761904D02*
X62145295Y-30714285D01*
X62145295Y-30714285D02*
X62240533Y-30714285D01*
X62240533Y-30714285D02*
X62383390Y-30761904D01*
X62383390Y-30761904D02*
X62954819Y-31333332D01*
X62954819Y-31333332D02*
X62954819Y-30714285D01*
X142954819Y-52607857D02*
X142478628Y-52941190D01*
X142954819Y-53179285D02*
X141954819Y-53179285D01*
X141954819Y-53179285D02*
X141954819Y-52798333D01*
X141954819Y-52798333D02*
X142002438Y-52703095D01*
X142002438Y-52703095D02*
X142050057Y-52655476D01*
X142050057Y-52655476D02*
X142145295Y-52607857D01*
X142145295Y-52607857D02*
X142288152Y-52607857D01*
X142288152Y-52607857D02*
X142383390Y-52655476D01*
X142383390Y-52655476D02*
X142431009Y-52703095D01*
X142431009Y-52703095D02*
X142478628Y-52798333D01*
X142478628Y-52798333D02*
X142478628Y-53179285D01*
X142954819Y-51655476D02*
X142954819Y-52226904D01*
X142954819Y-51941190D02*
X141954819Y-51941190D01*
X141954819Y-51941190D02*
X142097676Y-52036428D01*
X142097676Y-52036428D02*
X142192914Y-52131666D01*
X142192914Y-52131666D02*
X142240533Y-52226904D01*
X141954819Y-51322142D02*
X141954819Y-50655476D01*
X141954819Y-50655476D02*
X142954819Y-51084047D01*
D11*
X108970833Y-31042580D02*
X108970833Y-30328295D01*
X108970833Y-30328295D02*
X109018452Y-30185438D01*
X109018452Y-30185438D02*
X109113690Y-30090200D01*
X109113690Y-30090200D02*
X109256547Y-30042580D01*
X109256547Y-30042580D02*
X109351785Y-30042580D01*
X107970833Y-30042580D02*
X108542261Y-30042580D01*
X108256547Y-30042580D02*
X108256547Y-31042580D01*
X108256547Y-31042580D02*
X108351785Y-30899723D01*
X108351785Y-30899723D02*
X108447023Y-30804485D01*
X108447023Y-30804485D02*
X108542261Y-30756866D01*
D10*
X153454819Y-60607857D02*
X152978628Y-60941190D01*
X153454819Y-61179285D02*
X152454819Y-61179285D01*
X152454819Y-61179285D02*
X152454819Y-60798333D01*
X152454819Y-60798333D02*
X152502438Y-60703095D01*
X152502438Y-60703095D02*
X152550057Y-60655476D01*
X152550057Y-60655476D02*
X152645295Y-60607857D01*
X152645295Y-60607857D02*
X152788152Y-60607857D01*
X152788152Y-60607857D02*
X152883390Y-60655476D01*
X152883390Y-60655476D02*
X152931009Y-60703095D01*
X152931009Y-60703095D02*
X152978628Y-60798333D01*
X152978628Y-60798333D02*
X152978628Y-61179285D01*
X152454819Y-60274523D02*
X152454819Y-59655476D01*
X152454819Y-59655476D02*
X152835771Y-59988809D01*
X152835771Y-59988809D02*
X152835771Y-59845952D01*
X152835771Y-59845952D02*
X152883390Y-59750714D01*
X152883390Y-59750714D02*
X152931009Y-59703095D01*
X152931009Y-59703095D02*
X153026247Y-59655476D01*
X153026247Y-59655476D02*
X153264342Y-59655476D01*
X153264342Y-59655476D02*
X153359580Y-59703095D01*
X153359580Y-59703095D02*
X153407200Y-59750714D01*
X153407200Y-59750714D02*
X153454819Y-59845952D01*
X153454819Y-59845952D02*
X153454819Y-60131666D01*
X153454819Y-60131666D02*
X153407200Y-60226904D01*
X153407200Y-60226904D02*
X153359580Y-60274523D01*
X153454819Y-58703095D02*
X153454819Y-59274523D01*
X153454819Y-58988809D02*
X152454819Y-58988809D01*
X152454819Y-58988809D02*
X152597676Y-59084047D01*
X152597676Y-59084047D02*
X152692914Y-59179285D01*
X152692914Y-59179285D02*
X152740533Y-59274523D01*
X157357142Y-36454819D02*
X157023809Y-35978628D01*
X156785714Y-36454819D02*
X156785714Y-35454819D01*
X156785714Y-35454819D02*
X157166666Y-35454819D01*
X157166666Y-35454819D02*
X157261904Y-35502438D01*
X157261904Y-35502438D02*
X157309523Y-35550057D01*
X157309523Y-35550057D02*
X157357142Y-35645295D01*
X157357142Y-35645295D02*
X157357142Y-35788152D01*
X157357142Y-35788152D02*
X157309523Y-35883390D01*
X157309523Y-35883390D02*
X157261904Y-35931009D01*
X157261904Y-35931009D02*
X157166666Y-35978628D01*
X157166666Y-35978628D02*
X156785714Y-35978628D01*
X158309523Y-36454819D02*
X157738095Y-36454819D01*
X158023809Y-36454819D02*
X158023809Y-35454819D01*
X158023809Y-35454819D02*
X157928571Y-35597676D01*
X157928571Y-35597676D02*
X157833333Y-35692914D01*
X157833333Y-35692914D02*
X157738095Y-35740533D01*
X159214285Y-35454819D02*
X158738095Y-35454819D01*
X158738095Y-35454819D02*
X158690476Y-35931009D01*
X158690476Y-35931009D02*
X158738095Y-35883390D01*
X158738095Y-35883390D02*
X158833333Y-35835771D01*
X158833333Y-35835771D02*
X159071428Y-35835771D01*
X159071428Y-35835771D02*
X159166666Y-35883390D01*
X159166666Y-35883390D02*
X159214285Y-35931009D01*
X159214285Y-35931009D02*
X159261904Y-36026247D01*
X159261904Y-36026247D02*
X159261904Y-36264342D01*
X159261904Y-36264342D02*
X159214285Y-36359580D01*
X159214285Y-36359580D02*
X159166666Y-36407200D01*
X159166666Y-36407200D02*
X159071428Y-36454819D01*
X159071428Y-36454819D02*
X158833333Y-36454819D01*
X158833333Y-36454819D02*
X158738095Y-36407200D01*
X158738095Y-36407200D02*
X158690476Y-36359580D01*
X80454819Y-86642857D02*
X79978628Y-86976190D01*
X80454819Y-87214285D02*
X79454819Y-87214285D01*
X79454819Y-87214285D02*
X79454819Y-86833333D01*
X79454819Y-86833333D02*
X79502438Y-86738095D01*
X79502438Y-86738095D02*
X79550057Y-86690476D01*
X79550057Y-86690476D02*
X79645295Y-86642857D01*
X79645295Y-86642857D02*
X79788152Y-86642857D01*
X79788152Y-86642857D02*
X79883390Y-86690476D01*
X79883390Y-86690476D02*
X79931009Y-86738095D01*
X79931009Y-86738095D02*
X79978628Y-86833333D01*
X79978628Y-86833333D02*
X79978628Y-87214285D01*
X79454819Y-86309523D02*
X79454819Y-85690476D01*
X79454819Y-85690476D02*
X79835771Y-86023809D01*
X79835771Y-86023809D02*
X79835771Y-85880952D01*
X79835771Y-85880952D02*
X79883390Y-85785714D01*
X79883390Y-85785714D02*
X79931009Y-85738095D01*
X79931009Y-85738095D02*
X80026247Y-85690476D01*
X80026247Y-85690476D02*
X80264342Y-85690476D01*
X80264342Y-85690476D02*
X80359580Y-85738095D01*
X80359580Y-85738095D02*
X80407200Y-85785714D01*
X80407200Y-85785714D02*
X80454819Y-85880952D01*
X80454819Y-85880952D02*
X80454819Y-86166666D01*
X80454819Y-86166666D02*
X80407200Y-86261904D01*
X80407200Y-86261904D02*
X80359580Y-86309523D01*
X79454819Y-84833333D02*
X79454819Y-85023809D01*
X79454819Y-85023809D02*
X79502438Y-85119047D01*
X79502438Y-85119047D02*
X79550057Y-85166666D01*
X79550057Y-85166666D02*
X79692914Y-85261904D01*
X79692914Y-85261904D02*
X79883390Y-85309523D01*
X79883390Y-85309523D02*
X80264342Y-85309523D01*
X80264342Y-85309523D02*
X80359580Y-85261904D01*
X80359580Y-85261904D02*
X80407200Y-85214285D01*
X80407200Y-85214285D02*
X80454819Y-85119047D01*
X80454819Y-85119047D02*
X80454819Y-84928571D01*
X80454819Y-84928571D02*
X80407200Y-84833333D01*
X80407200Y-84833333D02*
X80359580Y-84785714D01*
X80359580Y-84785714D02*
X80264342Y-84738095D01*
X80264342Y-84738095D02*
X80026247Y-84738095D01*
X80026247Y-84738095D02*
X79931009Y-84785714D01*
X79931009Y-84785714D02*
X79883390Y-84833333D01*
X79883390Y-84833333D02*
X79835771Y-84928571D01*
X79835771Y-84928571D02*
X79835771Y-85119047D01*
X79835771Y-85119047D02*
X79883390Y-85214285D01*
X79883390Y-85214285D02*
X79931009Y-85261904D01*
X79931009Y-85261904D02*
X80026247Y-85309523D01*
X159014819Y-32607857D02*
X158538628Y-32941190D01*
X159014819Y-33179285D02*
X158014819Y-33179285D01*
X158014819Y-33179285D02*
X158014819Y-32798333D01*
X158014819Y-32798333D02*
X158062438Y-32703095D01*
X158062438Y-32703095D02*
X158110057Y-32655476D01*
X158110057Y-32655476D02*
X158205295Y-32607857D01*
X158205295Y-32607857D02*
X158348152Y-32607857D01*
X158348152Y-32607857D02*
X158443390Y-32655476D01*
X158443390Y-32655476D02*
X158491009Y-32703095D01*
X158491009Y-32703095D02*
X158538628Y-32798333D01*
X158538628Y-32798333D02*
X158538628Y-33179285D01*
X159014819Y-31655476D02*
X159014819Y-32226904D01*
X159014819Y-31941190D02*
X158014819Y-31941190D01*
X158014819Y-31941190D02*
X158157676Y-32036428D01*
X158157676Y-32036428D02*
X158252914Y-32131666D01*
X158252914Y-32131666D02*
X158300533Y-32226904D01*
X158348152Y-30798333D02*
X159014819Y-30798333D01*
X157967200Y-31036428D02*
X158681485Y-31274523D01*
X158681485Y-31274523D02*
X158681485Y-30655476D01*
X157289160Y-94669104D02*
X157765350Y-94669104D01*
X157193922Y-94954819D02*
X157527255Y-93954819D01*
X157527255Y-93954819D02*
X157860588Y-94954819D01*
X158098684Y-93954819D02*
X158717731Y-93954819D01*
X158717731Y-93954819D02*
X158384398Y-94335771D01*
X158384398Y-94335771D02*
X158527255Y-94335771D01*
X158527255Y-94335771D02*
X158622493Y-94383390D01*
X158622493Y-94383390D02*
X158670112Y-94431009D01*
X158670112Y-94431009D02*
X158717731Y-94526247D01*
X158717731Y-94526247D02*
X158717731Y-94764342D01*
X158717731Y-94764342D02*
X158670112Y-94859580D01*
X158670112Y-94859580D02*
X158622493Y-94907200D01*
X158622493Y-94907200D02*
X158527255Y-94954819D01*
X158527255Y-94954819D02*
X158241541Y-94954819D01*
X158241541Y-94954819D02*
X158146303Y-94907200D01*
X158146303Y-94907200D02*
X158098684Y-94859580D01*
X148857142Y-112954819D02*
X148523809Y-112478628D01*
X148285714Y-112954819D02*
X148285714Y-111954819D01*
X148285714Y-111954819D02*
X148666666Y-111954819D01*
X148666666Y-111954819D02*
X148761904Y-112002438D01*
X148761904Y-112002438D02*
X148809523Y-112050057D01*
X148809523Y-112050057D02*
X148857142Y-112145295D01*
X148857142Y-112145295D02*
X148857142Y-112288152D01*
X148857142Y-112288152D02*
X148809523Y-112383390D01*
X148809523Y-112383390D02*
X148761904Y-112431009D01*
X148761904Y-112431009D02*
X148666666Y-112478628D01*
X148666666Y-112478628D02*
X148285714Y-112478628D01*
X149238095Y-112050057D02*
X149285714Y-112002438D01*
X149285714Y-112002438D02*
X149380952Y-111954819D01*
X149380952Y-111954819D02*
X149619047Y-111954819D01*
X149619047Y-111954819D02*
X149714285Y-112002438D01*
X149714285Y-112002438D02*
X149761904Y-112050057D01*
X149761904Y-112050057D02*
X149809523Y-112145295D01*
X149809523Y-112145295D02*
X149809523Y-112240533D01*
X149809523Y-112240533D02*
X149761904Y-112383390D01*
X149761904Y-112383390D02*
X149190476Y-112954819D01*
X149190476Y-112954819D02*
X149809523Y-112954819D01*
X150142857Y-111954819D02*
X150809523Y-111954819D01*
X150809523Y-111954819D02*
X150380952Y-112954819D01*
X87238095Y-36454819D02*
X87238095Y-37264342D01*
X87238095Y-37264342D02*
X87285714Y-37359580D01*
X87285714Y-37359580D02*
X87333333Y-37407200D01*
X87333333Y-37407200D02*
X87428571Y-37454819D01*
X87428571Y-37454819D02*
X87619047Y-37454819D01*
X87619047Y-37454819D02*
X87714285Y-37407200D01*
X87714285Y-37407200D02*
X87761904Y-37359580D01*
X87761904Y-37359580D02*
X87809523Y-37264342D01*
X87809523Y-37264342D02*
X87809523Y-36454819D01*
X88190476Y-36454819D02*
X88809523Y-36454819D01*
X88809523Y-36454819D02*
X88476190Y-36835771D01*
X88476190Y-36835771D02*
X88619047Y-36835771D01*
X88619047Y-36835771D02*
X88714285Y-36883390D01*
X88714285Y-36883390D02*
X88761904Y-36931009D01*
X88761904Y-36931009D02*
X88809523Y-37026247D01*
X88809523Y-37026247D02*
X88809523Y-37264342D01*
X88809523Y-37264342D02*
X88761904Y-37359580D01*
X88761904Y-37359580D02*
X88714285Y-37407200D01*
X88714285Y-37407200D02*
X88619047Y-37454819D01*
X88619047Y-37454819D02*
X88333333Y-37454819D01*
X88333333Y-37454819D02*
X88238095Y-37407200D01*
X88238095Y-37407200D02*
X88190476Y-37359580D01*
X148738095Y-115054819D02*
X148738095Y-115864342D01*
X148738095Y-115864342D02*
X148785714Y-115959580D01*
X148785714Y-115959580D02*
X148833333Y-116007200D01*
X148833333Y-116007200D02*
X148928571Y-116054819D01*
X148928571Y-116054819D02*
X149119047Y-116054819D01*
X149119047Y-116054819D02*
X149214285Y-116007200D01*
X149214285Y-116007200D02*
X149261904Y-115959580D01*
X149261904Y-115959580D02*
X149309523Y-115864342D01*
X149309523Y-115864342D02*
X149309523Y-115054819D01*
X149833333Y-116054819D02*
X150023809Y-116054819D01*
X150023809Y-116054819D02*
X150119047Y-116007200D01*
X150119047Y-116007200D02*
X150166666Y-115959580D01*
X150166666Y-115959580D02*
X150261904Y-115816723D01*
X150261904Y-115816723D02*
X150309523Y-115626247D01*
X150309523Y-115626247D02*
X150309523Y-115245295D01*
X150309523Y-115245295D02*
X150261904Y-115150057D01*
X150261904Y-115150057D02*
X150214285Y-115102438D01*
X150214285Y-115102438D02*
X150119047Y-115054819D01*
X150119047Y-115054819D02*
X149928571Y-115054819D01*
X149928571Y-115054819D02*
X149833333Y-115102438D01*
X149833333Y-115102438D02*
X149785714Y-115150057D01*
X149785714Y-115150057D02*
X149738095Y-115245295D01*
X149738095Y-115245295D02*
X149738095Y-115483390D01*
X149738095Y-115483390D02*
X149785714Y-115578628D01*
X149785714Y-115578628D02*
X149833333Y-115626247D01*
X149833333Y-115626247D02*
X149928571Y-115673866D01*
X149928571Y-115673866D02*
X150119047Y-115673866D01*
X150119047Y-115673866D02*
X150214285Y-115626247D01*
X150214285Y-115626247D02*
X150261904Y-115578628D01*
X150261904Y-115578628D02*
X150309523Y-115483390D01*
X153357142Y-117454819D02*
X153023809Y-116978628D01*
X152785714Y-117454819D02*
X152785714Y-116454819D01*
X152785714Y-116454819D02*
X153166666Y-116454819D01*
X153166666Y-116454819D02*
X153261904Y-116502438D01*
X153261904Y-116502438D02*
X153309523Y-116550057D01*
X153309523Y-116550057D02*
X153357142Y-116645295D01*
X153357142Y-116645295D02*
X153357142Y-116788152D01*
X153357142Y-116788152D02*
X153309523Y-116883390D01*
X153309523Y-116883390D02*
X153261904Y-116931009D01*
X153261904Y-116931009D02*
X153166666Y-116978628D01*
X153166666Y-116978628D02*
X152785714Y-116978628D01*
X153738095Y-116550057D02*
X153785714Y-116502438D01*
X153785714Y-116502438D02*
X153880952Y-116454819D01*
X153880952Y-116454819D02*
X154119047Y-116454819D01*
X154119047Y-116454819D02*
X154214285Y-116502438D01*
X154214285Y-116502438D02*
X154261904Y-116550057D01*
X154261904Y-116550057D02*
X154309523Y-116645295D01*
X154309523Y-116645295D02*
X154309523Y-116740533D01*
X154309523Y-116740533D02*
X154261904Y-116883390D01*
X154261904Y-116883390D02*
X153690476Y-117454819D01*
X153690476Y-117454819D02*
X154309523Y-117454819D01*
X155214285Y-116454819D02*
X154738095Y-116454819D01*
X154738095Y-116454819D02*
X154690476Y-116931009D01*
X154690476Y-116931009D02*
X154738095Y-116883390D01*
X154738095Y-116883390D02*
X154833333Y-116835771D01*
X154833333Y-116835771D02*
X155071428Y-116835771D01*
X155071428Y-116835771D02*
X155166666Y-116883390D01*
X155166666Y-116883390D02*
X155214285Y-116931009D01*
X155214285Y-116931009D02*
X155261904Y-117026247D01*
X155261904Y-117026247D02*
X155261904Y-117264342D01*
X155261904Y-117264342D02*
X155214285Y-117359580D01*
X155214285Y-117359580D02*
X155166666Y-117407200D01*
X155166666Y-117407200D02*
X155071428Y-117454819D01*
X155071428Y-117454819D02*
X154833333Y-117454819D01*
X154833333Y-117454819D02*
X154738095Y-117407200D01*
X154738095Y-117407200D02*
X154690476Y-117359580D01*
X141954819Y-56107857D02*
X141478628Y-56441190D01*
X141954819Y-56679285D02*
X140954819Y-56679285D01*
X140954819Y-56679285D02*
X140954819Y-56298333D01*
X140954819Y-56298333D02*
X141002438Y-56203095D01*
X141002438Y-56203095D02*
X141050057Y-56155476D01*
X141050057Y-56155476D02*
X141145295Y-56107857D01*
X141145295Y-56107857D02*
X141288152Y-56107857D01*
X141288152Y-56107857D02*
X141383390Y-56155476D01*
X141383390Y-56155476D02*
X141431009Y-56203095D01*
X141431009Y-56203095D02*
X141478628Y-56298333D01*
X141478628Y-56298333D02*
X141478628Y-56679285D01*
X141050057Y-55726904D02*
X141002438Y-55679285D01*
X141002438Y-55679285D02*
X140954819Y-55584047D01*
X140954819Y-55584047D02*
X140954819Y-55345952D01*
X140954819Y-55345952D02*
X141002438Y-55250714D01*
X141002438Y-55250714D02*
X141050057Y-55203095D01*
X141050057Y-55203095D02*
X141145295Y-55155476D01*
X141145295Y-55155476D02*
X141240533Y-55155476D01*
X141240533Y-55155476D02*
X141383390Y-55203095D01*
X141383390Y-55203095D02*
X141954819Y-55774523D01*
X141954819Y-55774523D02*
X141954819Y-55155476D01*
X141954819Y-54203095D02*
X141954819Y-54774523D01*
X141954819Y-54488809D02*
X140954819Y-54488809D01*
X140954819Y-54488809D02*
X141097676Y-54584047D01*
X141097676Y-54584047D02*
X141192914Y-54679285D01*
X141192914Y-54679285D02*
X141240533Y-54774523D01*
X119357142Y-31359580D02*
X119309523Y-31407200D01*
X119309523Y-31407200D02*
X119166666Y-31454819D01*
X119166666Y-31454819D02*
X119071428Y-31454819D01*
X119071428Y-31454819D02*
X118928571Y-31407200D01*
X118928571Y-31407200D02*
X118833333Y-31311961D01*
X118833333Y-31311961D02*
X118785714Y-31216723D01*
X118785714Y-31216723D02*
X118738095Y-31026247D01*
X118738095Y-31026247D02*
X118738095Y-30883390D01*
X118738095Y-30883390D02*
X118785714Y-30692914D01*
X118785714Y-30692914D02*
X118833333Y-30597676D01*
X118833333Y-30597676D02*
X118928571Y-30502438D01*
X118928571Y-30502438D02*
X119071428Y-30454819D01*
X119071428Y-30454819D02*
X119166666Y-30454819D01*
X119166666Y-30454819D02*
X119309523Y-30502438D01*
X119309523Y-30502438D02*
X119357142Y-30550057D01*
X120309523Y-31454819D02*
X119738095Y-31454819D01*
X120023809Y-31454819D02*
X120023809Y-30454819D01*
X120023809Y-30454819D02*
X119928571Y-30597676D01*
X119928571Y-30597676D02*
X119833333Y-30692914D01*
X119833333Y-30692914D02*
X119738095Y-30740533D01*
X121166666Y-30454819D02*
X120976190Y-30454819D01*
X120976190Y-30454819D02*
X120880952Y-30502438D01*
X120880952Y-30502438D02*
X120833333Y-30550057D01*
X120833333Y-30550057D02*
X120738095Y-30692914D01*
X120738095Y-30692914D02*
X120690476Y-30883390D01*
X120690476Y-30883390D02*
X120690476Y-31264342D01*
X120690476Y-31264342D02*
X120738095Y-31359580D01*
X120738095Y-31359580D02*
X120785714Y-31407200D01*
X120785714Y-31407200D02*
X120880952Y-31454819D01*
X120880952Y-31454819D02*
X121071428Y-31454819D01*
X121071428Y-31454819D02*
X121166666Y-31407200D01*
X121166666Y-31407200D02*
X121214285Y-31359580D01*
X121214285Y-31359580D02*
X121261904Y-31264342D01*
X121261904Y-31264342D02*
X121261904Y-31026247D01*
X121261904Y-31026247D02*
X121214285Y-30931009D01*
X121214285Y-30931009D02*
X121166666Y-30883390D01*
X121166666Y-30883390D02*
X121071428Y-30835771D01*
X121071428Y-30835771D02*
X120880952Y-30835771D01*
X120880952Y-30835771D02*
X120785714Y-30883390D01*
X120785714Y-30883390D02*
X120738095Y-30931009D01*
X120738095Y-30931009D02*
X120690476Y-31026247D01*
X147454819Y-37142857D02*
X146978628Y-37476190D01*
X147454819Y-37714285D02*
X146454819Y-37714285D01*
X146454819Y-37714285D02*
X146454819Y-37333333D01*
X146454819Y-37333333D02*
X146502438Y-37238095D01*
X146502438Y-37238095D02*
X146550057Y-37190476D01*
X146550057Y-37190476D02*
X146645295Y-37142857D01*
X146645295Y-37142857D02*
X146788152Y-37142857D01*
X146788152Y-37142857D02*
X146883390Y-37190476D01*
X146883390Y-37190476D02*
X146931009Y-37238095D01*
X146931009Y-37238095D02*
X146978628Y-37333333D01*
X146978628Y-37333333D02*
X146978628Y-37714285D01*
X147454819Y-36190476D02*
X147454819Y-36761904D01*
X147454819Y-36476190D02*
X146454819Y-36476190D01*
X146454819Y-36476190D02*
X146597676Y-36571428D01*
X146597676Y-36571428D02*
X146692914Y-36666666D01*
X146692914Y-36666666D02*
X146740533Y-36761904D01*
X146454819Y-35333333D02*
X146454819Y-35523809D01*
X146454819Y-35523809D02*
X146502438Y-35619047D01*
X146502438Y-35619047D02*
X146550057Y-35666666D01*
X146550057Y-35666666D02*
X146692914Y-35761904D01*
X146692914Y-35761904D02*
X146883390Y-35809523D01*
X146883390Y-35809523D02*
X147264342Y-35809523D01*
X147264342Y-35809523D02*
X147359580Y-35761904D01*
X147359580Y-35761904D02*
X147407200Y-35714285D01*
X147407200Y-35714285D02*
X147454819Y-35619047D01*
X147454819Y-35619047D02*
X147454819Y-35428571D01*
X147454819Y-35428571D02*
X147407200Y-35333333D01*
X147407200Y-35333333D02*
X147359580Y-35285714D01*
X147359580Y-35285714D02*
X147264342Y-35238095D01*
X147264342Y-35238095D02*
X147026247Y-35238095D01*
X147026247Y-35238095D02*
X146931009Y-35285714D01*
X146931009Y-35285714D02*
X146883390Y-35333333D01*
X146883390Y-35333333D02*
X146835771Y-35428571D01*
X146835771Y-35428571D02*
X146835771Y-35619047D01*
X146835771Y-35619047D02*
X146883390Y-35714285D01*
X146883390Y-35714285D02*
X146931009Y-35761904D01*
X146931009Y-35761904D02*
X147026247Y-35809523D01*
X104833333Y-38454819D02*
X104500000Y-37978628D01*
X104261905Y-38454819D02*
X104261905Y-37454819D01*
X104261905Y-37454819D02*
X104642857Y-37454819D01*
X104642857Y-37454819D02*
X104738095Y-37502438D01*
X104738095Y-37502438D02*
X104785714Y-37550057D01*
X104785714Y-37550057D02*
X104833333Y-37645295D01*
X104833333Y-37645295D02*
X104833333Y-37788152D01*
X104833333Y-37788152D02*
X104785714Y-37883390D01*
X104785714Y-37883390D02*
X104738095Y-37931009D01*
X104738095Y-37931009D02*
X104642857Y-37978628D01*
X104642857Y-37978628D02*
X104261905Y-37978628D01*
X105166667Y-37454819D02*
X105833333Y-37454819D01*
X105833333Y-37454819D02*
X105404762Y-38454819D01*
X69384819Y-49482857D02*
X68908628Y-49816190D01*
X69384819Y-50054285D02*
X68384819Y-50054285D01*
X68384819Y-50054285D02*
X68384819Y-49673333D01*
X68384819Y-49673333D02*
X68432438Y-49578095D01*
X68432438Y-49578095D02*
X68480057Y-49530476D01*
X68480057Y-49530476D02*
X68575295Y-49482857D01*
X68575295Y-49482857D02*
X68718152Y-49482857D01*
X68718152Y-49482857D02*
X68813390Y-49530476D01*
X68813390Y-49530476D02*
X68861009Y-49578095D01*
X68861009Y-49578095D02*
X68908628Y-49673333D01*
X68908628Y-49673333D02*
X68908628Y-50054285D01*
X69384819Y-48530476D02*
X69384819Y-49101904D01*
X69384819Y-48816190D02*
X68384819Y-48816190D01*
X68384819Y-48816190D02*
X68527676Y-48911428D01*
X68527676Y-48911428D02*
X68622914Y-49006666D01*
X68622914Y-49006666D02*
X68670533Y-49101904D01*
X68384819Y-48197142D02*
X68384819Y-47578095D01*
X68384819Y-47578095D02*
X68765771Y-47911428D01*
X68765771Y-47911428D02*
X68765771Y-47768571D01*
X68765771Y-47768571D02*
X68813390Y-47673333D01*
X68813390Y-47673333D02*
X68861009Y-47625714D01*
X68861009Y-47625714D02*
X68956247Y-47578095D01*
X68956247Y-47578095D02*
X69194342Y-47578095D01*
X69194342Y-47578095D02*
X69289580Y-47625714D01*
X69289580Y-47625714D02*
X69337200Y-47673333D01*
X69337200Y-47673333D02*
X69384819Y-47768571D01*
X69384819Y-47768571D02*
X69384819Y-48054285D01*
X69384819Y-48054285D02*
X69337200Y-48149523D01*
X69337200Y-48149523D02*
X69289580Y-48197142D01*
X101833333Y-42104819D02*
X101500000Y-41628628D01*
X101261905Y-42104819D02*
X101261905Y-41104819D01*
X101261905Y-41104819D02*
X101642857Y-41104819D01*
X101642857Y-41104819D02*
X101738095Y-41152438D01*
X101738095Y-41152438D02*
X101785714Y-41200057D01*
X101785714Y-41200057D02*
X101833333Y-41295295D01*
X101833333Y-41295295D02*
X101833333Y-41438152D01*
X101833333Y-41438152D02*
X101785714Y-41533390D01*
X101785714Y-41533390D02*
X101738095Y-41581009D01*
X101738095Y-41581009D02*
X101642857Y-41628628D01*
X101642857Y-41628628D02*
X101261905Y-41628628D01*
X102166667Y-41104819D02*
X102785714Y-41104819D01*
X102785714Y-41104819D02*
X102452381Y-41485771D01*
X102452381Y-41485771D02*
X102595238Y-41485771D01*
X102595238Y-41485771D02*
X102690476Y-41533390D01*
X102690476Y-41533390D02*
X102738095Y-41581009D01*
X102738095Y-41581009D02*
X102785714Y-41676247D01*
X102785714Y-41676247D02*
X102785714Y-41914342D01*
X102785714Y-41914342D02*
X102738095Y-42009580D01*
X102738095Y-42009580D02*
X102690476Y-42057200D01*
X102690476Y-42057200D02*
X102595238Y-42104819D01*
X102595238Y-42104819D02*
X102309524Y-42104819D01*
X102309524Y-42104819D02*
X102214286Y-42057200D01*
X102214286Y-42057200D02*
X102166667Y-42009580D01*
X94857142Y-31359580D02*
X94809523Y-31407200D01*
X94809523Y-31407200D02*
X94666666Y-31454819D01*
X94666666Y-31454819D02*
X94571428Y-31454819D01*
X94571428Y-31454819D02*
X94428571Y-31407200D01*
X94428571Y-31407200D02*
X94333333Y-31311961D01*
X94333333Y-31311961D02*
X94285714Y-31216723D01*
X94285714Y-31216723D02*
X94238095Y-31026247D01*
X94238095Y-31026247D02*
X94238095Y-30883390D01*
X94238095Y-30883390D02*
X94285714Y-30692914D01*
X94285714Y-30692914D02*
X94333333Y-30597676D01*
X94333333Y-30597676D02*
X94428571Y-30502438D01*
X94428571Y-30502438D02*
X94571428Y-30454819D01*
X94571428Y-30454819D02*
X94666666Y-30454819D01*
X94666666Y-30454819D02*
X94809523Y-30502438D01*
X94809523Y-30502438D02*
X94857142Y-30550057D01*
X95809523Y-31454819D02*
X95238095Y-31454819D01*
X95523809Y-31454819D02*
X95523809Y-30454819D01*
X95523809Y-30454819D02*
X95428571Y-30597676D01*
X95428571Y-30597676D02*
X95333333Y-30692914D01*
X95333333Y-30692914D02*
X95238095Y-30740533D01*
X96714285Y-30454819D02*
X96238095Y-30454819D01*
X96238095Y-30454819D02*
X96190476Y-30931009D01*
X96190476Y-30931009D02*
X96238095Y-30883390D01*
X96238095Y-30883390D02*
X96333333Y-30835771D01*
X96333333Y-30835771D02*
X96571428Y-30835771D01*
X96571428Y-30835771D02*
X96666666Y-30883390D01*
X96666666Y-30883390D02*
X96714285Y-30931009D01*
X96714285Y-30931009D02*
X96761904Y-31026247D01*
X96761904Y-31026247D02*
X96761904Y-31264342D01*
X96761904Y-31264342D02*
X96714285Y-31359580D01*
X96714285Y-31359580D02*
X96666666Y-31407200D01*
X96666666Y-31407200D02*
X96571428Y-31454819D01*
X96571428Y-31454819D02*
X96333333Y-31454819D01*
X96333333Y-31454819D02*
X96238095Y-31407200D01*
X96238095Y-31407200D02*
X96190476Y-31359580D01*
X139357142Y-106859580D02*
X139309523Y-106907200D01*
X139309523Y-106907200D02*
X139166666Y-106954819D01*
X139166666Y-106954819D02*
X139071428Y-106954819D01*
X139071428Y-106954819D02*
X138928571Y-106907200D01*
X138928571Y-106907200D02*
X138833333Y-106811961D01*
X138833333Y-106811961D02*
X138785714Y-106716723D01*
X138785714Y-106716723D02*
X138738095Y-106526247D01*
X138738095Y-106526247D02*
X138738095Y-106383390D01*
X138738095Y-106383390D02*
X138785714Y-106192914D01*
X138785714Y-106192914D02*
X138833333Y-106097676D01*
X138833333Y-106097676D02*
X138928571Y-106002438D01*
X138928571Y-106002438D02*
X139071428Y-105954819D01*
X139071428Y-105954819D02*
X139166666Y-105954819D01*
X139166666Y-105954819D02*
X139309523Y-106002438D01*
X139309523Y-106002438D02*
X139357142Y-106050057D01*
X140309523Y-106954819D02*
X139738095Y-106954819D01*
X140023809Y-106954819D02*
X140023809Y-105954819D01*
X140023809Y-105954819D02*
X139928571Y-106097676D01*
X139928571Y-106097676D02*
X139833333Y-106192914D01*
X139833333Y-106192914D02*
X139738095Y-106240533D01*
X140690476Y-106050057D02*
X140738095Y-106002438D01*
X140738095Y-106002438D02*
X140833333Y-105954819D01*
X140833333Y-105954819D02*
X141071428Y-105954819D01*
X141071428Y-105954819D02*
X141166666Y-106002438D01*
X141166666Y-106002438D02*
X141214285Y-106050057D01*
X141214285Y-106050057D02*
X141261904Y-106145295D01*
X141261904Y-106145295D02*
X141261904Y-106240533D01*
X141261904Y-106240533D02*
X141214285Y-106383390D01*
X141214285Y-106383390D02*
X140642857Y-106954819D01*
X140642857Y-106954819D02*
X141261904Y-106954819D01*
X145357142Y-116454819D02*
X145023809Y-115978628D01*
X144785714Y-116454819D02*
X144785714Y-115454819D01*
X144785714Y-115454819D02*
X145166666Y-115454819D01*
X145166666Y-115454819D02*
X145261904Y-115502438D01*
X145261904Y-115502438D02*
X145309523Y-115550057D01*
X145309523Y-115550057D02*
X145357142Y-115645295D01*
X145357142Y-115645295D02*
X145357142Y-115788152D01*
X145357142Y-115788152D02*
X145309523Y-115883390D01*
X145309523Y-115883390D02*
X145261904Y-115931009D01*
X145261904Y-115931009D02*
X145166666Y-115978628D01*
X145166666Y-115978628D02*
X144785714Y-115978628D01*
X145738095Y-115550057D02*
X145785714Y-115502438D01*
X145785714Y-115502438D02*
X145880952Y-115454819D01*
X145880952Y-115454819D02*
X146119047Y-115454819D01*
X146119047Y-115454819D02*
X146214285Y-115502438D01*
X146214285Y-115502438D02*
X146261904Y-115550057D01*
X146261904Y-115550057D02*
X146309523Y-115645295D01*
X146309523Y-115645295D02*
X146309523Y-115740533D01*
X146309523Y-115740533D02*
X146261904Y-115883390D01*
X146261904Y-115883390D02*
X145690476Y-116454819D01*
X145690476Y-116454819D02*
X146309523Y-116454819D01*
X147166666Y-115454819D02*
X146976190Y-115454819D01*
X146976190Y-115454819D02*
X146880952Y-115502438D01*
X146880952Y-115502438D02*
X146833333Y-115550057D01*
X146833333Y-115550057D02*
X146738095Y-115692914D01*
X146738095Y-115692914D02*
X146690476Y-115883390D01*
X146690476Y-115883390D02*
X146690476Y-116264342D01*
X146690476Y-116264342D02*
X146738095Y-116359580D01*
X146738095Y-116359580D02*
X146785714Y-116407200D01*
X146785714Y-116407200D02*
X146880952Y-116454819D01*
X146880952Y-116454819D02*
X147071428Y-116454819D01*
X147071428Y-116454819D02*
X147166666Y-116407200D01*
X147166666Y-116407200D02*
X147214285Y-116359580D01*
X147214285Y-116359580D02*
X147261904Y-116264342D01*
X147261904Y-116264342D02*
X147261904Y-116026247D01*
X147261904Y-116026247D02*
X147214285Y-115931009D01*
X147214285Y-115931009D02*
X147166666Y-115883390D01*
X147166666Y-115883390D02*
X147071428Y-115835771D01*
X147071428Y-115835771D02*
X146880952Y-115835771D01*
X146880952Y-115835771D02*
X146785714Y-115883390D01*
X146785714Y-115883390D02*
X146738095Y-115931009D01*
X146738095Y-115931009D02*
X146690476Y-116026247D01*
X63857142Y-39954819D02*
X63523809Y-39478628D01*
X63285714Y-39954819D02*
X63285714Y-38954819D01*
X63285714Y-38954819D02*
X63666666Y-38954819D01*
X63666666Y-38954819D02*
X63761904Y-39002438D01*
X63761904Y-39002438D02*
X63809523Y-39050057D01*
X63809523Y-39050057D02*
X63857142Y-39145295D01*
X63857142Y-39145295D02*
X63857142Y-39288152D01*
X63857142Y-39288152D02*
X63809523Y-39383390D01*
X63809523Y-39383390D02*
X63761904Y-39431009D01*
X63761904Y-39431009D02*
X63666666Y-39478628D01*
X63666666Y-39478628D02*
X63285714Y-39478628D01*
X64809523Y-39954819D02*
X64238095Y-39954819D01*
X64523809Y-39954819D02*
X64523809Y-38954819D01*
X64523809Y-38954819D02*
X64428571Y-39097676D01*
X64428571Y-39097676D02*
X64333333Y-39192914D01*
X64333333Y-39192914D02*
X64238095Y-39240533D01*
X65190476Y-39050057D02*
X65238095Y-39002438D01*
X65238095Y-39002438D02*
X65333333Y-38954819D01*
X65333333Y-38954819D02*
X65571428Y-38954819D01*
X65571428Y-38954819D02*
X65666666Y-39002438D01*
X65666666Y-39002438D02*
X65714285Y-39050057D01*
X65714285Y-39050057D02*
X65761904Y-39145295D01*
X65761904Y-39145295D02*
X65761904Y-39240533D01*
X65761904Y-39240533D02*
X65714285Y-39383390D01*
X65714285Y-39383390D02*
X65142857Y-39954819D01*
X65142857Y-39954819D02*
X65761904Y-39954819D01*
X150454819Y-59107857D02*
X149978628Y-59441190D01*
X150454819Y-59679285D02*
X149454819Y-59679285D01*
X149454819Y-59679285D02*
X149454819Y-59298333D01*
X149454819Y-59298333D02*
X149502438Y-59203095D01*
X149502438Y-59203095D02*
X149550057Y-59155476D01*
X149550057Y-59155476D02*
X149645295Y-59107857D01*
X149645295Y-59107857D02*
X149788152Y-59107857D01*
X149788152Y-59107857D02*
X149883390Y-59155476D01*
X149883390Y-59155476D02*
X149931009Y-59203095D01*
X149931009Y-59203095D02*
X149978628Y-59298333D01*
X149978628Y-59298333D02*
X149978628Y-59679285D01*
X149454819Y-58774523D02*
X149454819Y-58155476D01*
X149454819Y-58155476D02*
X149835771Y-58488809D01*
X149835771Y-58488809D02*
X149835771Y-58345952D01*
X149835771Y-58345952D02*
X149883390Y-58250714D01*
X149883390Y-58250714D02*
X149931009Y-58203095D01*
X149931009Y-58203095D02*
X150026247Y-58155476D01*
X150026247Y-58155476D02*
X150264342Y-58155476D01*
X150264342Y-58155476D02*
X150359580Y-58203095D01*
X150359580Y-58203095D02*
X150407200Y-58250714D01*
X150407200Y-58250714D02*
X150454819Y-58345952D01*
X150454819Y-58345952D02*
X150454819Y-58631666D01*
X150454819Y-58631666D02*
X150407200Y-58726904D01*
X150407200Y-58726904D02*
X150359580Y-58774523D01*
X149550057Y-57774523D02*
X149502438Y-57726904D01*
X149502438Y-57726904D02*
X149454819Y-57631666D01*
X149454819Y-57631666D02*
X149454819Y-57393571D01*
X149454819Y-57393571D02*
X149502438Y-57298333D01*
X149502438Y-57298333D02*
X149550057Y-57250714D01*
X149550057Y-57250714D02*
X149645295Y-57203095D01*
X149645295Y-57203095D02*
X149740533Y-57203095D01*
X149740533Y-57203095D02*
X149883390Y-57250714D01*
X149883390Y-57250714D02*
X150454819Y-57822142D01*
X150454819Y-57822142D02*
X150454819Y-57203095D01*
X97238095Y-38754819D02*
X97238095Y-39564342D01*
X97238095Y-39564342D02*
X97285714Y-39659580D01*
X97285714Y-39659580D02*
X97333333Y-39707200D01*
X97333333Y-39707200D02*
X97428571Y-39754819D01*
X97428571Y-39754819D02*
X97619047Y-39754819D01*
X97619047Y-39754819D02*
X97714285Y-39707200D01*
X97714285Y-39707200D02*
X97761904Y-39659580D01*
X97761904Y-39659580D02*
X97809523Y-39564342D01*
X97809523Y-39564342D02*
X97809523Y-38754819D01*
X98809523Y-39754819D02*
X98238095Y-39754819D01*
X98523809Y-39754819D02*
X98523809Y-38754819D01*
X98523809Y-38754819D02*
X98428571Y-38897676D01*
X98428571Y-38897676D02*
X98333333Y-38992914D01*
X98333333Y-38992914D02*
X98238095Y-39040533D01*
X79357142Y-31359580D02*
X79309523Y-31407200D01*
X79309523Y-31407200D02*
X79166666Y-31454819D01*
X79166666Y-31454819D02*
X79071428Y-31454819D01*
X79071428Y-31454819D02*
X78928571Y-31407200D01*
X78928571Y-31407200D02*
X78833333Y-31311961D01*
X78833333Y-31311961D02*
X78785714Y-31216723D01*
X78785714Y-31216723D02*
X78738095Y-31026247D01*
X78738095Y-31026247D02*
X78738095Y-30883390D01*
X78738095Y-30883390D02*
X78785714Y-30692914D01*
X78785714Y-30692914D02*
X78833333Y-30597676D01*
X78833333Y-30597676D02*
X78928571Y-30502438D01*
X78928571Y-30502438D02*
X79071428Y-30454819D01*
X79071428Y-30454819D02*
X79166666Y-30454819D01*
X79166666Y-30454819D02*
X79309523Y-30502438D01*
X79309523Y-30502438D02*
X79357142Y-30550057D01*
X80309523Y-31454819D02*
X79738095Y-31454819D01*
X80023809Y-31454819D02*
X80023809Y-30454819D01*
X80023809Y-30454819D02*
X79928571Y-30597676D01*
X79928571Y-30597676D02*
X79833333Y-30692914D01*
X79833333Y-30692914D02*
X79738095Y-30740533D01*
X80642857Y-30454819D02*
X81261904Y-30454819D01*
X81261904Y-30454819D02*
X80928571Y-30835771D01*
X80928571Y-30835771D02*
X81071428Y-30835771D01*
X81071428Y-30835771D02*
X81166666Y-30883390D01*
X81166666Y-30883390D02*
X81214285Y-30931009D01*
X81214285Y-30931009D02*
X81261904Y-31026247D01*
X81261904Y-31026247D02*
X81261904Y-31264342D01*
X81261904Y-31264342D02*
X81214285Y-31359580D01*
X81214285Y-31359580D02*
X81166666Y-31407200D01*
X81166666Y-31407200D02*
X81071428Y-31454819D01*
X81071428Y-31454819D02*
X80785714Y-31454819D01*
X80785714Y-31454819D02*
X80690476Y-31407200D01*
X80690476Y-31407200D02*
X80642857Y-31359580D01*
X99833333Y-38859580D02*
X99785714Y-38907200D01*
X99785714Y-38907200D02*
X99642857Y-38954819D01*
X99642857Y-38954819D02*
X99547619Y-38954819D01*
X99547619Y-38954819D02*
X99404762Y-38907200D01*
X99404762Y-38907200D02*
X99309524Y-38811961D01*
X99309524Y-38811961D02*
X99261905Y-38716723D01*
X99261905Y-38716723D02*
X99214286Y-38526247D01*
X99214286Y-38526247D02*
X99214286Y-38383390D01*
X99214286Y-38383390D02*
X99261905Y-38192914D01*
X99261905Y-38192914D02*
X99309524Y-38097676D01*
X99309524Y-38097676D02*
X99404762Y-38002438D01*
X99404762Y-38002438D02*
X99547619Y-37954819D01*
X99547619Y-37954819D02*
X99642857Y-37954819D01*
X99642857Y-37954819D02*
X99785714Y-38002438D01*
X99785714Y-38002438D02*
X99833333Y-38050057D01*
X100166667Y-37954819D02*
X100785714Y-37954819D01*
X100785714Y-37954819D02*
X100452381Y-38335771D01*
X100452381Y-38335771D02*
X100595238Y-38335771D01*
X100595238Y-38335771D02*
X100690476Y-38383390D01*
X100690476Y-38383390D02*
X100738095Y-38431009D01*
X100738095Y-38431009D02*
X100785714Y-38526247D01*
X100785714Y-38526247D02*
X100785714Y-38764342D01*
X100785714Y-38764342D02*
X100738095Y-38859580D01*
X100738095Y-38859580D02*
X100690476Y-38907200D01*
X100690476Y-38907200D02*
X100595238Y-38954819D01*
X100595238Y-38954819D02*
X100309524Y-38954819D01*
X100309524Y-38954819D02*
X100214286Y-38907200D01*
X100214286Y-38907200D02*
X100166667Y-38859580D01*
X149857142Y-103954819D02*
X149523809Y-103478628D01*
X149285714Y-103954819D02*
X149285714Y-102954819D01*
X149285714Y-102954819D02*
X149666666Y-102954819D01*
X149666666Y-102954819D02*
X149761904Y-103002438D01*
X149761904Y-103002438D02*
X149809523Y-103050057D01*
X149809523Y-103050057D02*
X149857142Y-103145295D01*
X149857142Y-103145295D02*
X149857142Y-103288152D01*
X149857142Y-103288152D02*
X149809523Y-103383390D01*
X149809523Y-103383390D02*
X149761904Y-103431009D01*
X149761904Y-103431009D02*
X149666666Y-103478628D01*
X149666666Y-103478628D02*
X149285714Y-103478628D01*
X150238095Y-103050057D02*
X150285714Y-103002438D01*
X150285714Y-103002438D02*
X150380952Y-102954819D01*
X150380952Y-102954819D02*
X150619047Y-102954819D01*
X150619047Y-102954819D02*
X150714285Y-103002438D01*
X150714285Y-103002438D02*
X150761904Y-103050057D01*
X150761904Y-103050057D02*
X150809523Y-103145295D01*
X150809523Y-103145295D02*
X150809523Y-103240533D01*
X150809523Y-103240533D02*
X150761904Y-103383390D01*
X150761904Y-103383390D02*
X150190476Y-103954819D01*
X150190476Y-103954819D02*
X150809523Y-103954819D01*
X151666666Y-103288152D02*
X151666666Y-103954819D01*
X151428571Y-102907200D02*
X151190476Y-103621485D01*
X151190476Y-103621485D02*
X151809523Y-103621485D01*
X106333333Y-42359580D02*
X106285714Y-42407200D01*
X106285714Y-42407200D02*
X106142857Y-42454819D01*
X106142857Y-42454819D02*
X106047619Y-42454819D01*
X106047619Y-42454819D02*
X105904762Y-42407200D01*
X105904762Y-42407200D02*
X105809524Y-42311961D01*
X105809524Y-42311961D02*
X105761905Y-42216723D01*
X105761905Y-42216723D02*
X105714286Y-42026247D01*
X105714286Y-42026247D02*
X105714286Y-41883390D01*
X105714286Y-41883390D02*
X105761905Y-41692914D01*
X105761905Y-41692914D02*
X105809524Y-41597676D01*
X105809524Y-41597676D02*
X105904762Y-41502438D01*
X105904762Y-41502438D02*
X106047619Y-41454819D01*
X106047619Y-41454819D02*
X106142857Y-41454819D01*
X106142857Y-41454819D02*
X106285714Y-41502438D01*
X106285714Y-41502438D02*
X106333333Y-41550057D01*
X106904762Y-41883390D02*
X106809524Y-41835771D01*
X106809524Y-41835771D02*
X106761905Y-41788152D01*
X106761905Y-41788152D02*
X106714286Y-41692914D01*
X106714286Y-41692914D02*
X106714286Y-41645295D01*
X106714286Y-41645295D02*
X106761905Y-41550057D01*
X106761905Y-41550057D02*
X106809524Y-41502438D01*
X106809524Y-41502438D02*
X106904762Y-41454819D01*
X106904762Y-41454819D02*
X107095238Y-41454819D01*
X107095238Y-41454819D02*
X107190476Y-41502438D01*
X107190476Y-41502438D02*
X107238095Y-41550057D01*
X107238095Y-41550057D02*
X107285714Y-41645295D01*
X107285714Y-41645295D02*
X107285714Y-41692914D01*
X107285714Y-41692914D02*
X107238095Y-41788152D01*
X107238095Y-41788152D02*
X107190476Y-41835771D01*
X107190476Y-41835771D02*
X107095238Y-41883390D01*
X107095238Y-41883390D02*
X106904762Y-41883390D01*
X106904762Y-41883390D02*
X106809524Y-41931009D01*
X106809524Y-41931009D02*
X106761905Y-41978628D01*
X106761905Y-41978628D02*
X106714286Y-42073866D01*
X106714286Y-42073866D02*
X106714286Y-42264342D01*
X106714286Y-42264342D02*
X106761905Y-42359580D01*
X106761905Y-42359580D02*
X106809524Y-42407200D01*
X106809524Y-42407200D02*
X106904762Y-42454819D01*
X106904762Y-42454819D02*
X107095238Y-42454819D01*
X107095238Y-42454819D02*
X107190476Y-42407200D01*
X107190476Y-42407200D02*
X107238095Y-42359580D01*
X107238095Y-42359580D02*
X107285714Y-42264342D01*
X107285714Y-42264342D02*
X107285714Y-42073866D01*
X107285714Y-42073866D02*
X107238095Y-41978628D01*
X107238095Y-41978628D02*
X107190476Y-41931009D01*
X107190476Y-41931009D02*
X107095238Y-41883390D01*
X95804819Y-45666666D02*
X95328628Y-45999999D01*
X95804819Y-46238094D02*
X94804819Y-46238094D01*
X94804819Y-46238094D02*
X94804819Y-45857142D01*
X94804819Y-45857142D02*
X94852438Y-45761904D01*
X94852438Y-45761904D02*
X94900057Y-45714285D01*
X94900057Y-45714285D02*
X94995295Y-45666666D01*
X94995295Y-45666666D02*
X95138152Y-45666666D01*
X95138152Y-45666666D02*
X95233390Y-45714285D01*
X95233390Y-45714285D02*
X95281009Y-45761904D01*
X95281009Y-45761904D02*
X95328628Y-45857142D01*
X95328628Y-45857142D02*
X95328628Y-46238094D01*
X94900057Y-45285713D02*
X94852438Y-45238094D01*
X94852438Y-45238094D02*
X94804819Y-45142856D01*
X94804819Y-45142856D02*
X94804819Y-44904761D01*
X94804819Y-44904761D02*
X94852438Y-44809523D01*
X94852438Y-44809523D02*
X94900057Y-44761904D01*
X94900057Y-44761904D02*
X94995295Y-44714285D01*
X94995295Y-44714285D02*
X95090533Y-44714285D01*
X95090533Y-44714285D02*
X95233390Y-44761904D01*
X95233390Y-44761904D02*
X95804819Y-45333332D01*
X95804819Y-45333332D02*
X95804819Y-44714285D01*
X67363095Y-37993557D02*
X67363095Y-38803080D01*
X67363095Y-38803080D02*
X67410714Y-38898318D01*
X67410714Y-38898318D02*
X67458333Y-38945938D01*
X67458333Y-38945938D02*
X67553571Y-38993557D01*
X67553571Y-38993557D02*
X67744047Y-38993557D01*
X67744047Y-38993557D02*
X67839285Y-38945938D01*
X67839285Y-38945938D02*
X67886904Y-38898318D01*
X67886904Y-38898318D02*
X67934523Y-38803080D01*
X67934523Y-38803080D02*
X67934523Y-37993557D01*
X68886904Y-37993557D02*
X68410714Y-37993557D01*
X68410714Y-37993557D02*
X68363095Y-38469747D01*
X68363095Y-38469747D02*
X68410714Y-38422128D01*
X68410714Y-38422128D02*
X68505952Y-38374509D01*
X68505952Y-38374509D02*
X68744047Y-38374509D01*
X68744047Y-38374509D02*
X68839285Y-38422128D01*
X68839285Y-38422128D02*
X68886904Y-38469747D01*
X68886904Y-38469747D02*
X68934523Y-38564985D01*
X68934523Y-38564985D02*
X68934523Y-38803080D01*
X68934523Y-38803080D02*
X68886904Y-38898318D01*
X68886904Y-38898318D02*
X68839285Y-38945938D01*
X68839285Y-38945938D02*
X68744047Y-38993557D01*
X68744047Y-38993557D02*
X68505952Y-38993557D01*
X68505952Y-38993557D02*
X68410714Y-38945938D01*
X68410714Y-38945938D02*
X68363095Y-38898318D01*
X77637142Y-61294819D02*
X77303809Y-60818628D01*
X77065714Y-61294819D02*
X77065714Y-60294819D01*
X77065714Y-60294819D02*
X77446666Y-60294819D01*
X77446666Y-60294819D02*
X77541904Y-60342438D01*
X77541904Y-60342438D02*
X77589523Y-60390057D01*
X77589523Y-60390057D02*
X77637142Y-60485295D01*
X77637142Y-60485295D02*
X77637142Y-60628152D01*
X77637142Y-60628152D02*
X77589523Y-60723390D01*
X77589523Y-60723390D02*
X77541904Y-60771009D01*
X77541904Y-60771009D02*
X77446666Y-60818628D01*
X77446666Y-60818628D02*
X77065714Y-60818628D01*
X77970476Y-60294819D02*
X78589523Y-60294819D01*
X78589523Y-60294819D02*
X78256190Y-60675771D01*
X78256190Y-60675771D02*
X78399047Y-60675771D01*
X78399047Y-60675771D02*
X78494285Y-60723390D01*
X78494285Y-60723390D02*
X78541904Y-60771009D01*
X78541904Y-60771009D02*
X78589523Y-60866247D01*
X78589523Y-60866247D02*
X78589523Y-61104342D01*
X78589523Y-61104342D02*
X78541904Y-61199580D01*
X78541904Y-61199580D02*
X78494285Y-61247200D01*
X78494285Y-61247200D02*
X78399047Y-61294819D01*
X78399047Y-61294819D02*
X78113333Y-61294819D01*
X78113333Y-61294819D02*
X78018095Y-61247200D01*
X78018095Y-61247200D02*
X77970476Y-61199580D01*
X79208571Y-60294819D02*
X79303809Y-60294819D01*
X79303809Y-60294819D02*
X79399047Y-60342438D01*
X79399047Y-60342438D02*
X79446666Y-60390057D01*
X79446666Y-60390057D02*
X79494285Y-60485295D01*
X79494285Y-60485295D02*
X79541904Y-60675771D01*
X79541904Y-60675771D02*
X79541904Y-60913866D01*
X79541904Y-60913866D02*
X79494285Y-61104342D01*
X79494285Y-61104342D02*
X79446666Y-61199580D01*
X79446666Y-61199580D02*
X79399047Y-61247200D01*
X79399047Y-61247200D02*
X79303809Y-61294819D01*
X79303809Y-61294819D02*
X79208571Y-61294819D01*
X79208571Y-61294819D02*
X79113333Y-61247200D01*
X79113333Y-61247200D02*
X79065714Y-61199580D01*
X79065714Y-61199580D02*
X79018095Y-61104342D01*
X79018095Y-61104342D02*
X78970476Y-60913866D01*
X78970476Y-60913866D02*
X78970476Y-60675771D01*
X78970476Y-60675771D02*
X79018095Y-60485295D01*
X79018095Y-60485295D02*
X79065714Y-60390057D01*
X79065714Y-60390057D02*
X79113333Y-60342438D01*
X79113333Y-60342438D02*
X79208571Y-60294819D01*
X95333333Y-39454819D02*
X95000000Y-38978628D01*
X94761905Y-39454819D02*
X94761905Y-38454819D01*
X94761905Y-38454819D02*
X95142857Y-38454819D01*
X95142857Y-38454819D02*
X95238095Y-38502438D01*
X95238095Y-38502438D02*
X95285714Y-38550057D01*
X95285714Y-38550057D02*
X95333333Y-38645295D01*
X95333333Y-38645295D02*
X95333333Y-38788152D01*
X95333333Y-38788152D02*
X95285714Y-38883390D01*
X95285714Y-38883390D02*
X95238095Y-38931009D01*
X95238095Y-38931009D02*
X95142857Y-38978628D01*
X95142857Y-38978628D02*
X94761905Y-38978628D01*
X96238095Y-38454819D02*
X95761905Y-38454819D01*
X95761905Y-38454819D02*
X95714286Y-38931009D01*
X95714286Y-38931009D02*
X95761905Y-38883390D01*
X95761905Y-38883390D02*
X95857143Y-38835771D01*
X95857143Y-38835771D02*
X96095238Y-38835771D01*
X96095238Y-38835771D02*
X96190476Y-38883390D01*
X96190476Y-38883390D02*
X96238095Y-38931009D01*
X96238095Y-38931009D02*
X96285714Y-39026247D01*
X96285714Y-39026247D02*
X96285714Y-39264342D01*
X96285714Y-39264342D02*
X96238095Y-39359580D01*
X96238095Y-39359580D02*
X96190476Y-39407200D01*
X96190476Y-39407200D02*
X96095238Y-39454819D01*
X96095238Y-39454819D02*
X95857143Y-39454819D01*
X95857143Y-39454819D02*
X95761905Y-39407200D01*
X95761905Y-39407200D02*
X95714286Y-39359580D01*
X151738095Y-37354819D02*
X151738095Y-38164342D01*
X151738095Y-38164342D02*
X151785714Y-38259580D01*
X151785714Y-38259580D02*
X151833333Y-38307200D01*
X151833333Y-38307200D02*
X151928571Y-38354819D01*
X151928571Y-38354819D02*
X152119047Y-38354819D01*
X152119047Y-38354819D02*
X152214285Y-38307200D01*
X152214285Y-38307200D02*
X152261904Y-38259580D01*
X152261904Y-38259580D02*
X152309523Y-38164342D01*
X152309523Y-38164342D02*
X152309523Y-37354819D01*
X153214285Y-37354819D02*
X153023809Y-37354819D01*
X153023809Y-37354819D02*
X152928571Y-37402438D01*
X152928571Y-37402438D02*
X152880952Y-37450057D01*
X152880952Y-37450057D02*
X152785714Y-37592914D01*
X152785714Y-37592914D02*
X152738095Y-37783390D01*
X152738095Y-37783390D02*
X152738095Y-38164342D01*
X152738095Y-38164342D02*
X152785714Y-38259580D01*
X152785714Y-38259580D02*
X152833333Y-38307200D01*
X152833333Y-38307200D02*
X152928571Y-38354819D01*
X152928571Y-38354819D02*
X153119047Y-38354819D01*
X153119047Y-38354819D02*
X153214285Y-38307200D01*
X153214285Y-38307200D02*
X153261904Y-38259580D01*
X153261904Y-38259580D02*
X153309523Y-38164342D01*
X153309523Y-38164342D02*
X153309523Y-37926247D01*
X153309523Y-37926247D02*
X153261904Y-37831009D01*
X153261904Y-37831009D02*
X153214285Y-37783390D01*
X153214285Y-37783390D02*
X153119047Y-37735771D01*
X153119047Y-37735771D02*
X152928571Y-37735771D01*
X152928571Y-37735771D02*
X152833333Y-37783390D01*
X152833333Y-37783390D02*
X152785714Y-37831009D01*
X152785714Y-37831009D02*
X152738095Y-37926247D01*
X101859580Y-45666666D02*
X101907200Y-45714285D01*
X101907200Y-45714285D02*
X101954819Y-45857142D01*
X101954819Y-45857142D02*
X101954819Y-45952380D01*
X101954819Y-45952380D02*
X101907200Y-46095237D01*
X101907200Y-46095237D02*
X101811961Y-46190475D01*
X101811961Y-46190475D02*
X101716723Y-46238094D01*
X101716723Y-46238094D02*
X101526247Y-46285713D01*
X101526247Y-46285713D02*
X101383390Y-46285713D01*
X101383390Y-46285713D02*
X101192914Y-46238094D01*
X101192914Y-46238094D02*
X101097676Y-46190475D01*
X101097676Y-46190475D02*
X101002438Y-46095237D01*
X101002438Y-46095237D02*
X100954819Y-45952380D01*
X100954819Y-45952380D02*
X100954819Y-45857142D01*
X100954819Y-45857142D02*
X101002438Y-45714285D01*
X101002438Y-45714285D02*
X101050057Y-45666666D01*
X101954819Y-45190475D02*
X101954819Y-44999999D01*
X101954819Y-44999999D02*
X101907200Y-44904761D01*
X101907200Y-44904761D02*
X101859580Y-44857142D01*
X101859580Y-44857142D02*
X101716723Y-44761904D01*
X101716723Y-44761904D02*
X101526247Y-44714285D01*
X101526247Y-44714285D02*
X101145295Y-44714285D01*
X101145295Y-44714285D02*
X101050057Y-44761904D01*
X101050057Y-44761904D02*
X101002438Y-44809523D01*
X101002438Y-44809523D02*
X100954819Y-44904761D01*
X100954819Y-44904761D02*
X100954819Y-45095237D01*
X100954819Y-45095237D02*
X101002438Y-45190475D01*
X101002438Y-45190475D02*
X101050057Y-45238094D01*
X101050057Y-45238094D02*
X101145295Y-45285713D01*
X101145295Y-45285713D02*
X101383390Y-45285713D01*
X101383390Y-45285713D02*
X101478628Y-45238094D01*
X101478628Y-45238094D02*
X101526247Y-45190475D01*
X101526247Y-45190475D02*
X101573866Y-45095237D01*
X101573866Y-45095237D02*
X101573866Y-44904761D01*
X101573866Y-44904761D02*
X101526247Y-44809523D01*
X101526247Y-44809523D02*
X101478628Y-44761904D01*
X101478628Y-44761904D02*
X101383390Y-44714285D01*
X139954819Y-96798333D02*
X140669104Y-96798333D01*
X140669104Y-96798333D02*
X140811961Y-96845952D01*
X140811961Y-96845952D02*
X140907200Y-96941190D01*
X140907200Y-96941190D02*
X140954819Y-97084047D01*
X140954819Y-97084047D02*
X140954819Y-97179285D01*
X139954819Y-95893571D02*
X139954819Y-96084047D01*
X139954819Y-96084047D02*
X140002438Y-96179285D01*
X140002438Y-96179285D02*
X140050057Y-96226904D01*
X140050057Y-96226904D02*
X140192914Y-96322142D01*
X140192914Y-96322142D02*
X140383390Y-96369761D01*
X140383390Y-96369761D02*
X140764342Y-96369761D01*
X140764342Y-96369761D02*
X140859580Y-96322142D01*
X140859580Y-96322142D02*
X140907200Y-96274523D01*
X140907200Y-96274523D02*
X140954819Y-96179285D01*
X140954819Y-96179285D02*
X140954819Y-95988809D01*
X140954819Y-95988809D02*
X140907200Y-95893571D01*
X140907200Y-95893571D02*
X140859580Y-95845952D01*
X140859580Y-95845952D02*
X140764342Y-95798333D01*
X140764342Y-95798333D02*
X140526247Y-95798333D01*
X140526247Y-95798333D02*
X140431009Y-95845952D01*
X140431009Y-95845952D02*
X140383390Y-95893571D01*
X140383390Y-95893571D02*
X140335771Y-95988809D01*
X140335771Y-95988809D02*
X140335771Y-96179285D01*
X140335771Y-96179285D02*
X140383390Y-96274523D01*
X140383390Y-96274523D02*
X140431009Y-96322142D01*
X140431009Y-96322142D02*
X140526247Y-96369761D01*
X100359580Y-29166666D02*
X100407200Y-29214285D01*
X100407200Y-29214285D02*
X100454819Y-29357142D01*
X100454819Y-29357142D02*
X100454819Y-29452380D01*
X100454819Y-29452380D02*
X100407200Y-29595237D01*
X100407200Y-29595237D02*
X100311961Y-29690475D01*
X100311961Y-29690475D02*
X100216723Y-29738094D01*
X100216723Y-29738094D02*
X100026247Y-29785713D01*
X100026247Y-29785713D02*
X99883390Y-29785713D01*
X99883390Y-29785713D02*
X99692914Y-29738094D01*
X99692914Y-29738094D02*
X99597676Y-29690475D01*
X99597676Y-29690475D02*
X99502438Y-29595237D01*
X99502438Y-29595237D02*
X99454819Y-29452380D01*
X99454819Y-29452380D02*
X99454819Y-29357142D01*
X99454819Y-29357142D02*
X99502438Y-29214285D01*
X99502438Y-29214285D02*
X99550057Y-29166666D01*
X100454819Y-28214285D02*
X100454819Y-28785713D01*
X100454819Y-28499999D02*
X99454819Y-28499999D01*
X99454819Y-28499999D02*
X99597676Y-28595237D01*
X99597676Y-28595237D02*
X99692914Y-28690475D01*
X99692914Y-28690475D02*
X99740533Y-28785713D01*
X73857142Y-36954819D02*
X73523809Y-36478628D01*
X73285714Y-36954819D02*
X73285714Y-35954819D01*
X73285714Y-35954819D02*
X73666666Y-35954819D01*
X73666666Y-35954819D02*
X73761904Y-36002438D01*
X73761904Y-36002438D02*
X73809523Y-36050057D01*
X73809523Y-36050057D02*
X73857142Y-36145295D01*
X73857142Y-36145295D02*
X73857142Y-36288152D01*
X73857142Y-36288152D02*
X73809523Y-36383390D01*
X73809523Y-36383390D02*
X73761904Y-36431009D01*
X73761904Y-36431009D02*
X73666666Y-36478628D01*
X73666666Y-36478628D02*
X73285714Y-36478628D01*
X74809523Y-36954819D02*
X74238095Y-36954819D01*
X74523809Y-36954819D02*
X74523809Y-35954819D01*
X74523809Y-35954819D02*
X74428571Y-36097676D01*
X74428571Y-36097676D02*
X74333333Y-36192914D01*
X74333333Y-36192914D02*
X74238095Y-36240533D01*
X75761904Y-36954819D02*
X75190476Y-36954819D01*
X75476190Y-36954819D02*
X75476190Y-35954819D01*
X75476190Y-35954819D02*
X75380952Y-36097676D01*
X75380952Y-36097676D02*
X75285714Y-36192914D01*
X75285714Y-36192914D02*
X75190476Y-36240533D01*
X85426660Y-91464104D02*
X85902850Y-91464104D01*
X85331422Y-91749819D02*
X85664755Y-90749819D01*
X85664755Y-90749819D02*
X85998088Y-91749819D01*
X86283803Y-90845057D02*
X86331422Y-90797438D01*
X86331422Y-90797438D02*
X86426660Y-90749819D01*
X86426660Y-90749819D02*
X86664755Y-90749819D01*
X86664755Y-90749819D02*
X86759993Y-90797438D01*
X86759993Y-90797438D02*
X86807612Y-90845057D01*
X86807612Y-90845057D02*
X86855231Y-90940295D01*
X86855231Y-90940295D02*
X86855231Y-91035533D01*
X86855231Y-91035533D02*
X86807612Y-91178390D01*
X86807612Y-91178390D02*
X86236184Y-91749819D01*
X86236184Y-91749819D02*
X86855231Y-91749819D01*
X84857142Y-39954819D02*
X84523809Y-39478628D01*
X84285714Y-39954819D02*
X84285714Y-38954819D01*
X84285714Y-38954819D02*
X84666666Y-38954819D01*
X84666666Y-38954819D02*
X84761904Y-39002438D01*
X84761904Y-39002438D02*
X84809523Y-39050057D01*
X84809523Y-39050057D02*
X84857142Y-39145295D01*
X84857142Y-39145295D02*
X84857142Y-39288152D01*
X84857142Y-39288152D02*
X84809523Y-39383390D01*
X84809523Y-39383390D02*
X84761904Y-39431009D01*
X84761904Y-39431009D02*
X84666666Y-39478628D01*
X84666666Y-39478628D02*
X84285714Y-39478628D01*
X85238095Y-39050057D02*
X85285714Y-39002438D01*
X85285714Y-39002438D02*
X85380952Y-38954819D01*
X85380952Y-38954819D02*
X85619047Y-38954819D01*
X85619047Y-38954819D02*
X85714285Y-39002438D01*
X85714285Y-39002438D02*
X85761904Y-39050057D01*
X85761904Y-39050057D02*
X85809523Y-39145295D01*
X85809523Y-39145295D02*
X85809523Y-39240533D01*
X85809523Y-39240533D02*
X85761904Y-39383390D01*
X85761904Y-39383390D02*
X85190476Y-39954819D01*
X85190476Y-39954819D02*
X85809523Y-39954819D01*
X86380952Y-39383390D02*
X86285714Y-39335771D01*
X86285714Y-39335771D02*
X86238095Y-39288152D01*
X86238095Y-39288152D02*
X86190476Y-39192914D01*
X86190476Y-39192914D02*
X86190476Y-39145295D01*
X86190476Y-39145295D02*
X86238095Y-39050057D01*
X86238095Y-39050057D02*
X86285714Y-39002438D01*
X86285714Y-39002438D02*
X86380952Y-38954819D01*
X86380952Y-38954819D02*
X86571428Y-38954819D01*
X86571428Y-38954819D02*
X86666666Y-39002438D01*
X86666666Y-39002438D02*
X86714285Y-39050057D01*
X86714285Y-39050057D02*
X86761904Y-39145295D01*
X86761904Y-39145295D02*
X86761904Y-39192914D01*
X86761904Y-39192914D02*
X86714285Y-39288152D01*
X86714285Y-39288152D02*
X86666666Y-39335771D01*
X86666666Y-39335771D02*
X86571428Y-39383390D01*
X86571428Y-39383390D02*
X86380952Y-39383390D01*
X86380952Y-39383390D02*
X86285714Y-39431009D01*
X86285714Y-39431009D02*
X86238095Y-39478628D01*
X86238095Y-39478628D02*
X86190476Y-39573866D01*
X86190476Y-39573866D02*
X86190476Y-39764342D01*
X86190476Y-39764342D02*
X86238095Y-39859580D01*
X86238095Y-39859580D02*
X86285714Y-39907200D01*
X86285714Y-39907200D02*
X86380952Y-39954819D01*
X86380952Y-39954819D02*
X86571428Y-39954819D01*
X86571428Y-39954819D02*
X86666666Y-39907200D01*
X86666666Y-39907200D02*
X86714285Y-39859580D01*
X86714285Y-39859580D02*
X86761904Y-39764342D01*
X86761904Y-39764342D02*
X86761904Y-39573866D01*
X86761904Y-39573866D02*
X86714285Y-39478628D01*
X86714285Y-39478628D02*
X86666666Y-39431009D01*
X86666666Y-39431009D02*
X86571428Y-39383390D01*
X90833333Y-39604819D02*
X90500000Y-39128628D01*
X90261905Y-39604819D02*
X90261905Y-38604819D01*
X90261905Y-38604819D02*
X90642857Y-38604819D01*
X90642857Y-38604819D02*
X90738095Y-38652438D01*
X90738095Y-38652438D02*
X90785714Y-38700057D01*
X90785714Y-38700057D02*
X90833333Y-38795295D01*
X90833333Y-38795295D02*
X90833333Y-38938152D01*
X90833333Y-38938152D02*
X90785714Y-39033390D01*
X90785714Y-39033390D02*
X90738095Y-39081009D01*
X90738095Y-39081009D02*
X90642857Y-39128628D01*
X90642857Y-39128628D02*
X90261905Y-39128628D01*
X91690476Y-38604819D02*
X91500000Y-38604819D01*
X91500000Y-38604819D02*
X91404762Y-38652438D01*
X91404762Y-38652438D02*
X91357143Y-38700057D01*
X91357143Y-38700057D02*
X91261905Y-38842914D01*
X91261905Y-38842914D02*
X91214286Y-39033390D01*
X91214286Y-39033390D02*
X91214286Y-39414342D01*
X91214286Y-39414342D02*
X91261905Y-39509580D01*
X91261905Y-39509580D02*
X91309524Y-39557200D01*
X91309524Y-39557200D02*
X91404762Y-39604819D01*
X91404762Y-39604819D02*
X91595238Y-39604819D01*
X91595238Y-39604819D02*
X91690476Y-39557200D01*
X91690476Y-39557200D02*
X91738095Y-39509580D01*
X91738095Y-39509580D02*
X91785714Y-39414342D01*
X91785714Y-39414342D02*
X91785714Y-39176247D01*
X91785714Y-39176247D02*
X91738095Y-39081009D01*
X91738095Y-39081009D02*
X91690476Y-39033390D01*
X91690476Y-39033390D02*
X91595238Y-38985771D01*
X91595238Y-38985771D02*
X91404762Y-38985771D01*
X91404762Y-38985771D02*
X91309524Y-39033390D01*
X91309524Y-39033390D02*
X91261905Y-39081009D01*
X91261905Y-39081009D02*
X91214286Y-39176247D01*
X86357142Y-70104819D02*
X86023809Y-69628628D01*
X85785714Y-70104819D02*
X85785714Y-69104819D01*
X85785714Y-69104819D02*
X86166666Y-69104819D01*
X86166666Y-69104819D02*
X86261904Y-69152438D01*
X86261904Y-69152438D02*
X86309523Y-69200057D01*
X86309523Y-69200057D02*
X86357142Y-69295295D01*
X86357142Y-69295295D02*
X86357142Y-69438152D01*
X86357142Y-69438152D02*
X86309523Y-69533390D01*
X86309523Y-69533390D02*
X86261904Y-69581009D01*
X86261904Y-69581009D02*
X86166666Y-69628628D01*
X86166666Y-69628628D02*
X85785714Y-69628628D01*
X86690476Y-69104819D02*
X87309523Y-69104819D01*
X87309523Y-69104819D02*
X86976190Y-69485771D01*
X86976190Y-69485771D02*
X87119047Y-69485771D01*
X87119047Y-69485771D02*
X87214285Y-69533390D01*
X87214285Y-69533390D02*
X87261904Y-69581009D01*
X87261904Y-69581009D02*
X87309523Y-69676247D01*
X87309523Y-69676247D02*
X87309523Y-69914342D01*
X87309523Y-69914342D02*
X87261904Y-70009580D01*
X87261904Y-70009580D02*
X87214285Y-70057200D01*
X87214285Y-70057200D02*
X87119047Y-70104819D01*
X87119047Y-70104819D02*
X86833333Y-70104819D01*
X86833333Y-70104819D02*
X86738095Y-70057200D01*
X86738095Y-70057200D02*
X86690476Y-70009580D01*
X87642857Y-69104819D02*
X88261904Y-69104819D01*
X88261904Y-69104819D02*
X87928571Y-69485771D01*
X87928571Y-69485771D02*
X88071428Y-69485771D01*
X88071428Y-69485771D02*
X88166666Y-69533390D01*
X88166666Y-69533390D02*
X88214285Y-69581009D01*
X88214285Y-69581009D02*
X88261904Y-69676247D01*
X88261904Y-69676247D02*
X88261904Y-69914342D01*
X88261904Y-69914342D02*
X88214285Y-70009580D01*
X88214285Y-70009580D02*
X88166666Y-70057200D01*
X88166666Y-70057200D02*
X88071428Y-70104819D01*
X88071428Y-70104819D02*
X87785714Y-70104819D01*
X87785714Y-70104819D02*
X87690476Y-70057200D01*
X87690476Y-70057200D02*
X87642857Y-70009580D01*
X93833333Y-42454819D02*
X93500000Y-41978628D01*
X93261905Y-42454819D02*
X93261905Y-41454819D01*
X93261905Y-41454819D02*
X93642857Y-41454819D01*
X93642857Y-41454819D02*
X93738095Y-41502438D01*
X93738095Y-41502438D02*
X93785714Y-41550057D01*
X93785714Y-41550057D02*
X93833333Y-41645295D01*
X93833333Y-41645295D02*
X93833333Y-41788152D01*
X93833333Y-41788152D02*
X93785714Y-41883390D01*
X93785714Y-41883390D02*
X93738095Y-41931009D01*
X93738095Y-41931009D02*
X93642857Y-41978628D01*
X93642857Y-41978628D02*
X93261905Y-41978628D01*
X94785714Y-42454819D02*
X94214286Y-42454819D01*
X94500000Y-42454819D02*
X94500000Y-41454819D01*
X94500000Y-41454819D02*
X94404762Y-41597676D01*
X94404762Y-41597676D02*
X94309524Y-41692914D01*
X94309524Y-41692914D02*
X94214286Y-41740533D01*
X146359580Y-28142857D02*
X146407200Y-28190476D01*
X146407200Y-28190476D02*
X146454819Y-28333333D01*
X146454819Y-28333333D02*
X146454819Y-28428571D01*
X146454819Y-28428571D02*
X146407200Y-28571428D01*
X146407200Y-28571428D02*
X146311961Y-28666666D01*
X146311961Y-28666666D02*
X146216723Y-28714285D01*
X146216723Y-28714285D02*
X146026247Y-28761904D01*
X146026247Y-28761904D02*
X145883390Y-28761904D01*
X145883390Y-28761904D02*
X145692914Y-28714285D01*
X145692914Y-28714285D02*
X145597676Y-28666666D01*
X145597676Y-28666666D02*
X145502438Y-28571428D01*
X145502438Y-28571428D02*
X145454819Y-28428571D01*
X145454819Y-28428571D02*
X145454819Y-28333333D01*
X145454819Y-28333333D02*
X145502438Y-28190476D01*
X145502438Y-28190476D02*
X145550057Y-28142857D01*
X146454819Y-27190476D02*
X146454819Y-27761904D01*
X146454819Y-27476190D02*
X145454819Y-27476190D01*
X145454819Y-27476190D02*
X145597676Y-27571428D01*
X145597676Y-27571428D02*
X145692914Y-27666666D01*
X145692914Y-27666666D02*
X145740533Y-27761904D01*
X145454819Y-26571428D02*
X145454819Y-26476190D01*
X145454819Y-26476190D02*
X145502438Y-26380952D01*
X145502438Y-26380952D02*
X145550057Y-26333333D01*
X145550057Y-26333333D02*
X145645295Y-26285714D01*
X145645295Y-26285714D02*
X145835771Y-26238095D01*
X145835771Y-26238095D02*
X146073866Y-26238095D01*
X146073866Y-26238095D02*
X146264342Y-26285714D01*
X146264342Y-26285714D02*
X146359580Y-26333333D01*
X146359580Y-26333333D02*
X146407200Y-26380952D01*
X146407200Y-26380952D02*
X146454819Y-26476190D01*
X146454819Y-26476190D02*
X146454819Y-26571428D01*
X146454819Y-26571428D02*
X146407200Y-26666666D01*
X146407200Y-26666666D02*
X146359580Y-26714285D01*
X146359580Y-26714285D02*
X146264342Y-26761904D01*
X146264342Y-26761904D02*
X146073866Y-26809523D01*
X146073866Y-26809523D02*
X145835771Y-26809523D01*
X145835771Y-26809523D02*
X145645295Y-26761904D01*
X145645295Y-26761904D02*
X145550057Y-26714285D01*
X145550057Y-26714285D02*
X145502438Y-26666666D01*
X145502438Y-26666666D02*
X145454819Y-26571428D01*
X93666666Y-97914819D02*
X93666666Y-98629104D01*
X93666666Y-98629104D02*
X93619047Y-98771961D01*
X93619047Y-98771961D02*
X93523809Y-98867200D01*
X93523809Y-98867200D02*
X93380952Y-98914819D01*
X93380952Y-98914819D02*
X93285714Y-98914819D01*
X94095238Y-98010057D02*
X94142857Y-97962438D01*
X94142857Y-97962438D02*
X94238095Y-97914819D01*
X94238095Y-97914819D02*
X94476190Y-97914819D01*
X94476190Y-97914819D02*
X94571428Y-97962438D01*
X94571428Y-97962438D02*
X94619047Y-98010057D01*
X94619047Y-98010057D02*
X94666666Y-98105295D01*
X94666666Y-98105295D02*
X94666666Y-98200533D01*
X94666666Y-98200533D02*
X94619047Y-98343390D01*
X94619047Y-98343390D02*
X94047619Y-98914819D01*
X94047619Y-98914819D02*
X94666666Y-98914819D01*
X116454819Y-35666666D02*
X115978628Y-35999999D01*
X116454819Y-36238094D02*
X115454819Y-36238094D01*
X115454819Y-36238094D02*
X115454819Y-35857142D01*
X115454819Y-35857142D02*
X115502438Y-35761904D01*
X115502438Y-35761904D02*
X115550057Y-35714285D01*
X115550057Y-35714285D02*
X115645295Y-35666666D01*
X115645295Y-35666666D02*
X115788152Y-35666666D01*
X115788152Y-35666666D02*
X115883390Y-35714285D01*
X115883390Y-35714285D02*
X115931009Y-35761904D01*
X115931009Y-35761904D02*
X115978628Y-35857142D01*
X115978628Y-35857142D02*
X115978628Y-36238094D01*
X115883390Y-35095237D02*
X115835771Y-35190475D01*
X115835771Y-35190475D02*
X115788152Y-35238094D01*
X115788152Y-35238094D02*
X115692914Y-35285713D01*
X115692914Y-35285713D02*
X115645295Y-35285713D01*
X115645295Y-35285713D02*
X115550057Y-35238094D01*
X115550057Y-35238094D02*
X115502438Y-35190475D01*
X115502438Y-35190475D02*
X115454819Y-35095237D01*
X115454819Y-35095237D02*
X115454819Y-34904761D01*
X115454819Y-34904761D02*
X115502438Y-34809523D01*
X115502438Y-34809523D02*
X115550057Y-34761904D01*
X115550057Y-34761904D02*
X115645295Y-34714285D01*
X115645295Y-34714285D02*
X115692914Y-34714285D01*
X115692914Y-34714285D02*
X115788152Y-34761904D01*
X115788152Y-34761904D02*
X115835771Y-34809523D01*
X115835771Y-34809523D02*
X115883390Y-34904761D01*
X115883390Y-34904761D02*
X115883390Y-35095237D01*
X115883390Y-35095237D02*
X115931009Y-35190475D01*
X115931009Y-35190475D02*
X115978628Y-35238094D01*
X115978628Y-35238094D02*
X116073866Y-35285713D01*
X116073866Y-35285713D02*
X116264342Y-35285713D01*
X116264342Y-35285713D02*
X116359580Y-35238094D01*
X116359580Y-35238094D02*
X116407200Y-35190475D01*
X116407200Y-35190475D02*
X116454819Y-35095237D01*
X116454819Y-35095237D02*
X116454819Y-34904761D01*
X116454819Y-34904761D02*
X116407200Y-34809523D01*
X116407200Y-34809523D02*
X116359580Y-34761904D01*
X116359580Y-34761904D02*
X116264342Y-34714285D01*
X116264342Y-34714285D02*
X116073866Y-34714285D01*
X116073866Y-34714285D02*
X115978628Y-34761904D01*
X115978628Y-34761904D02*
X115931009Y-34809523D01*
X115931009Y-34809523D02*
X115883390Y-34904761D01*
X119536660Y-123309104D02*
X120012850Y-123309104D01*
X119441422Y-123594819D02*
X119774755Y-122594819D01*
X119774755Y-122594819D02*
X120108088Y-123594819D01*
X120965231Y-123594819D02*
X120393803Y-123594819D01*
X120679517Y-123594819D02*
X120679517Y-122594819D01*
X120679517Y-122594819D02*
X120584279Y-122737676D01*
X120584279Y-122737676D02*
X120489041Y-122832914D01*
X120489041Y-122832914D02*
X120393803Y-122880533D01*
D11*
X69083333Y-30507580D02*
X69083333Y-29793295D01*
X69083333Y-29793295D02*
X69130952Y-29650438D01*
X69130952Y-29650438D02*
X69226190Y-29555200D01*
X69226190Y-29555200D02*
X69369047Y-29507580D01*
X69369047Y-29507580D02*
X69464285Y-29507580D01*
X68178571Y-30174247D02*
X68178571Y-29507580D01*
X68416666Y-30555200D02*
X68654761Y-29840914D01*
X68654761Y-29840914D02*
X68035714Y-29840914D01*
D10*
X134359580Y-113142857D02*
X134407200Y-113190476D01*
X134407200Y-113190476D02*
X134454819Y-113333333D01*
X134454819Y-113333333D02*
X134454819Y-113428571D01*
X134454819Y-113428571D02*
X134407200Y-113571428D01*
X134407200Y-113571428D02*
X134311961Y-113666666D01*
X134311961Y-113666666D02*
X134216723Y-113714285D01*
X134216723Y-113714285D02*
X134026247Y-113761904D01*
X134026247Y-113761904D02*
X133883390Y-113761904D01*
X133883390Y-113761904D02*
X133692914Y-113714285D01*
X133692914Y-113714285D02*
X133597676Y-113666666D01*
X133597676Y-113666666D02*
X133502438Y-113571428D01*
X133502438Y-113571428D02*
X133454819Y-113428571D01*
X133454819Y-113428571D02*
X133454819Y-113333333D01*
X133454819Y-113333333D02*
X133502438Y-113190476D01*
X133502438Y-113190476D02*
X133550057Y-113142857D01*
X134454819Y-112190476D02*
X134454819Y-112761904D01*
X134454819Y-112476190D02*
X133454819Y-112476190D01*
X133454819Y-112476190D02*
X133597676Y-112571428D01*
X133597676Y-112571428D02*
X133692914Y-112666666D01*
X133692914Y-112666666D02*
X133740533Y-112761904D01*
X134454819Y-111238095D02*
X134454819Y-111809523D01*
X134454819Y-111523809D02*
X133454819Y-111523809D01*
X133454819Y-111523809D02*
X133597676Y-111619047D01*
X133597676Y-111619047D02*
X133692914Y-111714285D01*
X133692914Y-111714285D02*
X133740533Y-111809523D01*
X115454819Y-27666666D02*
X114978628Y-27999999D01*
X115454819Y-28238094D02*
X114454819Y-28238094D01*
X114454819Y-28238094D02*
X114454819Y-27857142D01*
X114454819Y-27857142D02*
X114502438Y-27761904D01*
X114502438Y-27761904D02*
X114550057Y-27714285D01*
X114550057Y-27714285D02*
X114645295Y-27666666D01*
X114645295Y-27666666D02*
X114788152Y-27666666D01*
X114788152Y-27666666D02*
X114883390Y-27714285D01*
X114883390Y-27714285D02*
X114931009Y-27761904D01*
X114931009Y-27761904D02*
X114978628Y-27857142D01*
X114978628Y-27857142D02*
X114978628Y-28238094D01*
X115454819Y-27190475D02*
X115454819Y-26999999D01*
X115454819Y-26999999D02*
X115407200Y-26904761D01*
X115407200Y-26904761D02*
X115359580Y-26857142D01*
X115359580Y-26857142D02*
X115216723Y-26761904D01*
X115216723Y-26761904D02*
X115026247Y-26714285D01*
X115026247Y-26714285D02*
X114645295Y-26714285D01*
X114645295Y-26714285D02*
X114550057Y-26761904D01*
X114550057Y-26761904D02*
X114502438Y-26809523D01*
X114502438Y-26809523D02*
X114454819Y-26904761D01*
X114454819Y-26904761D02*
X114454819Y-27095237D01*
X114454819Y-27095237D02*
X114502438Y-27190475D01*
X114502438Y-27190475D02*
X114550057Y-27238094D01*
X114550057Y-27238094D02*
X114645295Y-27285713D01*
X114645295Y-27285713D02*
X114883390Y-27285713D01*
X114883390Y-27285713D02*
X114978628Y-27238094D01*
X114978628Y-27238094D02*
X115026247Y-27190475D01*
X115026247Y-27190475D02*
X115073866Y-27095237D01*
X115073866Y-27095237D02*
X115073866Y-26904761D01*
X115073866Y-26904761D02*
X115026247Y-26809523D01*
X115026247Y-26809523D02*
X114978628Y-26761904D01*
X114978628Y-26761904D02*
X114883390Y-26714285D01*
X77637142Y-67794819D02*
X77303809Y-67318628D01*
X77065714Y-67794819D02*
X77065714Y-66794819D01*
X77065714Y-66794819D02*
X77446666Y-66794819D01*
X77446666Y-66794819D02*
X77541904Y-66842438D01*
X77541904Y-66842438D02*
X77589523Y-66890057D01*
X77589523Y-66890057D02*
X77637142Y-66985295D01*
X77637142Y-66985295D02*
X77637142Y-67128152D01*
X77637142Y-67128152D02*
X77589523Y-67223390D01*
X77589523Y-67223390D02*
X77541904Y-67271009D01*
X77541904Y-67271009D02*
X77446666Y-67318628D01*
X77446666Y-67318628D02*
X77065714Y-67318628D01*
X78018095Y-66890057D02*
X78065714Y-66842438D01*
X78065714Y-66842438D02*
X78160952Y-66794819D01*
X78160952Y-66794819D02*
X78399047Y-66794819D01*
X78399047Y-66794819D02*
X78494285Y-66842438D01*
X78494285Y-66842438D02*
X78541904Y-66890057D01*
X78541904Y-66890057D02*
X78589523Y-66985295D01*
X78589523Y-66985295D02*
X78589523Y-67080533D01*
X78589523Y-67080533D02*
X78541904Y-67223390D01*
X78541904Y-67223390D02*
X77970476Y-67794819D01*
X77970476Y-67794819D02*
X78589523Y-67794819D01*
X79065714Y-67794819D02*
X79256190Y-67794819D01*
X79256190Y-67794819D02*
X79351428Y-67747200D01*
X79351428Y-67747200D02*
X79399047Y-67699580D01*
X79399047Y-67699580D02*
X79494285Y-67556723D01*
X79494285Y-67556723D02*
X79541904Y-67366247D01*
X79541904Y-67366247D02*
X79541904Y-66985295D01*
X79541904Y-66985295D02*
X79494285Y-66890057D01*
X79494285Y-66890057D02*
X79446666Y-66842438D01*
X79446666Y-66842438D02*
X79351428Y-66794819D01*
X79351428Y-66794819D02*
X79160952Y-66794819D01*
X79160952Y-66794819D02*
X79065714Y-66842438D01*
X79065714Y-66842438D02*
X79018095Y-66890057D01*
X79018095Y-66890057D02*
X78970476Y-66985295D01*
X78970476Y-66985295D02*
X78970476Y-67223390D01*
X78970476Y-67223390D02*
X79018095Y-67318628D01*
X79018095Y-67318628D02*
X79065714Y-67366247D01*
X79065714Y-67366247D02*
X79160952Y-67413866D01*
X79160952Y-67413866D02*
X79351428Y-67413866D01*
X79351428Y-67413866D02*
X79446666Y-67366247D01*
X79446666Y-67366247D02*
X79494285Y-67318628D01*
X79494285Y-67318628D02*
X79541904Y-67223390D01*
D11*
X152723333Y-30977580D02*
X152723333Y-30263295D01*
X152723333Y-30263295D02*
X152770952Y-30120438D01*
X152770952Y-30120438D02*
X152866190Y-30025200D01*
X152866190Y-30025200D02*
X153009047Y-29977580D01*
X153009047Y-29977580D02*
X153104285Y-29977580D01*
X151770952Y-30977580D02*
X152247142Y-30977580D01*
X152247142Y-30977580D02*
X152294761Y-30501390D01*
X152294761Y-30501390D02*
X152247142Y-30549009D01*
X152247142Y-30549009D02*
X152151904Y-30596628D01*
X152151904Y-30596628D02*
X151913809Y-30596628D01*
X151913809Y-30596628D02*
X151818571Y-30549009D01*
X151818571Y-30549009D02*
X151770952Y-30501390D01*
X151770952Y-30501390D02*
X151723333Y-30406152D01*
X151723333Y-30406152D02*
X151723333Y-30168057D01*
X151723333Y-30168057D02*
X151770952Y-30072819D01*
X151770952Y-30072819D02*
X151818571Y-30025200D01*
X151818571Y-30025200D02*
X151913809Y-29977580D01*
X151913809Y-29977580D02*
X152151904Y-29977580D01*
X152151904Y-29977580D02*
X152247142Y-30025200D01*
X152247142Y-30025200D02*
X152294761Y-30072819D01*
D10*
X83833333Y-34859580D02*
X83785714Y-34907200D01*
X83785714Y-34907200D02*
X83642857Y-34954819D01*
X83642857Y-34954819D02*
X83547619Y-34954819D01*
X83547619Y-34954819D02*
X83404762Y-34907200D01*
X83404762Y-34907200D02*
X83309524Y-34811961D01*
X83309524Y-34811961D02*
X83261905Y-34716723D01*
X83261905Y-34716723D02*
X83214286Y-34526247D01*
X83214286Y-34526247D02*
X83214286Y-34383390D01*
X83214286Y-34383390D02*
X83261905Y-34192914D01*
X83261905Y-34192914D02*
X83309524Y-34097676D01*
X83309524Y-34097676D02*
X83404762Y-34002438D01*
X83404762Y-34002438D02*
X83547619Y-33954819D01*
X83547619Y-33954819D02*
X83642857Y-33954819D01*
X83642857Y-33954819D02*
X83785714Y-34002438D01*
X83785714Y-34002438D02*
X83833333Y-34050057D01*
X84690476Y-33954819D02*
X84500000Y-33954819D01*
X84500000Y-33954819D02*
X84404762Y-34002438D01*
X84404762Y-34002438D02*
X84357143Y-34050057D01*
X84357143Y-34050057D02*
X84261905Y-34192914D01*
X84261905Y-34192914D02*
X84214286Y-34383390D01*
X84214286Y-34383390D02*
X84214286Y-34764342D01*
X84214286Y-34764342D02*
X84261905Y-34859580D01*
X84261905Y-34859580D02*
X84309524Y-34907200D01*
X84309524Y-34907200D02*
X84404762Y-34954819D01*
X84404762Y-34954819D02*
X84595238Y-34954819D01*
X84595238Y-34954819D02*
X84690476Y-34907200D01*
X84690476Y-34907200D02*
X84738095Y-34859580D01*
X84738095Y-34859580D02*
X84785714Y-34764342D01*
X84785714Y-34764342D02*
X84785714Y-34526247D01*
X84785714Y-34526247D02*
X84738095Y-34431009D01*
X84738095Y-34431009D02*
X84690476Y-34383390D01*
X84690476Y-34383390D02*
X84595238Y-34335771D01*
X84595238Y-34335771D02*
X84404762Y-34335771D01*
X84404762Y-34335771D02*
X84309524Y-34383390D01*
X84309524Y-34383390D02*
X84261905Y-34431009D01*
X84261905Y-34431009D02*
X84214286Y-34526247D01*
X147857142Y-85269819D02*
X147523809Y-84793628D01*
X147285714Y-85269819D02*
X147285714Y-84269819D01*
X147285714Y-84269819D02*
X147666666Y-84269819D01*
X147666666Y-84269819D02*
X147761904Y-84317438D01*
X147761904Y-84317438D02*
X147809523Y-84365057D01*
X147809523Y-84365057D02*
X147857142Y-84460295D01*
X147857142Y-84460295D02*
X147857142Y-84603152D01*
X147857142Y-84603152D02*
X147809523Y-84698390D01*
X147809523Y-84698390D02*
X147761904Y-84746009D01*
X147761904Y-84746009D02*
X147666666Y-84793628D01*
X147666666Y-84793628D02*
X147285714Y-84793628D01*
X148190476Y-84269819D02*
X148809523Y-84269819D01*
X148809523Y-84269819D02*
X148476190Y-84650771D01*
X148476190Y-84650771D02*
X148619047Y-84650771D01*
X148619047Y-84650771D02*
X148714285Y-84698390D01*
X148714285Y-84698390D02*
X148761904Y-84746009D01*
X148761904Y-84746009D02*
X148809523Y-84841247D01*
X148809523Y-84841247D02*
X148809523Y-85079342D01*
X148809523Y-85079342D02*
X148761904Y-85174580D01*
X148761904Y-85174580D02*
X148714285Y-85222200D01*
X148714285Y-85222200D02*
X148619047Y-85269819D01*
X148619047Y-85269819D02*
X148333333Y-85269819D01*
X148333333Y-85269819D02*
X148238095Y-85222200D01*
X148238095Y-85222200D02*
X148190476Y-85174580D01*
X149666666Y-84603152D02*
X149666666Y-85269819D01*
X149428571Y-84222200D02*
X149190476Y-84936485D01*
X149190476Y-84936485D02*
X149809523Y-84936485D01*
X140357142Y-30859580D02*
X140309523Y-30907200D01*
X140309523Y-30907200D02*
X140166666Y-30954819D01*
X140166666Y-30954819D02*
X140071428Y-30954819D01*
X140071428Y-30954819D02*
X139928571Y-30907200D01*
X139928571Y-30907200D02*
X139833333Y-30811961D01*
X139833333Y-30811961D02*
X139785714Y-30716723D01*
X139785714Y-30716723D02*
X139738095Y-30526247D01*
X139738095Y-30526247D02*
X139738095Y-30383390D01*
X139738095Y-30383390D02*
X139785714Y-30192914D01*
X139785714Y-30192914D02*
X139833333Y-30097676D01*
X139833333Y-30097676D02*
X139928571Y-30002438D01*
X139928571Y-30002438D02*
X140071428Y-29954819D01*
X140071428Y-29954819D02*
X140166666Y-29954819D01*
X140166666Y-29954819D02*
X140309523Y-30002438D01*
X140309523Y-30002438D02*
X140357142Y-30050057D01*
X141309523Y-30954819D02*
X140738095Y-30954819D01*
X141023809Y-30954819D02*
X141023809Y-29954819D01*
X141023809Y-29954819D02*
X140928571Y-30097676D01*
X140928571Y-30097676D02*
X140833333Y-30192914D01*
X140833333Y-30192914D02*
X140738095Y-30240533D01*
X142166666Y-30288152D02*
X142166666Y-30954819D01*
X141928571Y-29907200D02*
X141690476Y-30621485D01*
X141690476Y-30621485D02*
X142309523Y-30621485D01*
X100359580Y-33666666D02*
X100407200Y-33714285D01*
X100407200Y-33714285D02*
X100454819Y-33857142D01*
X100454819Y-33857142D02*
X100454819Y-33952380D01*
X100454819Y-33952380D02*
X100407200Y-34095237D01*
X100407200Y-34095237D02*
X100311961Y-34190475D01*
X100311961Y-34190475D02*
X100216723Y-34238094D01*
X100216723Y-34238094D02*
X100026247Y-34285713D01*
X100026247Y-34285713D02*
X99883390Y-34285713D01*
X99883390Y-34285713D02*
X99692914Y-34238094D01*
X99692914Y-34238094D02*
X99597676Y-34190475D01*
X99597676Y-34190475D02*
X99502438Y-34095237D01*
X99502438Y-34095237D02*
X99454819Y-33952380D01*
X99454819Y-33952380D02*
X99454819Y-33857142D01*
X99454819Y-33857142D02*
X99502438Y-33714285D01*
X99502438Y-33714285D02*
X99550057Y-33666666D01*
X99454819Y-33333332D02*
X99454819Y-32666666D01*
X99454819Y-32666666D02*
X100454819Y-33095237D01*
X146954819Y-110142857D02*
X146478628Y-110476190D01*
X146954819Y-110714285D02*
X145954819Y-110714285D01*
X145954819Y-110714285D02*
X145954819Y-110333333D01*
X145954819Y-110333333D02*
X146002438Y-110238095D01*
X146002438Y-110238095D02*
X146050057Y-110190476D01*
X146050057Y-110190476D02*
X146145295Y-110142857D01*
X146145295Y-110142857D02*
X146288152Y-110142857D01*
X146288152Y-110142857D02*
X146383390Y-110190476D01*
X146383390Y-110190476D02*
X146431009Y-110238095D01*
X146431009Y-110238095D02*
X146478628Y-110333333D01*
X146478628Y-110333333D02*
X146478628Y-110714285D01*
X146954819Y-109190476D02*
X146954819Y-109761904D01*
X146954819Y-109476190D02*
X145954819Y-109476190D01*
X145954819Y-109476190D02*
X146097676Y-109571428D01*
X146097676Y-109571428D02*
X146192914Y-109666666D01*
X146192914Y-109666666D02*
X146240533Y-109761904D01*
X146383390Y-108619047D02*
X146335771Y-108714285D01*
X146335771Y-108714285D02*
X146288152Y-108761904D01*
X146288152Y-108761904D02*
X146192914Y-108809523D01*
X146192914Y-108809523D02*
X146145295Y-108809523D01*
X146145295Y-108809523D02*
X146050057Y-108761904D01*
X146050057Y-108761904D02*
X146002438Y-108714285D01*
X146002438Y-108714285D02*
X145954819Y-108619047D01*
X145954819Y-108619047D02*
X145954819Y-108428571D01*
X145954819Y-108428571D02*
X146002438Y-108333333D01*
X146002438Y-108333333D02*
X146050057Y-108285714D01*
X146050057Y-108285714D02*
X146145295Y-108238095D01*
X146145295Y-108238095D02*
X146192914Y-108238095D01*
X146192914Y-108238095D02*
X146288152Y-108285714D01*
X146288152Y-108285714D02*
X146335771Y-108333333D01*
X146335771Y-108333333D02*
X146383390Y-108428571D01*
X146383390Y-108428571D02*
X146383390Y-108619047D01*
X146383390Y-108619047D02*
X146431009Y-108714285D01*
X146431009Y-108714285D02*
X146478628Y-108761904D01*
X146478628Y-108761904D02*
X146573866Y-108809523D01*
X146573866Y-108809523D02*
X146764342Y-108809523D01*
X146764342Y-108809523D02*
X146859580Y-108761904D01*
X146859580Y-108761904D02*
X146907200Y-108714285D01*
X146907200Y-108714285D02*
X146954819Y-108619047D01*
X146954819Y-108619047D02*
X146954819Y-108428571D01*
X146954819Y-108428571D02*
X146907200Y-108333333D01*
X146907200Y-108333333D02*
X146859580Y-108285714D01*
X146859580Y-108285714D02*
X146764342Y-108238095D01*
X146764342Y-108238095D02*
X146573866Y-108238095D01*
X146573866Y-108238095D02*
X146478628Y-108285714D01*
X146478628Y-108285714D02*
X146431009Y-108333333D01*
X146431009Y-108333333D02*
X146383390Y-108428571D01*
X75454819Y-28142857D02*
X74978628Y-28476190D01*
X75454819Y-28714285D02*
X74454819Y-28714285D01*
X74454819Y-28714285D02*
X74454819Y-28333333D01*
X74454819Y-28333333D02*
X74502438Y-28238095D01*
X74502438Y-28238095D02*
X74550057Y-28190476D01*
X74550057Y-28190476D02*
X74645295Y-28142857D01*
X74645295Y-28142857D02*
X74788152Y-28142857D01*
X74788152Y-28142857D02*
X74883390Y-28190476D01*
X74883390Y-28190476D02*
X74931009Y-28238095D01*
X74931009Y-28238095D02*
X74978628Y-28333333D01*
X74978628Y-28333333D02*
X74978628Y-28714285D01*
X75454819Y-27190476D02*
X75454819Y-27761904D01*
X75454819Y-27476190D02*
X74454819Y-27476190D01*
X74454819Y-27476190D02*
X74597676Y-27571428D01*
X74597676Y-27571428D02*
X74692914Y-27666666D01*
X74692914Y-27666666D02*
X74740533Y-27761904D01*
X74454819Y-26571428D02*
X74454819Y-26476190D01*
X74454819Y-26476190D02*
X74502438Y-26380952D01*
X74502438Y-26380952D02*
X74550057Y-26333333D01*
X74550057Y-26333333D02*
X74645295Y-26285714D01*
X74645295Y-26285714D02*
X74835771Y-26238095D01*
X74835771Y-26238095D02*
X75073866Y-26238095D01*
X75073866Y-26238095D02*
X75264342Y-26285714D01*
X75264342Y-26285714D02*
X75359580Y-26333333D01*
X75359580Y-26333333D02*
X75407200Y-26380952D01*
X75407200Y-26380952D02*
X75454819Y-26476190D01*
X75454819Y-26476190D02*
X75454819Y-26571428D01*
X75454819Y-26571428D02*
X75407200Y-26666666D01*
X75407200Y-26666666D02*
X75359580Y-26714285D01*
X75359580Y-26714285D02*
X75264342Y-26761904D01*
X75264342Y-26761904D02*
X75073866Y-26809523D01*
X75073866Y-26809523D02*
X74835771Y-26809523D01*
X74835771Y-26809523D02*
X74645295Y-26761904D01*
X74645295Y-26761904D02*
X74550057Y-26714285D01*
X74550057Y-26714285D02*
X74502438Y-26666666D01*
X74502438Y-26666666D02*
X74454819Y-26571428D01*
X69954819Y-59642857D02*
X69478628Y-59976190D01*
X69954819Y-60214285D02*
X68954819Y-60214285D01*
X68954819Y-60214285D02*
X68954819Y-59833333D01*
X68954819Y-59833333D02*
X69002438Y-59738095D01*
X69002438Y-59738095D02*
X69050057Y-59690476D01*
X69050057Y-59690476D02*
X69145295Y-59642857D01*
X69145295Y-59642857D02*
X69288152Y-59642857D01*
X69288152Y-59642857D02*
X69383390Y-59690476D01*
X69383390Y-59690476D02*
X69431009Y-59738095D01*
X69431009Y-59738095D02*
X69478628Y-59833333D01*
X69478628Y-59833333D02*
X69478628Y-60214285D01*
X69050057Y-59261904D02*
X69002438Y-59214285D01*
X69002438Y-59214285D02*
X68954819Y-59119047D01*
X68954819Y-59119047D02*
X68954819Y-58880952D01*
X68954819Y-58880952D02*
X69002438Y-58785714D01*
X69002438Y-58785714D02*
X69050057Y-58738095D01*
X69050057Y-58738095D02*
X69145295Y-58690476D01*
X69145295Y-58690476D02*
X69240533Y-58690476D01*
X69240533Y-58690476D02*
X69383390Y-58738095D01*
X69383390Y-58738095D02*
X69954819Y-59309523D01*
X69954819Y-59309523D02*
X69954819Y-58690476D01*
X68954819Y-58071428D02*
X68954819Y-57976190D01*
X68954819Y-57976190D02*
X69002438Y-57880952D01*
X69002438Y-57880952D02*
X69050057Y-57833333D01*
X69050057Y-57833333D02*
X69145295Y-57785714D01*
X69145295Y-57785714D02*
X69335771Y-57738095D01*
X69335771Y-57738095D02*
X69573866Y-57738095D01*
X69573866Y-57738095D02*
X69764342Y-57785714D01*
X69764342Y-57785714D02*
X69859580Y-57833333D01*
X69859580Y-57833333D02*
X69907200Y-57880952D01*
X69907200Y-57880952D02*
X69954819Y-57976190D01*
X69954819Y-57976190D02*
X69954819Y-58071428D01*
X69954819Y-58071428D02*
X69907200Y-58166666D01*
X69907200Y-58166666D02*
X69859580Y-58214285D01*
X69859580Y-58214285D02*
X69764342Y-58261904D01*
X69764342Y-58261904D02*
X69573866Y-58309523D01*
X69573866Y-58309523D02*
X69335771Y-58309523D01*
X69335771Y-58309523D02*
X69145295Y-58261904D01*
X69145295Y-58261904D02*
X69050057Y-58214285D01*
X69050057Y-58214285D02*
X69002438Y-58166666D01*
X69002438Y-58166666D02*
X68954819Y-58071428D01*
X108238095Y-38354819D02*
X108238095Y-39164342D01*
X108238095Y-39164342D02*
X108285714Y-39259580D01*
X108285714Y-39259580D02*
X108333333Y-39307200D01*
X108333333Y-39307200D02*
X108428571Y-39354819D01*
X108428571Y-39354819D02*
X108619047Y-39354819D01*
X108619047Y-39354819D02*
X108714285Y-39307200D01*
X108714285Y-39307200D02*
X108761904Y-39259580D01*
X108761904Y-39259580D02*
X108809523Y-39164342D01*
X108809523Y-39164342D02*
X108809523Y-38354819D01*
X109714285Y-38688152D02*
X109714285Y-39354819D01*
X109476190Y-38307200D02*
X109238095Y-39021485D01*
X109238095Y-39021485D02*
X109857142Y-39021485D01*
D11*
X137476666Y-122957419D02*
X137476666Y-123671704D01*
X137476666Y-123671704D02*
X137429047Y-123814561D01*
X137429047Y-123814561D02*
X137333809Y-123909800D01*
X137333809Y-123909800D02*
X137190952Y-123957419D01*
X137190952Y-123957419D02*
X137095714Y-123957419D01*
X137857619Y-122957419D02*
X138524285Y-122957419D01*
X138524285Y-122957419D02*
X138095714Y-123957419D01*
D10*
X141954819Y-60607857D02*
X141478628Y-60941190D01*
X141954819Y-61179285D02*
X140954819Y-61179285D01*
X140954819Y-61179285D02*
X140954819Y-60798333D01*
X140954819Y-60798333D02*
X141002438Y-60703095D01*
X141002438Y-60703095D02*
X141050057Y-60655476D01*
X141050057Y-60655476D02*
X141145295Y-60607857D01*
X141145295Y-60607857D02*
X141288152Y-60607857D01*
X141288152Y-60607857D02*
X141383390Y-60655476D01*
X141383390Y-60655476D02*
X141431009Y-60703095D01*
X141431009Y-60703095D02*
X141478628Y-60798333D01*
X141478628Y-60798333D02*
X141478628Y-61179285D01*
X141050057Y-60226904D02*
X141002438Y-60179285D01*
X141002438Y-60179285D02*
X140954819Y-60084047D01*
X140954819Y-60084047D02*
X140954819Y-59845952D01*
X140954819Y-59845952D02*
X141002438Y-59750714D01*
X141002438Y-59750714D02*
X141050057Y-59703095D01*
X141050057Y-59703095D02*
X141145295Y-59655476D01*
X141145295Y-59655476D02*
X141240533Y-59655476D01*
X141240533Y-59655476D02*
X141383390Y-59703095D01*
X141383390Y-59703095D02*
X141954819Y-60274523D01*
X141954819Y-60274523D02*
X141954819Y-59655476D01*
X141050057Y-59274523D02*
X141002438Y-59226904D01*
X141002438Y-59226904D02*
X140954819Y-59131666D01*
X140954819Y-59131666D02*
X140954819Y-58893571D01*
X140954819Y-58893571D02*
X141002438Y-58798333D01*
X141002438Y-58798333D02*
X141050057Y-58750714D01*
X141050057Y-58750714D02*
X141145295Y-58703095D01*
X141145295Y-58703095D02*
X141240533Y-58703095D01*
X141240533Y-58703095D02*
X141383390Y-58750714D01*
X141383390Y-58750714D02*
X141954819Y-59322142D01*
X141954819Y-59322142D02*
X141954819Y-58703095D01*
X143357142Y-106954819D02*
X143023809Y-106478628D01*
X142785714Y-106954819D02*
X142785714Y-105954819D01*
X142785714Y-105954819D02*
X143166666Y-105954819D01*
X143166666Y-105954819D02*
X143261904Y-106002438D01*
X143261904Y-106002438D02*
X143309523Y-106050057D01*
X143309523Y-106050057D02*
X143357142Y-106145295D01*
X143357142Y-106145295D02*
X143357142Y-106288152D01*
X143357142Y-106288152D02*
X143309523Y-106383390D01*
X143309523Y-106383390D02*
X143261904Y-106431009D01*
X143261904Y-106431009D02*
X143166666Y-106478628D01*
X143166666Y-106478628D02*
X142785714Y-106478628D01*
X143738095Y-106050057D02*
X143785714Y-106002438D01*
X143785714Y-106002438D02*
X143880952Y-105954819D01*
X143880952Y-105954819D02*
X144119047Y-105954819D01*
X144119047Y-105954819D02*
X144214285Y-106002438D01*
X144214285Y-106002438D02*
X144261904Y-106050057D01*
X144261904Y-106050057D02*
X144309523Y-106145295D01*
X144309523Y-106145295D02*
X144309523Y-106240533D01*
X144309523Y-106240533D02*
X144261904Y-106383390D01*
X144261904Y-106383390D02*
X143690476Y-106954819D01*
X143690476Y-106954819D02*
X144309523Y-106954819D01*
X144642857Y-105954819D02*
X145261904Y-105954819D01*
X145261904Y-105954819D02*
X144928571Y-106335771D01*
X144928571Y-106335771D02*
X145071428Y-106335771D01*
X145071428Y-106335771D02*
X145166666Y-106383390D01*
X145166666Y-106383390D02*
X145214285Y-106431009D01*
X145214285Y-106431009D02*
X145261904Y-106526247D01*
X145261904Y-106526247D02*
X145261904Y-106764342D01*
X145261904Y-106764342D02*
X145214285Y-106859580D01*
X145214285Y-106859580D02*
X145166666Y-106907200D01*
X145166666Y-106907200D02*
X145071428Y-106954819D01*
X145071428Y-106954819D02*
X144785714Y-106954819D01*
X144785714Y-106954819D02*
X144690476Y-106907200D01*
X144690476Y-106907200D02*
X144642857Y-106859580D01*
D12*
X66780000Y-96720000D02*
X66780000Y-95340000D01*
X68160000Y-96720000D02*
X66780000Y-96720000D01*
X69430000Y-93960000D02*
X79700000Y-93960000D01*
X69430000Y-96720000D02*
X69430000Y-93960000D01*
X69430000Y-96720000D02*
X79700000Y-96720000D01*
X79700000Y-96720000D02*
X79700000Y-93960000D01*
X139590000Y-111440000D02*
X141410000Y-111440000D01*
X139590000Y-111490000D02*
X139590000Y-111440000D01*
X139590000Y-114560000D02*
X139590000Y-114510000D01*
X141410000Y-111440000D02*
X141410000Y-111490000D01*
X141410000Y-114510000D02*
X141410000Y-114560000D01*
X141410000Y-114560000D02*
X139590000Y-114560000D01*
X139050000Y-111490000D02*
X138810000Y-111160000D01*
X139290000Y-111160000D01*
X139050000Y-111490000D01*
G36*
X139050000Y-111490000D02*
G01*
X138810000Y-111160000D01*
X139290000Y-111160000D01*
X139050000Y-111490000D01*
G37*
X152265000Y-87692064D02*
X152265000Y-87237936D01*
X153735000Y-87692064D02*
X153735000Y-87237936D01*
X67045000Y-54612936D02*
X67045000Y-55067064D01*
X68515000Y-54612936D02*
X68515000Y-55067064D01*
X61765000Y-28761252D02*
X61765000Y-28238748D01*
X63235000Y-28761252D02*
X63235000Y-28238748D01*
X140265000Y-52192064D02*
X140265000Y-51737936D01*
X141735000Y-52192064D02*
X141735000Y-51737936D01*
X152265000Y-63692064D02*
X152265000Y-63237936D01*
X153735000Y-63692064D02*
X153735000Y-63237936D01*
X157772936Y-33765000D02*
X158227064Y-33765000D01*
X157772936Y-35235000D02*
X158227064Y-35235000D01*
X77265000Y-86227064D02*
X77265000Y-85772936D01*
X78735000Y-86227064D02*
X78735000Y-85772936D01*
X158045000Y-28272936D02*
X158045000Y-28727064D01*
X159515000Y-28272936D02*
X159515000Y-28727064D01*
X136570000Y-44510000D02*
X136570000Y-42910000D01*
X136890000Y-42840000D02*
X136890000Y-92840000D01*
X137230000Y-42293000D02*
X137230000Y-93387000D01*
X137500000Y-42230000D02*
X139990000Y-42230000D01*
X137500000Y-93450000D02*
X141337939Y-93450000D01*
X139990000Y-42230000D02*
X139990000Y-43143520D01*
X139990000Y-42230000D02*
X141337940Y-42230000D01*
X139990000Y-45536480D02*
X139990000Y-90143520D01*
X139990000Y-92536480D02*
X139990000Y-93450000D01*
X142262061Y-42230000D02*
X143265000Y-42230000D01*
X143265000Y-42230000D02*
X151735000Y-42230000D01*
X143390000Y-40930000D02*
X143390000Y-41750000D01*
X143390000Y-40930000D02*
X151610000Y-40930000D01*
X143390000Y-41750000D02*
X143600000Y-41750000D01*
X143600000Y-41750000D02*
X143600000Y-43146000D01*
X143600000Y-45534000D02*
X143600000Y-46750000D01*
X143900000Y-93450000D02*
X142262061Y-93450000D01*
X151100000Y-93450000D02*
X143900000Y-93450000D01*
X151400000Y-41750000D02*
X151400000Y-43146000D01*
X151400000Y-45534000D02*
X151400000Y-46750000D01*
X151400000Y-46750000D02*
X143600000Y-46750000D01*
X151610000Y-40930000D02*
X151610000Y-41750000D01*
X151610000Y-41750000D02*
X151400000Y-41750000D01*
X151735000Y-42230000D02*
X152737939Y-42230000D01*
X152737939Y-93450000D02*
X151100000Y-93450000D01*
X153662061Y-42230000D02*
X155010000Y-42230000D01*
X153662061Y-93450000D02*
X157500000Y-93450000D01*
X155010000Y-42230000D02*
X155010000Y-43143520D01*
X155010000Y-45536480D02*
X155010000Y-90143520D01*
X155010000Y-92536480D02*
X155010000Y-93450000D01*
X157500000Y-42230000D02*
X155010000Y-42230000D01*
X157770000Y-93387000D02*
X157770000Y-42293000D01*
X158110000Y-42840000D02*
X158110000Y-92840000D01*
X136890000Y-42840000D02*
G75*
G02*
X137500000Y-42230000I610000J0D01*
G01*
X137500000Y-93450000D02*
G75*
G02*
X136890000Y-92840000I-99J609901D01*
G01*
X157500000Y-42230000D02*
G75*
G02*
X158110000Y-42840000I0J-610000D01*
G01*
X158110000Y-92840000D02*
G75*
G02*
X157500000Y-93450000I-610000J0D01*
G01*
X149727064Y-113265000D02*
X149272936Y-113265000D01*
X149727064Y-114735000D02*
X149272936Y-114735000D01*
X87090000Y-32940000D02*
X88910000Y-32940000D01*
X87090000Y-32990000D02*
X87090000Y-32940000D01*
X87090000Y-36060000D02*
X87090000Y-36010000D01*
X88910000Y-32940000D02*
X88910000Y-32990000D01*
X88910000Y-36010000D02*
X88910000Y-36060000D01*
X88910000Y-36060000D02*
X87090000Y-36060000D01*
X86550000Y-32990000D02*
X86310000Y-32660000D01*
X86790000Y-32660000D01*
X86550000Y-32990000D01*
G36*
X86550000Y-32990000D02*
G01*
X86310000Y-32660000D01*
X86790000Y-32660000D01*
X86550000Y-32990000D01*
G37*
X148590000Y-116440000D02*
X150410000Y-116440000D01*
X148590000Y-116490000D02*
X148590000Y-116440000D01*
X148590000Y-119560000D02*
X148590000Y-119510000D01*
X150410000Y-116440000D02*
X150410000Y-116490000D01*
X150410000Y-119510000D02*
X150410000Y-119560000D01*
X150410000Y-119560000D02*
X148590000Y-119560000D01*
X148050000Y-116490000D02*
X147810000Y-116160000D01*
X148290000Y-116160000D01*
X148050000Y-116490000D01*
G36*
X148050000Y-116490000D02*
G01*
X147810000Y-116160000D01*
X148290000Y-116160000D01*
X148050000Y-116490000D01*
G37*
X153772936Y-118265000D02*
X154227064Y-118265000D01*
X153772936Y-119735000D02*
X154227064Y-119735000D01*
X142265000Y-55237936D02*
X142265000Y-55692064D01*
X143735000Y-55237936D02*
X143735000Y-55692064D01*
X116590000Y-27590000D02*
X118940000Y-27590000D01*
X116590000Y-33345563D02*
X116590000Y-27590000D01*
X117654437Y-34410000D02*
X116590000Y-33345563D01*
X117654437Y-34410000D02*
X118940000Y-34410000D01*
X117758750Y-35043750D02*
X118546250Y-35043750D01*
X118152500Y-35437500D02*
X118152500Y-34650000D01*
X122345563Y-34410000D02*
X121060000Y-34410000D01*
X122345563Y-34410000D02*
X123410000Y-33345563D01*
X123410000Y-27590000D02*
X121060000Y-27590000D01*
X123410000Y-33345563D02*
X123410000Y-27590000D01*
X147765000Y-36272936D02*
X147765000Y-36727064D01*
X149235000Y-36272936D02*
X149235000Y-36727064D01*
X105227064Y-35265000D02*
X104772936Y-35265000D01*
X105227064Y-36735000D02*
X104772936Y-36735000D01*
X66545000Y-48612936D02*
X66545000Y-49067064D01*
X68015000Y-48612936D02*
X68015000Y-49067064D01*
X102227064Y-39265000D02*
X101772936Y-39265000D01*
X102227064Y-40735000D02*
X101772936Y-40735000D01*
X92090000Y-27590000D02*
X94440000Y-27590000D01*
X92090000Y-33345563D02*
X92090000Y-27590000D01*
X93154437Y-34410000D02*
X92090000Y-33345563D01*
X93154437Y-34410000D02*
X94440000Y-34410000D01*
X93258750Y-35043750D02*
X94046250Y-35043750D01*
X93652500Y-35437500D02*
X93652500Y-34650000D01*
X97845563Y-34410000D02*
X96560000Y-34410000D01*
X97845563Y-34410000D02*
X98910000Y-33345563D01*
X98910000Y-27590000D02*
X96560000Y-27590000D01*
X98910000Y-33345563D02*
X98910000Y-27590000D01*
X140261252Y-107765000D02*
X139738748Y-107765000D01*
X140261252Y-109235000D02*
X139738748Y-109235000D01*
X142227064Y-115265000D02*
X141772936Y-115265000D01*
X142227064Y-116735000D02*
X141772936Y-116735000D01*
X63765000Y-36272936D02*
X63765000Y-36727064D01*
X65235000Y-36272936D02*
X65235000Y-36727064D01*
X149265000Y-62192064D02*
X149265000Y-61737936D01*
X150735000Y-62192064D02*
X150735000Y-61737936D01*
X98650000Y-40340000D02*
X97600000Y-40340000D01*
X98650000Y-42660000D02*
X97350000Y-42660000D01*
X97240000Y-40340000D02*
X96960000Y-40340000D01*
X97240000Y-40060000D01*
X97240000Y-40340000D01*
G36*
X97240000Y-40340000D02*
G01*
X96960000Y-40340000D01*
X97240000Y-40060000D01*
X97240000Y-40340000D01*
G37*
X76590000Y-27590000D02*
X78940000Y-27590000D01*
X76590000Y-33345563D02*
X76590000Y-27590000D01*
X77654437Y-34410000D02*
X76590000Y-33345563D01*
X77654437Y-34410000D02*
X78940000Y-34410000D01*
X77758750Y-35043750D02*
X78546250Y-35043750D01*
X78152500Y-35437500D02*
X78152500Y-34650000D01*
X82345563Y-34410000D02*
X81060000Y-34410000D01*
X82345563Y-34410000D02*
X83410000Y-33345563D01*
X83410000Y-27590000D02*
X81060000Y-27590000D01*
X83410000Y-33345563D02*
X83410000Y-27590000D01*
X99738748Y-36265000D02*
X100261252Y-36265000D01*
X99738748Y-37735000D02*
X100261252Y-37735000D01*
X147227064Y-102765000D02*
X146772936Y-102765000D01*
X147227064Y-104235000D02*
X146772936Y-104235000D01*
X106761252Y-39265000D02*
X106238748Y-39265000D01*
X106761252Y-40735000D02*
X106238748Y-40735000D01*
X96265000Y-45227064D02*
X96265000Y-44772936D01*
X97735000Y-45227064D02*
X97735000Y-44772936D01*
X67215000Y-34578738D02*
X69035000Y-34578738D01*
X67215000Y-34628738D02*
X67215000Y-34578738D01*
X67215000Y-37698738D02*
X67215000Y-37648738D01*
X69035000Y-34578738D02*
X69035000Y-34628738D01*
X69035000Y-37648738D02*
X69035000Y-37698738D01*
X69035000Y-37698738D02*
X67215000Y-37698738D01*
X69575000Y-37648738D02*
X69815000Y-37978738D01*
X69335000Y-37978738D01*
X69575000Y-37648738D01*
G36*
X69815000Y-37978738D02*
G01*
X69335000Y-37978738D01*
X69575000Y-37648738D01*
X69815000Y-37978738D01*
G37*
X78507064Y-62105000D02*
X78052936Y-62105000D01*
X78507064Y-63575000D02*
X78052936Y-63575000D01*
X95272936Y-36265000D02*
X95727064Y-36265000D01*
X95272936Y-37735000D02*
X95727064Y-37735000D01*
X151590000Y-33940000D02*
X153410000Y-33940000D01*
X151590000Y-33990000D02*
X151590000Y-33940000D01*
X151590000Y-37060000D02*
X151590000Y-37010000D01*
X153410000Y-33940000D02*
X153410000Y-33990000D01*
X153410000Y-37010000D02*
X153410000Y-37060000D01*
X153410000Y-37060000D02*
X151590000Y-37060000D01*
X153950000Y-37010000D02*
X154190000Y-37340000D01*
X153710000Y-37340000D01*
X153950000Y-37010000D01*
G36*
X154190000Y-37340000D02*
G01*
X153710000Y-37340000D01*
X153950000Y-37010000D01*
X154190000Y-37340000D01*
G37*
X98765000Y-45761252D02*
X98765000Y-45238748D01*
X100235000Y-45761252D02*
X100235000Y-45238748D01*
X141500000Y-97845000D02*
X141500000Y-96465000D01*
X142880000Y-97845000D02*
X141500000Y-97845000D01*
X144150000Y-95085000D02*
X154420000Y-95085000D01*
X144150000Y-97845000D02*
X144150000Y-95085000D01*
X144150000Y-97845000D02*
X154420000Y-97845000D01*
X154420000Y-97845000D02*
X154420000Y-95085000D01*
X100765000Y-29261252D02*
X100765000Y-28738748D01*
X102235000Y-29261252D02*
X102235000Y-28738748D01*
X74272936Y-33765000D02*
X74727064Y-33765000D01*
X74272936Y-35235000D02*
X74727064Y-35235000D01*
X62460000Y-43200000D02*
X62460000Y-41600000D01*
X62780000Y-41530000D02*
X62780000Y-91530000D01*
X63120000Y-40983000D02*
X63120000Y-92077000D01*
X63390000Y-40920000D02*
X65880000Y-40920000D01*
X63390000Y-92140000D02*
X67227939Y-92140000D01*
X65880000Y-40920000D02*
X65880000Y-41833520D01*
X65880000Y-40920000D02*
X67227940Y-40920000D01*
X65880000Y-44226480D02*
X65880000Y-88833520D01*
X65880000Y-91226480D02*
X65880000Y-92140000D01*
X68152061Y-40920000D02*
X69155000Y-40920000D01*
X69155000Y-40920000D02*
X77625000Y-40920000D01*
X69280000Y-39620000D02*
X69280000Y-40440000D01*
X69280000Y-39620000D02*
X77500000Y-39620000D01*
X69280000Y-40440000D02*
X69490000Y-40440000D01*
X69490000Y-40440000D02*
X69490000Y-41836000D01*
X69490000Y-44224000D02*
X69490000Y-45440000D01*
X69790000Y-92140000D02*
X68152061Y-92140000D01*
X76990000Y-92140000D02*
X69790000Y-92140000D01*
X77290000Y-40440000D02*
X77290000Y-41836000D01*
X77290000Y-44224000D02*
X77290000Y-45440000D01*
X77290000Y-45440000D02*
X69490000Y-45440000D01*
X77500000Y-39620000D02*
X77500000Y-40440000D01*
X77500000Y-40440000D02*
X77290000Y-40440000D01*
X77625000Y-40920000D02*
X78627939Y-40920000D01*
X78627939Y-92140000D02*
X76990000Y-92140000D01*
X79552061Y-40920000D02*
X80900000Y-40920000D01*
X79552061Y-92140000D02*
X83390000Y-92140000D01*
X80900000Y-40920000D02*
X80900000Y-41833520D01*
X80900000Y-44226480D02*
X80900000Y-88833520D01*
X80900000Y-91226480D02*
X80900000Y-92140000D01*
X83390000Y-40920000D02*
X80900000Y-40920000D01*
X83660000Y-92077000D02*
X83660000Y-40983000D01*
X84000000Y-41530000D02*
X84000000Y-91530000D01*
X62780000Y-41530000D02*
G75*
G02*
X63390000Y-40920000I610000J0D01*
G01*
X63390000Y-92140000D02*
G75*
G02*
X62780000Y-91530000I-99J609901D01*
G01*
X83390000Y-40920000D02*
G75*
G02*
X84000000Y-41530000I0J-610000D01*
G01*
X84000000Y-91530000D02*
G75*
G02*
X83390000Y-92140000I-610000J0D01*
G01*
X85727064Y-37265000D02*
X85272936Y-37265000D01*
X85727064Y-38735000D02*
X85272936Y-38735000D01*
X91227064Y-36765000D02*
X90772936Y-36765000D01*
X91227064Y-38235000D02*
X90772936Y-38235000D01*
X87227064Y-67265000D02*
X86772936Y-67265000D01*
X87227064Y-68735000D02*
X86772936Y-68735000D01*
X94227064Y-42765000D02*
X93772936Y-42765000D01*
X94227064Y-44235000D02*
X93772936Y-44235000D01*
X145545000Y-30723752D02*
X145545000Y-30201248D01*
X147015000Y-30723752D02*
X147015000Y-30201248D01*
X92620000Y-94810000D02*
X92620000Y-84540000D01*
X95380000Y-84540000D02*
X92620000Y-84540000D01*
X95380000Y-94810000D02*
X92620000Y-94810000D01*
X95380000Y-94810000D02*
X95380000Y-84540000D01*
X95380000Y-96080000D02*
X95380000Y-97460000D01*
X95380000Y-97460000D02*
X94000000Y-97460000D01*
X113765000Y-35727064D02*
X113765000Y-35272936D01*
X115235000Y-35727064D02*
X115235000Y-35272936D01*
X96570000Y-75045000D02*
X96570000Y-73445000D01*
X96890000Y-73375000D02*
X96890000Y-123375000D01*
X97230000Y-72828000D02*
X97230000Y-123922000D01*
X97500000Y-72765000D02*
X99990000Y-72765000D01*
X97500000Y-123985000D02*
X101337939Y-123985000D01*
X99990000Y-72765000D02*
X99990000Y-73678520D01*
X99990000Y-72765000D02*
X101337940Y-72765000D01*
X99990000Y-76071480D02*
X99990000Y-120678520D01*
X99990000Y-123071480D02*
X99990000Y-123985000D01*
X102262061Y-72765000D02*
X103265000Y-72765000D01*
X103265000Y-72765000D02*
X111735000Y-72765000D01*
X103390000Y-71465000D02*
X103390000Y-72285000D01*
X103390000Y-71465000D02*
X111610000Y-71465000D01*
X103390000Y-72285000D02*
X103600000Y-72285000D01*
X103600000Y-72285000D02*
X103600000Y-73681000D01*
X103600000Y-76069000D02*
X103600000Y-77285000D01*
X103900000Y-123985000D02*
X102262061Y-123985000D01*
X111100000Y-123985000D02*
X103900000Y-123985000D01*
X111400000Y-72285000D02*
X111400000Y-73681000D01*
X111400000Y-76069000D02*
X111400000Y-77285000D01*
X111400000Y-77285000D02*
X103600000Y-77285000D01*
X111610000Y-71465000D02*
X111610000Y-72285000D01*
X111610000Y-72285000D02*
X111400000Y-72285000D01*
X111735000Y-72765000D02*
X112737939Y-72765000D01*
X112737939Y-123985000D02*
X111100000Y-123985000D01*
X113662061Y-72765000D02*
X115010000Y-72765000D01*
X113662061Y-123985000D02*
X117500000Y-123985000D01*
X115010000Y-72765000D02*
X115010000Y-73678520D01*
X115010000Y-76071480D02*
X115010000Y-120678520D01*
X115010000Y-123071480D02*
X115010000Y-123985000D01*
X117500000Y-72765000D02*
X115010000Y-72765000D01*
X117770000Y-123922000D02*
X117770000Y-72828000D01*
X118110000Y-73375000D02*
X118110000Y-123375000D01*
X96890000Y-73375000D02*
G75*
G02*
X97500000Y-72765000I610000J0D01*
G01*
X97500000Y-123985000D02*
G75*
G02*
X96890000Y-123375000I-99J609901D01*
G01*
X117500000Y-72765000D02*
G75*
G02*
X118110000Y-73375000I0J-610000D01*
G01*
X118110000Y-123375000D02*
G75*
G02*
X117500000Y-123985000I-610000J0D01*
G01*
X135265000Y-112238748D02*
X135265000Y-112761252D01*
X136735000Y-112238748D02*
X136735000Y-112761252D01*
X114265000Y-30727064D02*
X114265000Y-30272936D01*
X115735000Y-30727064D02*
X115735000Y-30272936D01*
X78507064Y-64605000D02*
X78052936Y-64605000D01*
X78507064Y-66075000D02*
X78052936Y-66075000D01*
X83761252Y-35265000D02*
X83238748Y-35265000D01*
X83761252Y-36735000D02*
X83238748Y-36735000D01*
X148272936Y-85730000D02*
X148727064Y-85730000D01*
X148272936Y-87200000D02*
X148727064Y-87200000D01*
X137590000Y-27090000D02*
X139940000Y-27090000D01*
X137590000Y-32845563D02*
X137590000Y-27090000D01*
X138654437Y-33910000D02*
X137590000Y-32845563D01*
X138654437Y-33910000D02*
X139940000Y-33910000D01*
X138758750Y-34543750D02*
X139546250Y-34543750D01*
X139152500Y-34937500D02*
X139152500Y-34150000D01*
X143345563Y-33910000D02*
X142060000Y-33910000D01*
X143345563Y-33910000D02*
X144410000Y-32845563D01*
X144410000Y-27090000D02*
X142060000Y-27090000D01*
X144410000Y-32845563D02*
X144410000Y-27090000D01*
X100765000Y-32738748D02*
X100765000Y-33261252D01*
X102235000Y-32738748D02*
X102235000Y-33261252D01*
X147765000Y-109727064D02*
X147765000Y-109272936D01*
X149235000Y-109727064D02*
X149235000Y-109272936D01*
X74265000Y-30772936D02*
X74265000Y-31227064D01*
X75735000Y-30772936D02*
X75735000Y-31227064D01*
X67045000Y-58612936D02*
X67045000Y-59067064D01*
X68515000Y-58612936D02*
X68515000Y-59067064D01*
X108090000Y-34940000D02*
X109910000Y-34940000D01*
X108090000Y-34990000D02*
X108090000Y-34940000D01*
X108090000Y-38060000D02*
X108090000Y-38010000D01*
X109910000Y-34940000D02*
X109910000Y-34990000D01*
X109910000Y-38010000D02*
X109910000Y-38060000D01*
X109910000Y-38060000D02*
X108090000Y-38060000D01*
X110450000Y-38010000D02*
X110690000Y-38340000D01*
X110210000Y-38340000D01*
X110450000Y-38010000D01*
G36*
X110690000Y-38340000D02*
G01*
X110210000Y-38340000D01*
X110450000Y-38010000D01*
X110690000Y-38340000D01*
G37*
X142265000Y-59737936D02*
X142265000Y-60192064D01*
X143735000Y-59737936D02*
X143735000Y-60192064D01*
X144227064Y-107765000D02*
X143772936Y-107765000D01*
X144227064Y-109235000D02*
X143772936Y-109235000D01*
%LPC*%
D13*
X68160000Y-95340000D03*
D14*
X70700000Y-95340000D03*
X73240000Y-95340000D03*
X75780000Y-95340000D03*
X78320000Y-95340000D03*
D15*
X139362500Y-112050000D03*
X139362500Y-113000000D03*
X139362500Y-113950000D03*
X141637500Y-113950000D03*
X141637500Y-113000000D03*
X141637500Y-112050000D03*
D16*
X153000000Y-88465000D03*
X153000000Y-86465000D03*
D17*
X67780000Y-53840000D03*
X67780000Y-55840000D03*
D18*
X62500000Y-29537500D03*
X62500000Y-27462500D03*
D16*
X141000000Y-52965000D03*
X141000000Y-50965000D03*
D19*
X111527500Y-30970000D03*
X105747500Y-30970000D03*
D20*
X111837500Y-32035000D03*
X111037500Y-32035000D03*
D21*
X110387500Y-32035000D03*
X109887500Y-32035000D03*
X109387500Y-32035000D03*
X108887500Y-32035000D03*
X108387500Y-32035000D03*
X107887500Y-32035000D03*
X107387500Y-32035000D03*
X106887500Y-32035000D03*
D20*
X106237500Y-32035000D03*
X105437500Y-32035000D03*
D22*
X112957500Y-31470000D03*
D23*
X112957500Y-27290000D03*
D22*
X104317500Y-31470000D03*
D23*
X104317500Y-27290000D03*
D16*
X153000000Y-64465000D03*
X153000000Y-62465000D03*
D24*
X157000000Y-34500000D03*
X159000000Y-34500000D03*
D16*
X78000000Y-87000000D03*
X78000000Y-85000000D03*
D17*
X158780000Y-27500000D03*
X158780000Y-29500000D03*
D25*
X138610000Y-43710000D03*
D26*
X138610000Y-46250000D03*
D27*
X138610000Y-48790000D03*
D26*
X138610000Y-51330000D03*
X138610000Y-53870000D03*
X138610000Y-56410000D03*
X138610000Y-58950000D03*
D27*
X138610000Y-61490000D03*
D26*
X138610000Y-64030000D03*
X138610000Y-66570000D03*
X138610000Y-69110000D03*
X138610000Y-71650000D03*
D27*
X138610000Y-74190000D03*
D26*
X138610000Y-76730000D03*
X138610000Y-79270000D03*
X138610000Y-81810000D03*
X138610000Y-84350000D03*
D27*
X138610000Y-86890000D03*
D26*
X138610000Y-89430000D03*
X138610000Y-91970000D03*
X156390000Y-91970000D03*
X156390000Y-89430000D03*
D28*
X156390000Y-86890000D03*
D26*
X156390000Y-84350000D03*
X156390000Y-81810000D03*
X156390000Y-79270000D03*
X156390000Y-76730000D03*
D28*
X156390000Y-74190000D03*
D26*
X156390000Y-71650000D03*
X156390000Y-69110000D03*
X156390000Y-66570000D03*
X156390000Y-64030000D03*
D28*
X156390000Y-61490000D03*
D26*
X156390000Y-58950000D03*
X156390000Y-56410000D03*
X156390000Y-53870000D03*
X156390000Y-51330000D03*
D28*
X156390000Y-48790000D03*
D26*
X156390000Y-46250000D03*
X156390000Y-43710000D03*
D29*
X144960000Y-91740000D03*
X147500000Y-91740000D03*
X150040000Y-91740000D03*
X147500000Y-46840000D03*
X148500000Y-43540000D03*
X146500000Y-43540000D03*
D30*
X150500000Y-114000000D03*
X148500000Y-114000000D03*
D15*
X86862500Y-33550000D03*
X86862500Y-34500000D03*
X86862500Y-35450000D03*
X89137500Y-35450000D03*
X89137500Y-34500000D03*
X89137500Y-33550000D03*
X148362500Y-117050000D03*
X148362500Y-118000000D03*
X148362500Y-118950000D03*
X150637500Y-118950000D03*
X150637500Y-118000000D03*
X150637500Y-117050000D03*
D24*
X153000000Y-119000000D03*
X155000000Y-119000000D03*
D17*
X143000000Y-54465000D03*
X143000000Y-56465000D03*
D31*
X120000000Y-33700000D03*
X120000000Y-28300000D03*
D17*
X148500000Y-35500000D03*
X148500000Y-37500000D03*
D30*
X106000000Y-36000000D03*
X104000000Y-36000000D03*
D17*
X67280000Y-47840000D03*
X67280000Y-49840000D03*
D30*
X103000000Y-40000000D03*
X101000000Y-40000000D03*
D31*
X95500000Y-33700000D03*
X95500000Y-28300000D03*
D32*
X141037500Y-108500000D03*
X138962500Y-108500000D03*
D30*
X143000000Y-116000000D03*
X141000000Y-116000000D03*
D17*
X64500000Y-35500000D03*
X64500000Y-37500000D03*
D16*
X150000000Y-62965000D03*
X150000000Y-60965000D03*
D33*
X96995000Y-40750000D03*
X96995000Y-41250000D03*
X96995000Y-41750000D03*
X96995000Y-42250000D03*
X99005000Y-42250000D03*
X99005000Y-41750000D03*
X99005000Y-41250000D03*
X99005000Y-40750000D03*
D31*
X80000000Y-33700000D03*
X80000000Y-28300000D03*
D34*
X98962500Y-37000000D03*
X101037500Y-37000000D03*
D30*
X148000000Y-103500000D03*
X146000000Y-103500000D03*
D32*
X107537500Y-40000000D03*
X105462500Y-40000000D03*
D16*
X97000000Y-46000000D03*
X97000000Y-44000000D03*
D35*
X69262500Y-37088738D03*
X69262500Y-36138738D03*
X69262500Y-35188738D03*
X66987500Y-35188738D03*
X66987500Y-36138738D03*
X66987500Y-37088738D03*
D30*
X79280000Y-62840000D03*
X77280000Y-62840000D03*
D24*
X94500000Y-37000000D03*
X96500000Y-37000000D03*
D35*
X153637500Y-36450000D03*
X153637500Y-35500000D03*
X153637500Y-34550000D03*
X151362500Y-34550000D03*
X151362500Y-35500000D03*
X151362500Y-36450000D03*
D18*
X99500000Y-46537500D03*
X99500000Y-44462500D03*
D13*
X142880000Y-96465000D03*
D14*
X145420000Y-96465000D03*
X147960000Y-96465000D03*
X150500000Y-96465000D03*
X153040000Y-96465000D03*
D18*
X101500000Y-30037500D03*
X101500000Y-27962500D03*
D24*
X73500000Y-34500000D03*
X75500000Y-34500000D03*
D25*
X64500000Y-42400000D03*
D26*
X64500000Y-44940000D03*
D27*
X64500000Y-47480000D03*
D26*
X64500000Y-50020000D03*
X64500000Y-52560000D03*
X64500000Y-55100000D03*
X64500000Y-57640000D03*
D27*
X64500000Y-60180000D03*
D26*
X64500000Y-62720000D03*
X64500000Y-65260000D03*
X64500000Y-67800000D03*
X64500000Y-70340000D03*
D27*
X64500000Y-72880000D03*
D26*
X64500000Y-75420000D03*
X64500000Y-77960000D03*
X64500000Y-80500000D03*
X64500000Y-83040000D03*
D27*
X64500000Y-85580000D03*
D26*
X64500000Y-88120000D03*
X64500000Y-90660000D03*
X82280000Y-90660000D03*
X82280000Y-88120000D03*
D28*
X82280000Y-85580000D03*
D26*
X82280000Y-83040000D03*
X82280000Y-80500000D03*
X82280000Y-77960000D03*
X82280000Y-75420000D03*
D28*
X82280000Y-72880000D03*
D26*
X82280000Y-70340000D03*
X82280000Y-67800000D03*
X82280000Y-65260000D03*
X82280000Y-62720000D03*
D28*
X82280000Y-60180000D03*
D26*
X82280000Y-57640000D03*
X82280000Y-55100000D03*
X82280000Y-52560000D03*
X82280000Y-50020000D03*
D28*
X82280000Y-47480000D03*
D26*
X82280000Y-44940000D03*
X82280000Y-42400000D03*
D29*
X70850000Y-90430000D03*
X73390000Y-90430000D03*
X75930000Y-90430000D03*
X73390000Y-45530000D03*
X74390000Y-42230000D03*
X72390000Y-42230000D03*
D30*
X86500000Y-38000000D03*
X84500000Y-38000000D03*
X92000000Y-37500000D03*
X90000000Y-37500000D03*
X88000000Y-68000000D03*
X86000000Y-68000000D03*
X95000000Y-43500000D03*
X93000000Y-43500000D03*
D18*
X146280000Y-31500000D03*
X146280000Y-29425000D03*
D13*
X94000000Y-96080000D03*
D14*
X94000000Y-93540000D03*
X94000000Y-91000000D03*
X94000000Y-88460000D03*
X94000000Y-85920000D03*
D16*
X114500000Y-36500000D03*
X114500000Y-34500000D03*
D25*
X98610000Y-74245000D03*
D26*
X98610000Y-76785000D03*
D27*
X98610000Y-79325000D03*
D26*
X98610000Y-81865000D03*
X98610000Y-84405000D03*
X98610000Y-86945000D03*
X98610000Y-89485000D03*
D27*
X98610000Y-92025000D03*
D26*
X98610000Y-94565000D03*
X98610000Y-97105000D03*
X98610000Y-99645000D03*
X98610000Y-102185000D03*
D27*
X98610000Y-104725000D03*
D26*
X98610000Y-107265000D03*
X98610000Y-109805000D03*
X98610000Y-112345000D03*
X98610000Y-114885000D03*
D27*
X98610000Y-117425000D03*
D26*
X98610000Y-119965000D03*
X98610000Y-122505000D03*
X116390000Y-122505000D03*
X116390000Y-119965000D03*
D28*
X116390000Y-117425000D03*
D26*
X116390000Y-114885000D03*
X116390000Y-112345000D03*
X116390000Y-109805000D03*
X116390000Y-107265000D03*
D28*
X116390000Y-104725000D03*
D26*
X116390000Y-102185000D03*
X116390000Y-99645000D03*
X116390000Y-97105000D03*
X116390000Y-94565000D03*
D28*
X116390000Y-92025000D03*
D26*
X116390000Y-89485000D03*
X116390000Y-86945000D03*
X116390000Y-84405000D03*
X116390000Y-81865000D03*
D28*
X116390000Y-79325000D03*
D26*
X116390000Y-76785000D03*
X116390000Y-74245000D03*
D13*
X108084100Y-104075000D03*
D14*
X110624100Y-104075000D03*
X113164100Y-104075000D03*
D29*
X107500000Y-77375000D03*
X108500000Y-74075000D03*
X106500000Y-74075000D03*
D19*
X71640000Y-30935000D03*
X65860000Y-30935000D03*
D20*
X71950000Y-32000000D03*
X71150000Y-32000000D03*
D21*
X70500000Y-32000000D03*
X70000000Y-32000000D03*
X69500000Y-32000000D03*
X69000000Y-32000000D03*
X68500000Y-32000000D03*
X68000000Y-32000000D03*
X67500000Y-32000000D03*
X67000000Y-32000000D03*
D20*
X66350000Y-32000000D03*
X65550000Y-32000000D03*
D22*
X73070000Y-31435000D03*
D23*
X73070000Y-27255000D03*
D22*
X64430000Y-31435000D03*
D23*
X64430000Y-27255000D03*
D36*
X136000000Y-111462500D03*
X136000000Y-113537500D03*
D16*
X115000000Y-31500000D03*
X115000000Y-29500000D03*
D30*
X79280000Y-65340000D03*
X77280000Y-65340000D03*
D19*
X155390000Y-30935000D03*
X149610000Y-30935000D03*
D20*
X155700000Y-32000000D03*
X154900000Y-32000000D03*
D21*
X154250000Y-32000000D03*
X153750000Y-32000000D03*
X153250000Y-32000000D03*
X152750000Y-32000000D03*
X152250000Y-32000000D03*
X151750000Y-32000000D03*
X151250000Y-32000000D03*
X150750000Y-32000000D03*
D20*
X150100000Y-32000000D03*
X149300000Y-32000000D03*
D22*
X156820000Y-31435000D03*
D23*
X156820000Y-27255000D03*
D22*
X148180000Y-31435000D03*
D23*
X148180000Y-27255000D03*
D32*
X84537500Y-36000000D03*
X82462500Y-36000000D03*
D24*
X147500000Y-86465000D03*
X149500000Y-86465000D03*
D31*
X141000000Y-33200000D03*
X141000000Y-27800000D03*
D36*
X101500000Y-31962500D03*
X101500000Y-34037500D03*
D16*
X148500000Y-110500000D03*
X148500000Y-108500000D03*
D17*
X75000000Y-30000000D03*
X75000000Y-32000000D03*
X67780000Y-57840000D03*
X67780000Y-59840000D03*
D35*
X110137500Y-37450000D03*
X110137500Y-36500000D03*
X110137500Y-35550000D03*
X107862500Y-35550000D03*
X107862500Y-36500000D03*
X107862500Y-37450000D03*
D37*
X140960000Y-123500000D03*
D26*
X143500000Y-123500000D03*
X146040000Y-123500000D03*
X148580000Y-123500000D03*
X151120000Y-123500000D03*
X153660000Y-123500000D03*
D17*
X143000000Y-58965000D03*
X143000000Y-60965000D03*
D30*
X145000000Y-108500000D03*
X143000000Y-108500000D03*
%LPD*%
M02*
