G04 #@! TF.GenerationSoftware,KiCad,Pcbnew,10.0.6*
G04 #@! TF.CreationDate,2026-09-26T10:39:32+03:00*
G04 #@! TF.ProjectId,dock,646f636b-2e6b-4696-9361-645f70636258,rev?*
G04 #@! TF.SameCoordinates,Original*
G04 #@! TF.FileFunction,Soldermask,Bot*
G04 #@! TF.FilePolarity,Negative*
%FSLAX46Y46*%
G04 Gerber Fmt 4.6, Leading zero omitted, Abs format (unit mm)*
G04 Created by KiCad (PCBNEW 10.0.6) date 2026-09-26 10:39:32*
%MOMM*%
%LPD*%
G01*
G04 APERTURE LIST*
G04 Aperture macros list*
%AMRoundRect*
0 Rectangle with rounded corners*
0 $1 Rounding radius*
0 $2 $3 $4 $5 $6 $7 $8 $9 X,Y pos of 4 corners*
0 Add a 4 corners polygon primitive as box body*
4,1,4,$2,$3,$4,$5,$6,$7,$8,$9,$2,$3,0*
0 Add four circle primitives for the rounded corners*
1,1,$1+$1,$2,$3*
1,1,$1+$1,$4,$5*
1,1,$1+$1,$6,$7*
1,1,$1+$1,$8,$9*
0 Add four rect primitives between the rounded corners*
20,1,$1+$1,$2,$3,$4,$5,0*
20,1,$1+$1,$4,$5,$6,$7,0*
20,1,$1+$1,$6,$7,$8,$9,0*
20,1,$1+$1,$8,$9,$2,$3,0*%
%AMFreePoly0*
4,1,37,0.603843,0.796157,0.639018,0.796157,0.711114,0.766294,0.766294,0.711114,0.796157,0.639018,0.796157,0.603843,0.800000,0.600000,0.800000,-0.600000,0.796157,-0.603843,0.796157,-0.639018,0.766294,-0.711114,0.711114,-0.766294,0.639018,-0.796157,0.603843,-0.796157,0.600000,-0.800000,0.000000,-0.800000,0.000000,-0.796148,-0.078414,-0.796148,-0.232228,-0.765552,-0.377117,-0.705537,
-0.507515,-0.618408,-0.618408,-0.507515,-0.705537,-0.377117,-0.765552,-0.232228,-0.796148,-0.078414,-0.796148,0.078414,-0.765552,0.232228,-0.705537,0.377117,-0.618408,0.507515,-0.507515,0.618408,-0.377117,0.705537,-0.232228,0.765552,-0.078414,0.796148,0.000000,0.796148,0.000000,0.800000,0.600000,0.800000,0.603843,0.796157,0.603843,0.796157,$1*%
%AMFreePoly1*
4,1,37,0.000000,0.796148,0.078414,0.796148,0.232228,0.765552,0.377117,0.705537,0.507515,0.618408,0.618408,0.507515,0.705537,0.377117,0.765552,0.232228,0.796148,0.078414,0.796148,-0.078414,0.765552,-0.232228,0.705537,-0.377117,0.618408,-0.507515,0.507515,-0.618408,0.377117,-0.705537,0.232228,-0.765552,0.078414,-0.796148,0.000000,-0.796148,0.000000,-0.800000,-0.600000,-0.800000,
-0.603843,-0.796157,-0.639018,-0.796157,-0.711114,-0.766294,-0.766294,-0.711114,-0.796157,-0.639018,-0.796157,-0.603843,-0.800000,-0.600000,-0.800000,0.600000,-0.796157,0.603843,-0.796157,0.639018,-0.766294,0.711114,-0.711114,0.766294,-0.639018,0.796157,-0.603843,0.796157,-0.600000,0.800000,0.000000,0.800000,0.000000,0.796148,0.000000,0.796148,$1*%
G04 Aperture macros list end*
%ADD10R,1.700000X1.700000*%
%ADD11C,1.700000*%
%ADD12O,0.650000X0.650000*%
%ADD13O,1.000000X2.100000*%
%ADD14O,1.000000X1.800000*%
%ADD15RoundRect,0.200000X-0.600000X-0.600000X0.600000X-0.600000X0.600000X0.600000X-0.600000X0.600000X0*%
%ADD16C,1.600000*%
%ADD17FreePoly0,0.000000*%
%ADD18FreePoly1,0.000000*%
%ADD19C,1.300000*%
%ADD20R,1.600000X1.600000*%
G04 APERTURE END LIST*
D10*
X68160000Y-95340000D03*
D11*
X70700000Y-95340000D03*
X73240000Y-95340000D03*
X75780000Y-95340000D03*
X78320000Y-95340000D03*
D12*
X111527500Y-30970000D03*
X105747500Y-30970000D03*
D13*
X112957500Y-31470000D03*
D14*
X112957500Y-27290000D03*
D13*
X104317500Y-31470000D03*
D14*
X104317500Y-27290000D03*
D15*
X138610000Y-43710000D03*
D16*
X138610000Y-46250000D03*
D17*
X138610000Y-48790000D03*
D16*
X138610000Y-51330000D03*
X138610000Y-53870000D03*
X138610000Y-56410000D03*
X138610000Y-58950000D03*
D17*
X138610000Y-61490000D03*
D16*
X138610000Y-64030000D03*
X138610000Y-66570000D03*
X138610000Y-69110000D03*
X138610000Y-71650000D03*
D17*
X138610000Y-74190000D03*
D16*
X138610000Y-76730000D03*
X138610000Y-79270000D03*
X138610000Y-81810000D03*
X138610000Y-84350000D03*
D17*
X138610000Y-86890000D03*
D16*
X138610000Y-89430000D03*
X138610000Y-91970000D03*
X156390000Y-91970000D03*
X156390000Y-89430000D03*
D18*
X156390000Y-86890000D03*
D16*
X156390000Y-84350000D03*
X156390000Y-81810000D03*
X156390000Y-79270000D03*
X156390000Y-76730000D03*
D18*
X156390000Y-74190000D03*
D16*
X156390000Y-71650000D03*
X156390000Y-69110000D03*
X156390000Y-66570000D03*
X156390000Y-64030000D03*
D18*
X156390000Y-61490000D03*
D16*
X156390000Y-58950000D03*
X156390000Y-56410000D03*
X156390000Y-53870000D03*
X156390000Y-51330000D03*
D18*
X156390000Y-48790000D03*
D16*
X156390000Y-46250000D03*
X156390000Y-43710000D03*
D19*
X144960000Y-91740000D03*
X147500000Y-91740000D03*
X150040000Y-91740000D03*
X147500000Y-46840000D03*
X148500000Y-43540000D03*
X146500000Y-43540000D03*
D10*
X142880000Y-96465000D03*
D11*
X145420000Y-96465000D03*
X147960000Y-96465000D03*
X150500000Y-96465000D03*
X153040000Y-96465000D03*
D15*
X64500000Y-42400000D03*
D16*
X64500000Y-44940000D03*
D17*
X64500000Y-47480000D03*
D16*
X64500000Y-50020000D03*
X64500000Y-52560000D03*
X64500000Y-55100000D03*
X64500000Y-57640000D03*
D17*
X64500000Y-60180000D03*
D16*
X64500000Y-62720000D03*
X64500000Y-65260000D03*
X64500000Y-67800000D03*
X64500000Y-70340000D03*
D17*
X64500000Y-72880000D03*
D16*
X64500000Y-75420000D03*
X64500000Y-77960000D03*
X64500000Y-80500000D03*
X64500000Y-83040000D03*
D17*
X64500000Y-85580000D03*
D16*
X64500000Y-88120000D03*
X64500000Y-90660000D03*
X82280000Y-90660000D03*
X82280000Y-88120000D03*
D18*
X82280000Y-85580000D03*
D16*
X82280000Y-83040000D03*
X82280000Y-80500000D03*
X82280000Y-77960000D03*
X82280000Y-75420000D03*
D18*
X82280000Y-72880000D03*
D16*
X82280000Y-70340000D03*
X82280000Y-67800000D03*
X82280000Y-65260000D03*
X82280000Y-62720000D03*
D18*
X82280000Y-60180000D03*
D16*
X82280000Y-57640000D03*
X82280000Y-55100000D03*
X82280000Y-52560000D03*
X82280000Y-50020000D03*
D18*
X82280000Y-47480000D03*
D16*
X82280000Y-44940000D03*
X82280000Y-42400000D03*
D19*
X70850000Y-90430000D03*
X73390000Y-90430000D03*
X75930000Y-90430000D03*
X73390000Y-45530000D03*
X74390000Y-42230000D03*
X72390000Y-42230000D03*
D10*
X94000000Y-96080000D03*
D11*
X94000000Y-93540000D03*
X94000000Y-91000000D03*
X94000000Y-88460000D03*
X94000000Y-85920000D03*
D15*
X98610000Y-74245000D03*
D16*
X98610000Y-76785000D03*
D17*
X98610000Y-79325000D03*
D16*
X98610000Y-81865000D03*
X98610000Y-84405000D03*
X98610000Y-86945000D03*
X98610000Y-89485000D03*
D17*
X98610000Y-92025000D03*
D16*
X98610000Y-94565000D03*
X98610000Y-97105000D03*
X98610000Y-99645000D03*
X98610000Y-102185000D03*
D17*
X98610000Y-104725000D03*
D16*
X98610000Y-107265000D03*
X98610000Y-109805000D03*
X98610000Y-112345000D03*
X98610000Y-114885000D03*
D17*
X98610000Y-117425000D03*
D16*
X98610000Y-119965000D03*
X98610000Y-122505000D03*
X116390000Y-122505000D03*
X116390000Y-119965000D03*
D18*
X116390000Y-117425000D03*
D16*
X116390000Y-114885000D03*
X116390000Y-112345000D03*
X116390000Y-109805000D03*
X116390000Y-107265000D03*
D18*
X116390000Y-104725000D03*
D16*
X116390000Y-102185000D03*
X116390000Y-99645000D03*
X116390000Y-97105000D03*
X116390000Y-94565000D03*
D18*
X116390000Y-92025000D03*
D16*
X116390000Y-89485000D03*
X116390000Y-86945000D03*
X116390000Y-84405000D03*
X116390000Y-81865000D03*
D18*
X116390000Y-79325000D03*
D16*
X116390000Y-76785000D03*
X116390000Y-74245000D03*
D10*
X108084100Y-104075000D03*
D11*
X110624100Y-104075000D03*
X113164100Y-104075000D03*
D19*
X107500000Y-77375000D03*
X108500000Y-74075000D03*
X106500000Y-74075000D03*
D12*
X71640000Y-30935000D03*
X65860000Y-30935000D03*
D13*
X73070000Y-31435000D03*
D14*
X73070000Y-27255000D03*
D13*
X64430000Y-31435000D03*
D14*
X64430000Y-27255000D03*
D12*
X155390000Y-30935000D03*
X149610000Y-30935000D03*
D13*
X156820000Y-31435000D03*
D14*
X156820000Y-27255000D03*
D13*
X148180000Y-31435000D03*
D14*
X148180000Y-27255000D03*
D20*
X140960000Y-123500000D03*
D16*
X143500000Y-123500000D03*
X146040000Y-123500000D03*
X148580000Y-123500000D03*
X151120000Y-123500000D03*
X153660000Y-123500000D03*
M02*
